G04 #@! TF.GenerationSoftware,KiCad,Pcbnew,(5.0.0)*
G04 #@! TF.CreationDate,2018-12-27T13:03:48-05:00*
G04 #@! TF.ProjectId,32u2-breakout,333275322D627265616B6F75742E6B69,rev?*
G04 #@! TF.SameCoordinates,Original*
G04 #@! TF.FileFunction,Copper,L2,Bot,Signal*
G04 #@! TF.FilePolarity,Positive*
%FSLAX46Y46*%
G04 Gerber Fmt 4.6, Leading zero omitted, Abs format (unit mm)*
G04 Created by KiCad (PCBNEW (5.0.0)) date 12/27/18 13:03:48*
%MOMM*%
%LPD*%
G01*
G04 APERTURE LIST*
G04 #@! TA.AperFunction,ComponentPad*
%ADD10R,1.700000X1.700000*%
G04 #@! TD*
G04 #@! TA.AperFunction,ComponentPad*
%ADD11O,1.700000X1.700000*%
G04 #@! TD*
G04 #@! TA.AperFunction,ComponentPad*
%ADD12C,1.450000*%
G04 #@! TD*
G04 #@! TA.AperFunction,ComponentPad*
%ADD13O,1.200000X1.900000*%
G04 #@! TD*
G04 #@! TA.AperFunction,ViaPad*
%ADD14C,0.800000*%
G04 #@! TD*
G04 #@! TA.AperFunction,Conductor*
%ADD15C,0.250000*%
G04 #@! TD*
G04 #@! TA.AperFunction,Conductor*
%ADD16C,0.254000*%
G04 #@! TD*
G04 APERTURE END LIST*
D10*
G04 #@! TO.P,J3,1*
G04 #@! TO.N,Net-(J3-Pad1)*
X45974000Y-38608000D03*
D11*
G04 #@! TO.P,J3,2*
G04 #@! TO.N,Net-(J3-Pad2)*
X48514000Y-38608000D03*
G04 #@! TO.P,J3,3*
G04 #@! TO.N,Net-(J3-Pad3)*
X51054000Y-38608000D03*
G04 #@! TO.P,J3,4*
G04 #@! TO.N,Net-(J3-Pad4)*
X53594000Y-38608000D03*
G04 #@! TD*
G04 #@! TO.P,J2,8*
G04 #@! TO.N,Net-(J2-Pad8)*
X35000000Y-62780000D03*
G04 #@! TO.P,J2,7*
G04 #@! TO.N,Net-(J2-Pad7)*
X35000000Y-60240000D03*
G04 #@! TO.P,J2,6*
G04 #@! TO.N,Net-(J2-Pad6)*
X35000000Y-57700000D03*
G04 #@! TO.P,J2,5*
G04 #@! TO.N,Net-(J2-Pad5)*
X35000000Y-55160000D03*
G04 #@! TO.P,J2,4*
G04 #@! TO.N,Net-(J2-Pad4)*
X35000000Y-52620000D03*
G04 #@! TO.P,J2,3*
G04 #@! TO.N,Net-(J2-Pad3)*
X35000000Y-50080000D03*
G04 #@! TO.P,J2,2*
G04 #@! TO.N,Net-(J2-Pad2)*
X35000000Y-47540000D03*
D10*
G04 #@! TO.P,J2,1*
G04 #@! TO.N,Net-(J2-Pad1)*
X35000000Y-45000000D03*
G04 #@! TD*
G04 #@! TO.P,J1,1*
G04 #@! TO.N,Net-(J1-Pad1)*
X65000000Y-63000000D03*
D11*
G04 #@! TO.P,J1,2*
G04 #@! TO.N,Net-(J1-Pad2)*
X65000000Y-60460000D03*
G04 #@! TO.P,J1,3*
G04 #@! TO.N,Net-(J1-Pad3)*
X65000000Y-57920000D03*
G04 #@! TO.P,J1,4*
G04 #@! TO.N,Net-(J1-Pad4)*
X65000000Y-55380000D03*
G04 #@! TO.P,J1,5*
G04 #@! TO.N,Net-(J1-Pad5)*
X65000000Y-52840000D03*
G04 #@! TO.P,J1,6*
G04 #@! TO.N,Net-(J1-Pad6)*
X65000000Y-50300000D03*
G04 #@! TO.P,J1,7*
G04 #@! TO.N,Net-(J1-Pad7)*
X65000000Y-47760000D03*
G04 #@! TO.P,J1,8*
G04 #@! TO.N,Net-(J1-Pad8)*
X65000000Y-45220000D03*
G04 #@! TD*
D12*
G04 #@! TO.P,J4,6*
G04 #@! TO.N,Net-(J4-Pad6)*
X47538000Y-64323500D03*
X52538000Y-64323500D03*
D13*
X46538000Y-67023500D03*
X53538000Y-67023500D03*
G04 #@! TD*
D14*
G04 #@! TO.N,Net-(R1-Pad1)*
X53340000Y-59944000D03*
X49486097Y-43731903D03*
G04 #@! TO.N,Net-(J4-Pad2)*
X49022000Y-62738000D03*
X46482000Y-62992000D03*
G04 #@! TO.N,Net-(R2-Pad1)*
X46758653Y-59966653D03*
X48260000Y-43688000D03*
G04 #@! TO.N,GND*
X50391780Y-44645137D03*
X61976000Y-42926000D03*
X56642000Y-35560000D03*
X66802000Y-35052000D03*
X36576000Y-39116000D03*
X36322000Y-32004000D03*
X52070000Y-57404000D03*
X51642903Y-62932000D03*
X44196000Y-32258000D03*
X42711347Y-47204653D03*
G04 #@! TO.N,Net-(R4-Pad2)*
X64008000Y-38608000D03*
X59944000Y-38608000D03*
G04 #@! TO.N,Net-(C2-Pad1)*
X43688000Y-45720000D03*
X40132000Y-38100000D03*
G04 #@! TO.N,Net-(J3-Pad1)*
X42926000Y-50475000D03*
G04 #@! TO.N,Net-(J3-Pad4)*
X56642000Y-47752000D03*
G04 #@! TD*
D15*
G04 #@! TO.N,Net-(R1-Pad1)*
X53340000Y-59944000D02*
X49486097Y-56090097D01*
X49486097Y-56090097D02*
X49486097Y-43731903D01*
G04 #@! TO.N,Net-(J4-Pad2)*
X49022000Y-62738000D02*
X46736000Y-62738000D01*
X46736000Y-62738000D02*
X46482000Y-62992000D01*
G04 #@! TO.N,Net-(R2-Pad1)*
X46758653Y-59966653D02*
X48260000Y-58465306D01*
X48260000Y-58465306D02*
X48260000Y-43688000D01*
G04 #@! TO.N,Net-(R4-Pad2)*
X64008000Y-38608000D02*
X59944000Y-38608000D01*
G04 #@! TO.N,Net-(C2-Pad1)*
X43688000Y-45154315D02*
X40132000Y-41598315D01*
X43688000Y-45720000D02*
X43688000Y-45154315D01*
X40132000Y-41598315D02*
X40132000Y-38100000D01*
G04 #@! TO.N,Net-(J3-Pad1)*
X45974000Y-38608000D02*
X45974000Y-47752000D01*
X45974000Y-47752000D02*
X43688000Y-50038000D01*
X43363000Y-50038000D02*
X43688000Y-50038000D01*
X42926000Y-50475000D02*
X43363000Y-50038000D01*
G04 #@! TO.N,Net-(J3-Pad4)*
X53594000Y-38608000D02*
X53594000Y-44704000D01*
X53594000Y-44704000D02*
X56642000Y-47752000D01*
G04 #@! TO.N,Net-(J4-Pad6)*
X47388000Y-67023500D02*
X46538000Y-67023500D01*
X47538000Y-66873500D02*
X47388000Y-67023500D01*
X47538000Y-64323500D02*
X47538000Y-66873500D01*
X52688000Y-67023500D02*
X53538000Y-67023500D01*
X52538000Y-66873500D02*
X52688000Y-67023500D01*
X52538000Y-64323500D02*
X52538000Y-66873500D01*
G04 #@! TD*
D16*
G04 #@! TO.N,GND*
G36*
X66829000Y-30298387D02*
X66829001Y-30298392D01*
X66829000Y-65227553D01*
X64211554Y-67845000D01*
X54703407Y-67845000D01*
X54773000Y-67495135D01*
X54773000Y-66551864D01*
X54701344Y-66191627D01*
X54428385Y-65783115D01*
X54019872Y-65510156D01*
X53538000Y-65414305D01*
X53328940Y-65455890D01*
X53690952Y-65093878D01*
X53898000Y-64594021D01*
X53898000Y-64052979D01*
X53690952Y-63553122D01*
X53308378Y-63170548D01*
X52808521Y-62963500D01*
X52267479Y-62963500D01*
X51767622Y-63170548D01*
X51385048Y-63553122D01*
X51178000Y-64052979D01*
X51178000Y-64594021D01*
X51385048Y-65093878D01*
X51767622Y-65476452D01*
X51778000Y-65480751D01*
X51778001Y-66798648D01*
X51763112Y-66873500D01*
X51778001Y-66948352D01*
X51822097Y-67170037D01*
X51990072Y-67421429D01*
X52053528Y-67463829D01*
X52097669Y-67507970D01*
X52140071Y-67571429D01*
X52345476Y-67708676D01*
X52372593Y-67845000D01*
X47703407Y-67845000D01*
X47730524Y-67708676D01*
X47935929Y-67571429D01*
X47978331Y-67507970D01*
X48022470Y-67463831D01*
X48085929Y-67421429D01*
X48253904Y-67170037D01*
X48298000Y-66948352D01*
X48298000Y-66948348D01*
X48312888Y-66873501D01*
X48298000Y-66798654D01*
X48298000Y-65480751D01*
X48308378Y-65476452D01*
X48690952Y-65093878D01*
X48898000Y-64594021D01*
X48898000Y-64052979D01*
X48774967Y-63755951D01*
X48816126Y-63773000D01*
X49227874Y-63773000D01*
X49608280Y-63615431D01*
X49899431Y-63324280D01*
X50057000Y-62943874D01*
X50057000Y-62532126D01*
X49899431Y-62151720D01*
X49608280Y-61860569D01*
X49227874Y-61703000D01*
X48816126Y-61703000D01*
X48435720Y-61860569D01*
X48318289Y-61978000D01*
X46810846Y-61978000D01*
X46735999Y-61963112D01*
X46713456Y-61967596D01*
X46687874Y-61957000D01*
X46276126Y-61957000D01*
X45895720Y-62114569D01*
X45604569Y-62405720D01*
X45447000Y-62786126D01*
X45447000Y-63197874D01*
X45604569Y-63578280D01*
X45895720Y-63869431D01*
X46201555Y-63996112D01*
X46178000Y-64052979D01*
X46178000Y-64594021D01*
X46385048Y-65093878D01*
X46747060Y-65455890D01*
X46538000Y-65414305D01*
X46056128Y-65510156D01*
X45647616Y-65783115D01*
X45374656Y-66191627D01*
X45303000Y-66551864D01*
X45303000Y-67495135D01*
X45372593Y-67845000D01*
X35610447Y-67845000D01*
X35368911Y-67603465D01*
X35368909Y-67603462D01*
X33247000Y-65481554D01*
X33247000Y-47540000D01*
X33485908Y-47540000D01*
X33601161Y-48119418D01*
X33929375Y-48610625D01*
X34227761Y-48810000D01*
X33929375Y-49009375D01*
X33601161Y-49500582D01*
X33485908Y-50080000D01*
X33601161Y-50659418D01*
X33929375Y-51150625D01*
X34227761Y-51350000D01*
X33929375Y-51549375D01*
X33601161Y-52040582D01*
X33485908Y-52620000D01*
X33601161Y-53199418D01*
X33929375Y-53690625D01*
X34227761Y-53890000D01*
X33929375Y-54089375D01*
X33601161Y-54580582D01*
X33485908Y-55160000D01*
X33601161Y-55739418D01*
X33929375Y-56230625D01*
X34227761Y-56430000D01*
X33929375Y-56629375D01*
X33601161Y-57120582D01*
X33485908Y-57700000D01*
X33601161Y-58279418D01*
X33929375Y-58770625D01*
X34227761Y-58970000D01*
X33929375Y-59169375D01*
X33601161Y-59660582D01*
X33485908Y-60240000D01*
X33601161Y-60819418D01*
X33929375Y-61310625D01*
X34227761Y-61510000D01*
X33929375Y-61709375D01*
X33601161Y-62200582D01*
X33485908Y-62780000D01*
X33601161Y-63359418D01*
X33929375Y-63850625D01*
X34420582Y-64178839D01*
X34853744Y-64265000D01*
X35146256Y-64265000D01*
X35579418Y-64178839D01*
X36070625Y-63850625D01*
X36398839Y-63359418D01*
X36514092Y-62780000D01*
X36398839Y-62200582D01*
X36070625Y-61709375D01*
X35772239Y-61510000D01*
X36070625Y-61310625D01*
X36398839Y-60819418D01*
X36514092Y-60240000D01*
X36418770Y-59760779D01*
X45723653Y-59760779D01*
X45723653Y-60172527D01*
X45881222Y-60552933D01*
X46172373Y-60844084D01*
X46552779Y-61001653D01*
X46964527Y-61001653D01*
X47344933Y-60844084D01*
X47636084Y-60552933D01*
X47793653Y-60172527D01*
X47793653Y-60006455D01*
X48744476Y-59055633D01*
X48807929Y-59013235D01*
X48850327Y-58949782D01*
X48850329Y-58949780D01*
X48975903Y-58761844D01*
X48975904Y-58761843D01*
X49020000Y-58540158D01*
X49020000Y-58540154D01*
X49034888Y-58465307D01*
X49020000Y-58390460D01*
X49020000Y-56698801D01*
X52305000Y-59983802D01*
X52305000Y-60149874D01*
X52462569Y-60530280D01*
X52753720Y-60821431D01*
X53134126Y-60979000D01*
X53545874Y-60979000D01*
X53926280Y-60821431D01*
X54217431Y-60530280D01*
X54375000Y-60149874D01*
X54375000Y-59738126D01*
X54217431Y-59357720D01*
X53926280Y-59066569D01*
X53545874Y-58909000D01*
X53379802Y-58909000D01*
X50246097Y-55775296D01*
X50246097Y-44435614D01*
X50363528Y-44318183D01*
X50521097Y-43937777D01*
X50521097Y-43526029D01*
X50363528Y-43145623D01*
X50072377Y-42854472D01*
X49691971Y-42696903D01*
X49280223Y-42696903D01*
X48899817Y-42854472D01*
X48895000Y-42859289D01*
X48846280Y-42810569D01*
X48465874Y-42653000D01*
X48054126Y-42653000D01*
X47673720Y-42810569D01*
X47382569Y-43101720D01*
X47225000Y-43482126D01*
X47225000Y-43893874D01*
X47382569Y-44274280D01*
X47500001Y-44391712D01*
X47500000Y-58150503D01*
X46718851Y-58931653D01*
X46552779Y-58931653D01*
X46172373Y-59089222D01*
X45881222Y-59380373D01*
X45723653Y-59760779D01*
X36418770Y-59760779D01*
X36398839Y-59660582D01*
X36070625Y-59169375D01*
X35772239Y-58970000D01*
X36070625Y-58770625D01*
X36398839Y-58279418D01*
X36514092Y-57700000D01*
X36398839Y-57120582D01*
X36070625Y-56629375D01*
X35772239Y-56430000D01*
X36070625Y-56230625D01*
X36398839Y-55739418D01*
X36514092Y-55160000D01*
X36398839Y-54580582D01*
X36070625Y-54089375D01*
X35772239Y-53890000D01*
X36070625Y-53690625D01*
X36398839Y-53199418D01*
X36514092Y-52620000D01*
X36398839Y-52040582D01*
X36070625Y-51549375D01*
X35772239Y-51350000D01*
X36070625Y-51150625D01*
X36398839Y-50659418D01*
X36476472Y-50269126D01*
X41891000Y-50269126D01*
X41891000Y-50680874D01*
X42048569Y-51061280D01*
X42339720Y-51352431D01*
X42720126Y-51510000D01*
X43131874Y-51510000D01*
X43512280Y-51352431D01*
X43803431Y-51061280D01*
X43925921Y-50765564D01*
X43984537Y-50753904D01*
X44235929Y-50585929D01*
X44278331Y-50522470D01*
X46458473Y-48342329D01*
X46521929Y-48299929D01*
X46689904Y-48048537D01*
X46734000Y-47826852D01*
X46734000Y-47826848D01*
X46748888Y-47752001D01*
X46734000Y-47677154D01*
X46734000Y-40105440D01*
X46824000Y-40105440D01*
X47071765Y-40056157D01*
X47281809Y-39915809D01*
X47422157Y-39705765D01*
X47431184Y-39660381D01*
X47443375Y-39678625D01*
X47934582Y-40006839D01*
X48367744Y-40093000D01*
X48660256Y-40093000D01*
X49093418Y-40006839D01*
X49584625Y-39678625D01*
X49784000Y-39380239D01*
X49983375Y-39678625D01*
X50474582Y-40006839D01*
X50907744Y-40093000D01*
X51200256Y-40093000D01*
X51633418Y-40006839D01*
X52124625Y-39678625D01*
X52324000Y-39380239D01*
X52523375Y-39678625D01*
X52834000Y-39886178D01*
X52834001Y-44629148D01*
X52819112Y-44704000D01*
X52878097Y-45000537D01*
X52980848Y-45154314D01*
X53046072Y-45251929D01*
X53109528Y-45294329D01*
X55607000Y-47791802D01*
X55607000Y-47957874D01*
X55764569Y-48338280D01*
X56055720Y-48629431D01*
X56436126Y-48787000D01*
X56847874Y-48787000D01*
X57228280Y-48629431D01*
X57519431Y-48338280D01*
X57677000Y-47957874D01*
X57677000Y-47546126D01*
X57519431Y-47165720D01*
X57228280Y-46874569D01*
X56847874Y-46717000D01*
X56681802Y-46717000D01*
X55184802Y-45220000D01*
X63485908Y-45220000D01*
X63601161Y-45799418D01*
X63929375Y-46290625D01*
X64227761Y-46490000D01*
X63929375Y-46689375D01*
X63601161Y-47180582D01*
X63485908Y-47760000D01*
X63601161Y-48339418D01*
X63929375Y-48830625D01*
X64227761Y-49030000D01*
X63929375Y-49229375D01*
X63601161Y-49720582D01*
X63485908Y-50300000D01*
X63601161Y-50879418D01*
X63929375Y-51370625D01*
X64227761Y-51570000D01*
X63929375Y-51769375D01*
X63601161Y-52260582D01*
X63485908Y-52840000D01*
X63601161Y-53419418D01*
X63929375Y-53910625D01*
X64227761Y-54110000D01*
X63929375Y-54309375D01*
X63601161Y-54800582D01*
X63485908Y-55380000D01*
X63601161Y-55959418D01*
X63929375Y-56450625D01*
X64227761Y-56650000D01*
X63929375Y-56849375D01*
X63601161Y-57340582D01*
X63485908Y-57920000D01*
X63601161Y-58499418D01*
X63929375Y-58990625D01*
X64227761Y-59190000D01*
X63929375Y-59389375D01*
X63601161Y-59880582D01*
X63485908Y-60460000D01*
X63601161Y-61039418D01*
X63929375Y-61530625D01*
X63947619Y-61542816D01*
X63902235Y-61551843D01*
X63692191Y-61692191D01*
X63551843Y-61902235D01*
X63502560Y-62150000D01*
X63502560Y-63850000D01*
X63551843Y-64097765D01*
X63692191Y-64307809D01*
X63902235Y-64448157D01*
X64150000Y-64497440D01*
X65850000Y-64497440D01*
X66097765Y-64448157D01*
X66307809Y-64307809D01*
X66448157Y-64097765D01*
X66497440Y-63850000D01*
X66497440Y-62150000D01*
X66448157Y-61902235D01*
X66307809Y-61692191D01*
X66097765Y-61551843D01*
X66052381Y-61542816D01*
X66070625Y-61530625D01*
X66398839Y-61039418D01*
X66514092Y-60460000D01*
X66398839Y-59880582D01*
X66070625Y-59389375D01*
X65772239Y-59190000D01*
X66070625Y-58990625D01*
X66398839Y-58499418D01*
X66514092Y-57920000D01*
X66398839Y-57340582D01*
X66070625Y-56849375D01*
X65772239Y-56650000D01*
X66070625Y-56450625D01*
X66398839Y-55959418D01*
X66514092Y-55380000D01*
X66398839Y-54800582D01*
X66070625Y-54309375D01*
X65772239Y-54110000D01*
X66070625Y-53910625D01*
X66398839Y-53419418D01*
X66514092Y-52840000D01*
X66398839Y-52260582D01*
X66070625Y-51769375D01*
X65772239Y-51570000D01*
X66070625Y-51370625D01*
X66398839Y-50879418D01*
X66514092Y-50300000D01*
X66398839Y-49720582D01*
X66070625Y-49229375D01*
X65772239Y-49030000D01*
X66070625Y-48830625D01*
X66398839Y-48339418D01*
X66514092Y-47760000D01*
X66398839Y-47180582D01*
X66070625Y-46689375D01*
X65772239Y-46490000D01*
X66070625Y-46290625D01*
X66398839Y-45799418D01*
X66514092Y-45220000D01*
X66398839Y-44640582D01*
X66070625Y-44149375D01*
X65579418Y-43821161D01*
X65146256Y-43735000D01*
X64853744Y-43735000D01*
X64420582Y-43821161D01*
X63929375Y-44149375D01*
X63601161Y-44640582D01*
X63485908Y-45220000D01*
X55184802Y-45220000D01*
X54354000Y-44389199D01*
X54354000Y-39886178D01*
X54664625Y-39678625D01*
X54992839Y-39187418D01*
X55108092Y-38608000D01*
X55067142Y-38402126D01*
X58909000Y-38402126D01*
X58909000Y-38813874D01*
X59066569Y-39194280D01*
X59357720Y-39485431D01*
X59738126Y-39643000D01*
X60149874Y-39643000D01*
X60530280Y-39485431D01*
X60647711Y-39368000D01*
X63304289Y-39368000D01*
X63421720Y-39485431D01*
X63802126Y-39643000D01*
X64213874Y-39643000D01*
X64594280Y-39485431D01*
X64885431Y-39194280D01*
X65043000Y-38813874D01*
X65043000Y-38402126D01*
X64885431Y-38021720D01*
X64594280Y-37730569D01*
X64213874Y-37573000D01*
X63802126Y-37573000D01*
X63421720Y-37730569D01*
X63304289Y-37848000D01*
X60647711Y-37848000D01*
X60530280Y-37730569D01*
X60149874Y-37573000D01*
X59738126Y-37573000D01*
X59357720Y-37730569D01*
X59066569Y-38021720D01*
X58909000Y-38402126D01*
X55067142Y-38402126D01*
X54992839Y-38028582D01*
X54664625Y-37537375D01*
X54173418Y-37209161D01*
X53740256Y-37123000D01*
X53447744Y-37123000D01*
X53014582Y-37209161D01*
X52523375Y-37537375D01*
X52324000Y-37835761D01*
X52124625Y-37537375D01*
X51633418Y-37209161D01*
X51200256Y-37123000D01*
X50907744Y-37123000D01*
X50474582Y-37209161D01*
X49983375Y-37537375D01*
X49784000Y-37835761D01*
X49584625Y-37537375D01*
X49093418Y-37209161D01*
X48660256Y-37123000D01*
X48367744Y-37123000D01*
X47934582Y-37209161D01*
X47443375Y-37537375D01*
X47431184Y-37555619D01*
X47422157Y-37510235D01*
X47281809Y-37300191D01*
X47071765Y-37159843D01*
X46824000Y-37110560D01*
X45124000Y-37110560D01*
X44876235Y-37159843D01*
X44666191Y-37300191D01*
X44525843Y-37510235D01*
X44476560Y-37758000D01*
X44476560Y-39458000D01*
X44525843Y-39705765D01*
X44666191Y-39915809D01*
X44876235Y-40056157D01*
X45124000Y-40105440D01*
X45214000Y-40105440D01*
X45214001Y-47437197D01*
X43383925Y-49267274D01*
X43362999Y-49263112D01*
X43288152Y-49278000D01*
X43288148Y-49278000D01*
X43066463Y-49322096D01*
X42890007Y-49440000D01*
X42720126Y-49440000D01*
X42339720Y-49597569D01*
X42048569Y-49888720D01*
X41891000Y-50269126D01*
X36476472Y-50269126D01*
X36514092Y-50080000D01*
X36398839Y-49500582D01*
X36070625Y-49009375D01*
X35772239Y-48810000D01*
X36070625Y-48610625D01*
X36398839Y-48119418D01*
X36514092Y-47540000D01*
X36398839Y-46960582D01*
X36070625Y-46469375D01*
X36052381Y-46457184D01*
X36097765Y-46448157D01*
X36307809Y-46307809D01*
X36448157Y-46097765D01*
X36497440Y-45850000D01*
X36497440Y-44150000D01*
X36448157Y-43902235D01*
X36307809Y-43692191D01*
X36097765Y-43551843D01*
X35850000Y-43502560D01*
X34150000Y-43502560D01*
X33902235Y-43551843D01*
X33692191Y-43692191D01*
X33551843Y-43902235D01*
X33502560Y-44150000D01*
X33502560Y-45850000D01*
X33551843Y-46097765D01*
X33692191Y-46307809D01*
X33902235Y-46448157D01*
X33947619Y-46457184D01*
X33929375Y-46469375D01*
X33601161Y-46960582D01*
X33485908Y-47540000D01*
X33247000Y-47540000D01*
X33247000Y-37894126D01*
X39097000Y-37894126D01*
X39097000Y-38305874D01*
X39254569Y-38686280D01*
X39372001Y-38803712D01*
X39372000Y-41523468D01*
X39357112Y-41598315D01*
X39372000Y-41673162D01*
X39372000Y-41673166D01*
X39416096Y-41894851D01*
X39584071Y-42146244D01*
X39647530Y-42188646D01*
X42746728Y-45287846D01*
X42653000Y-45514126D01*
X42653000Y-45925874D01*
X42810569Y-46306280D01*
X43101720Y-46597431D01*
X43482126Y-46755000D01*
X43893874Y-46755000D01*
X44274280Y-46597431D01*
X44565431Y-46306280D01*
X44723000Y-45925874D01*
X44723000Y-45514126D01*
X44565431Y-45133720D01*
X44432314Y-45000603D01*
X44403904Y-44857778D01*
X44301153Y-44704000D01*
X44278329Y-44669841D01*
X44278327Y-44669839D01*
X44235929Y-44606386D01*
X44172476Y-44563988D01*
X40892000Y-41283514D01*
X40892000Y-38803711D01*
X41009431Y-38686280D01*
X41167000Y-38305874D01*
X41167000Y-37894126D01*
X41009431Y-37513720D01*
X40718280Y-37222569D01*
X40337874Y-37065000D01*
X39926126Y-37065000D01*
X39545720Y-37222569D01*
X39254569Y-37513720D01*
X39097000Y-37894126D01*
X33247000Y-37894126D01*
X33247000Y-30199000D01*
X66829000Y-30199000D01*
X66829000Y-30298387D01*
X66829000Y-30298387D01*
G37*
X66829000Y-30298387D02*
X66829001Y-30298392D01*
X66829000Y-65227553D01*
X64211554Y-67845000D01*
X54703407Y-67845000D01*
X54773000Y-67495135D01*
X54773000Y-66551864D01*
X54701344Y-66191627D01*
X54428385Y-65783115D01*
X54019872Y-65510156D01*
X53538000Y-65414305D01*
X53328940Y-65455890D01*
X53690952Y-65093878D01*
X53898000Y-64594021D01*
X53898000Y-64052979D01*
X53690952Y-63553122D01*
X53308378Y-63170548D01*
X52808521Y-62963500D01*
X52267479Y-62963500D01*
X51767622Y-63170548D01*
X51385048Y-63553122D01*
X51178000Y-64052979D01*
X51178000Y-64594021D01*
X51385048Y-65093878D01*
X51767622Y-65476452D01*
X51778000Y-65480751D01*
X51778001Y-66798648D01*
X51763112Y-66873500D01*
X51778001Y-66948352D01*
X51822097Y-67170037D01*
X51990072Y-67421429D01*
X52053528Y-67463829D01*
X52097669Y-67507970D01*
X52140071Y-67571429D01*
X52345476Y-67708676D01*
X52372593Y-67845000D01*
X47703407Y-67845000D01*
X47730524Y-67708676D01*
X47935929Y-67571429D01*
X47978331Y-67507970D01*
X48022470Y-67463831D01*
X48085929Y-67421429D01*
X48253904Y-67170037D01*
X48298000Y-66948352D01*
X48298000Y-66948348D01*
X48312888Y-66873501D01*
X48298000Y-66798654D01*
X48298000Y-65480751D01*
X48308378Y-65476452D01*
X48690952Y-65093878D01*
X48898000Y-64594021D01*
X48898000Y-64052979D01*
X48774967Y-63755951D01*
X48816126Y-63773000D01*
X49227874Y-63773000D01*
X49608280Y-63615431D01*
X49899431Y-63324280D01*
X50057000Y-62943874D01*
X50057000Y-62532126D01*
X49899431Y-62151720D01*
X49608280Y-61860569D01*
X49227874Y-61703000D01*
X48816126Y-61703000D01*
X48435720Y-61860569D01*
X48318289Y-61978000D01*
X46810846Y-61978000D01*
X46735999Y-61963112D01*
X46713456Y-61967596D01*
X46687874Y-61957000D01*
X46276126Y-61957000D01*
X45895720Y-62114569D01*
X45604569Y-62405720D01*
X45447000Y-62786126D01*
X45447000Y-63197874D01*
X45604569Y-63578280D01*
X45895720Y-63869431D01*
X46201555Y-63996112D01*
X46178000Y-64052979D01*
X46178000Y-64594021D01*
X46385048Y-65093878D01*
X46747060Y-65455890D01*
X46538000Y-65414305D01*
X46056128Y-65510156D01*
X45647616Y-65783115D01*
X45374656Y-66191627D01*
X45303000Y-66551864D01*
X45303000Y-67495135D01*
X45372593Y-67845000D01*
X35610447Y-67845000D01*
X35368911Y-67603465D01*
X35368909Y-67603462D01*
X33247000Y-65481554D01*
X33247000Y-47540000D01*
X33485908Y-47540000D01*
X33601161Y-48119418D01*
X33929375Y-48610625D01*
X34227761Y-48810000D01*
X33929375Y-49009375D01*
X33601161Y-49500582D01*
X33485908Y-50080000D01*
X33601161Y-50659418D01*
X33929375Y-51150625D01*
X34227761Y-51350000D01*
X33929375Y-51549375D01*
X33601161Y-52040582D01*
X33485908Y-52620000D01*
X33601161Y-53199418D01*
X33929375Y-53690625D01*
X34227761Y-53890000D01*
X33929375Y-54089375D01*
X33601161Y-54580582D01*
X33485908Y-55160000D01*
X33601161Y-55739418D01*
X33929375Y-56230625D01*
X34227761Y-56430000D01*
X33929375Y-56629375D01*
X33601161Y-57120582D01*
X33485908Y-57700000D01*
X33601161Y-58279418D01*
X33929375Y-58770625D01*
X34227761Y-58970000D01*
X33929375Y-59169375D01*
X33601161Y-59660582D01*
X33485908Y-60240000D01*
X33601161Y-60819418D01*
X33929375Y-61310625D01*
X34227761Y-61510000D01*
X33929375Y-61709375D01*
X33601161Y-62200582D01*
X33485908Y-62780000D01*
X33601161Y-63359418D01*
X33929375Y-63850625D01*
X34420582Y-64178839D01*
X34853744Y-64265000D01*
X35146256Y-64265000D01*
X35579418Y-64178839D01*
X36070625Y-63850625D01*
X36398839Y-63359418D01*
X36514092Y-62780000D01*
X36398839Y-62200582D01*
X36070625Y-61709375D01*
X35772239Y-61510000D01*
X36070625Y-61310625D01*
X36398839Y-60819418D01*
X36514092Y-60240000D01*
X36418770Y-59760779D01*
X45723653Y-59760779D01*
X45723653Y-60172527D01*
X45881222Y-60552933D01*
X46172373Y-60844084D01*
X46552779Y-61001653D01*
X46964527Y-61001653D01*
X47344933Y-60844084D01*
X47636084Y-60552933D01*
X47793653Y-60172527D01*
X47793653Y-60006455D01*
X48744476Y-59055633D01*
X48807929Y-59013235D01*
X48850327Y-58949782D01*
X48850329Y-58949780D01*
X48975903Y-58761844D01*
X48975904Y-58761843D01*
X49020000Y-58540158D01*
X49020000Y-58540154D01*
X49034888Y-58465307D01*
X49020000Y-58390460D01*
X49020000Y-56698801D01*
X52305000Y-59983802D01*
X52305000Y-60149874D01*
X52462569Y-60530280D01*
X52753720Y-60821431D01*
X53134126Y-60979000D01*
X53545874Y-60979000D01*
X53926280Y-60821431D01*
X54217431Y-60530280D01*
X54375000Y-60149874D01*
X54375000Y-59738126D01*
X54217431Y-59357720D01*
X53926280Y-59066569D01*
X53545874Y-58909000D01*
X53379802Y-58909000D01*
X50246097Y-55775296D01*
X50246097Y-44435614D01*
X50363528Y-44318183D01*
X50521097Y-43937777D01*
X50521097Y-43526029D01*
X50363528Y-43145623D01*
X50072377Y-42854472D01*
X49691971Y-42696903D01*
X49280223Y-42696903D01*
X48899817Y-42854472D01*
X48895000Y-42859289D01*
X48846280Y-42810569D01*
X48465874Y-42653000D01*
X48054126Y-42653000D01*
X47673720Y-42810569D01*
X47382569Y-43101720D01*
X47225000Y-43482126D01*
X47225000Y-43893874D01*
X47382569Y-44274280D01*
X47500001Y-44391712D01*
X47500000Y-58150503D01*
X46718851Y-58931653D01*
X46552779Y-58931653D01*
X46172373Y-59089222D01*
X45881222Y-59380373D01*
X45723653Y-59760779D01*
X36418770Y-59760779D01*
X36398839Y-59660582D01*
X36070625Y-59169375D01*
X35772239Y-58970000D01*
X36070625Y-58770625D01*
X36398839Y-58279418D01*
X36514092Y-57700000D01*
X36398839Y-57120582D01*
X36070625Y-56629375D01*
X35772239Y-56430000D01*
X36070625Y-56230625D01*
X36398839Y-55739418D01*
X36514092Y-55160000D01*
X36398839Y-54580582D01*
X36070625Y-54089375D01*
X35772239Y-53890000D01*
X36070625Y-53690625D01*
X36398839Y-53199418D01*
X36514092Y-52620000D01*
X36398839Y-52040582D01*
X36070625Y-51549375D01*
X35772239Y-51350000D01*
X36070625Y-51150625D01*
X36398839Y-50659418D01*
X36476472Y-50269126D01*
X41891000Y-50269126D01*
X41891000Y-50680874D01*
X42048569Y-51061280D01*
X42339720Y-51352431D01*
X42720126Y-51510000D01*
X43131874Y-51510000D01*
X43512280Y-51352431D01*
X43803431Y-51061280D01*
X43925921Y-50765564D01*
X43984537Y-50753904D01*
X44235929Y-50585929D01*
X44278331Y-50522470D01*
X46458473Y-48342329D01*
X46521929Y-48299929D01*
X46689904Y-48048537D01*
X46734000Y-47826852D01*
X46734000Y-47826848D01*
X46748888Y-47752001D01*
X46734000Y-47677154D01*
X46734000Y-40105440D01*
X46824000Y-40105440D01*
X47071765Y-40056157D01*
X47281809Y-39915809D01*
X47422157Y-39705765D01*
X47431184Y-39660381D01*
X47443375Y-39678625D01*
X47934582Y-40006839D01*
X48367744Y-40093000D01*
X48660256Y-40093000D01*
X49093418Y-40006839D01*
X49584625Y-39678625D01*
X49784000Y-39380239D01*
X49983375Y-39678625D01*
X50474582Y-40006839D01*
X50907744Y-40093000D01*
X51200256Y-40093000D01*
X51633418Y-40006839D01*
X52124625Y-39678625D01*
X52324000Y-39380239D01*
X52523375Y-39678625D01*
X52834000Y-39886178D01*
X52834001Y-44629148D01*
X52819112Y-44704000D01*
X52878097Y-45000537D01*
X52980848Y-45154314D01*
X53046072Y-45251929D01*
X53109528Y-45294329D01*
X55607000Y-47791802D01*
X55607000Y-47957874D01*
X55764569Y-48338280D01*
X56055720Y-48629431D01*
X56436126Y-48787000D01*
X56847874Y-48787000D01*
X57228280Y-48629431D01*
X57519431Y-48338280D01*
X57677000Y-47957874D01*
X57677000Y-47546126D01*
X57519431Y-47165720D01*
X57228280Y-46874569D01*
X56847874Y-46717000D01*
X56681802Y-46717000D01*
X55184802Y-45220000D01*
X63485908Y-45220000D01*
X63601161Y-45799418D01*
X63929375Y-46290625D01*
X64227761Y-46490000D01*
X63929375Y-46689375D01*
X63601161Y-47180582D01*
X63485908Y-47760000D01*
X63601161Y-48339418D01*
X63929375Y-48830625D01*
X64227761Y-49030000D01*
X63929375Y-49229375D01*
X63601161Y-49720582D01*
X63485908Y-50300000D01*
X63601161Y-50879418D01*
X63929375Y-51370625D01*
X64227761Y-51570000D01*
X63929375Y-51769375D01*
X63601161Y-52260582D01*
X63485908Y-52840000D01*
X63601161Y-53419418D01*
X63929375Y-53910625D01*
X64227761Y-54110000D01*
X63929375Y-54309375D01*
X63601161Y-54800582D01*
X63485908Y-55380000D01*
X63601161Y-55959418D01*
X63929375Y-56450625D01*
X64227761Y-56650000D01*
X63929375Y-56849375D01*
X63601161Y-57340582D01*
X63485908Y-57920000D01*
X63601161Y-58499418D01*
X63929375Y-58990625D01*
X64227761Y-59190000D01*
X63929375Y-59389375D01*
X63601161Y-59880582D01*
X63485908Y-60460000D01*
X63601161Y-61039418D01*
X63929375Y-61530625D01*
X63947619Y-61542816D01*
X63902235Y-61551843D01*
X63692191Y-61692191D01*
X63551843Y-61902235D01*
X63502560Y-62150000D01*
X63502560Y-63850000D01*
X63551843Y-64097765D01*
X63692191Y-64307809D01*
X63902235Y-64448157D01*
X64150000Y-64497440D01*
X65850000Y-64497440D01*
X66097765Y-64448157D01*
X66307809Y-64307809D01*
X66448157Y-64097765D01*
X66497440Y-63850000D01*
X66497440Y-62150000D01*
X66448157Y-61902235D01*
X66307809Y-61692191D01*
X66097765Y-61551843D01*
X66052381Y-61542816D01*
X66070625Y-61530625D01*
X66398839Y-61039418D01*
X66514092Y-60460000D01*
X66398839Y-59880582D01*
X66070625Y-59389375D01*
X65772239Y-59190000D01*
X66070625Y-58990625D01*
X66398839Y-58499418D01*
X66514092Y-57920000D01*
X66398839Y-57340582D01*
X66070625Y-56849375D01*
X65772239Y-56650000D01*
X66070625Y-56450625D01*
X66398839Y-55959418D01*
X66514092Y-55380000D01*
X66398839Y-54800582D01*
X66070625Y-54309375D01*
X65772239Y-54110000D01*
X66070625Y-53910625D01*
X66398839Y-53419418D01*
X66514092Y-52840000D01*
X66398839Y-52260582D01*
X66070625Y-51769375D01*
X65772239Y-51570000D01*
X66070625Y-51370625D01*
X66398839Y-50879418D01*
X66514092Y-50300000D01*
X66398839Y-49720582D01*
X66070625Y-49229375D01*
X65772239Y-49030000D01*
X66070625Y-48830625D01*
X66398839Y-48339418D01*
X66514092Y-47760000D01*
X66398839Y-47180582D01*
X66070625Y-46689375D01*
X65772239Y-46490000D01*
X66070625Y-46290625D01*
X66398839Y-45799418D01*
X66514092Y-45220000D01*
X66398839Y-44640582D01*
X66070625Y-44149375D01*
X65579418Y-43821161D01*
X65146256Y-43735000D01*
X64853744Y-43735000D01*
X64420582Y-43821161D01*
X63929375Y-44149375D01*
X63601161Y-44640582D01*
X63485908Y-45220000D01*
X55184802Y-45220000D01*
X54354000Y-44389199D01*
X54354000Y-39886178D01*
X54664625Y-39678625D01*
X54992839Y-39187418D01*
X55108092Y-38608000D01*
X55067142Y-38402126D01*
X58909000Y-38402126D01*
X58909000Y-38813874D01*
X59066569Y-39194280D01*
X59357720Y-39485431D01*
X59738126Y-39643000D01*
X60149874Y-39643000D01*
X60530280Y-39485431D01*
X60647711Y-39368000D01*
X63304289Y-39368000D01*
X63421720Y-39485431D01*
X63802126Y-39643000D01*
X64213874Y-39643000D01*
X64594280Y-39485431D01*
X64885431Y-39194280D01*
X65043000Y-38813874D01*
X65043000Y-38402126D01*
X64885431Y-38021720D01*
X64594280Y-37730569D01*
X64213874Y-37573000D01*
X63802126Y-37573000D01*
X63421720Y-37730569D01*
X63304289Y-37848000D01*
X60647711Y-37848000D01*
X60530280Y-37730569D01*
X60149874Y-37573000D01*
X59738126Y-37573000D01*
X59357720Y-37730569D01*
X59066569Y-38021720D01*
X58909000Y-38402126D01*
X55067142Y-38402126D01*
X54992839Y-38028582D01*
X54664625Y-37537375D01*
X54173418Y-37209161D01*
X53740256Y-37123000D01*
X53447744Y-37123000D01*
X53014582Y-37209161D01*
X52523375Y-37537375D01*
X52324000Y-37835761D01*
X52124625Y-37537375D01*
X51633418Y-37209161D01*
X51200256Y-37123000D01*
X50907744Y-37123000D01*
X50474582Y-37209161D01*
X49983375Y-37537375D01*
X49784000Y-37835761D01*
X49584625Y-37537375D01*
X49093418Y-37209161D01*
X48660256Y-37123000D01*
X48367744Y-37123000D01*
X47934582Y-37209161D01*
X47443375Y-37537375D01*
X47431184Y-37555619D01*
X47422157Y-37510235D01*
X47281809Y-37300191D01*
X47071765Y-37159843D01*
X46824000Y-37110560D01*
X45124000Y-37110560D01*
X44876235Y-37159843D01*
X44666191Y-37300191D01*
X44525843Y-37510235D01*
X44476560Y-37758000D01*
X44476560Y-39458000D01*
X44525843Y-39705765D01*
X44666191Y-39915809D01*
X44876235Y-40056157D01*
X45124000Y-40105440D01*
X45214000Y-40105440D01*
X45214001Y-47437197D01*
X43383925Y-49267274D01*
X43362999Y-49263112D01*
X43288152Y-49278000D01*
X43288148Y-49278000D01*
X43066463Y-49322096D01*
X42890007Y-49440000D01*
X42720126Y-49440000D01*
X42339720Y-49597569D01*
X42048569Y-49888720D01*
X41891000Y-50269126D01*
X36476472Y-50269126D01*
X36514092Y-50080000D01*
X36398839Y-49500582D01*
X36070625Y-49009375D01*
X35772239Y-48810000D01*
X36070625Y-48610625D01*
X36398839Y-48119418D01*
X36514092Y-47540000D01*
X36398839Y-46960582D01*
X36070625Y-46469375D01*
X36052381Y-46457184D01*
X36097765Y-46448157D01*
X36307809Y-46307809D01*
X36448157Y-46097765D01*
X36497440Y-45850000D01*
X36497440Y-44150000D01*
X36448157Y-43902235D01*
X36307809Y-43692191D01*
X36097765Y-43551843D01*
X35850000Y-43502560D01*
X34150000Y-43502560D01*
X33902235Y-43551843D01*
X33692191Y-43692191D01*
X33551843Y-43902235D01*
X33502560Y-44150000D01*
X33502560Y-45850000D01*
X33551843Y-46097765D01*
X33692191Y-46307809D01*
X33902235Y-46448157D01*
X33947619Y-46457184D01*
X33929375Y-46469375D01*
X33601161Y-46960582D01*
X33485908Y-47540000D01*
X33247000Y-47540000D01*
X33247000Y-37894126D01*
X39097000Y-37894126D01*
X39097000Y-38305874D01*
X39254569Y-38686280D01*
X39372001Y-38803712D01*
X39372000Y-41523468D01*
X39357112Y-41598315D01*
X39372000Y-41673162D01*
X39372000Y-41673166D01*
X39416096Y-41894851D01*
X39584071Y-42146244D01*
X39647530Y-42188646D01*
X42746728Y-45287846D01*
X42653000Y-45514126D01*
X42653000Y-45925874D01*
X42810569Y-46306280D01*
X43101720Y-46597431D01*
X43482126Y-46755000D01*
X43893874Y-46755000D01*
X44274280Y-46597431D01*
X44565431Y-46306280D01*
X44723000Y-45925874D01*
X44723000Y-45514126D01*
X44565431Y-45133720D01*
X44432314Y-45000603D01*
X44403904Y-44857778D01*
X44301153Y-44704000D01*
X44278329Y-44669841D01*
X44278327Y-44669839D01*
X44235929Y-44606386D01*
X44172476Y-44563988D01*
X40892000Y-41283514D01*
X40892000Y-38803711D01*
X41009431Y-38686280D01*
X41167000Y-38305874D01*
X41167000Y-37894126D01*
X41009431Y-37513720D01*
X40718280Y-37222569D01*
X40337874Y-37065000D01*
X39926126Y-37065000D01*
X39545720Y-37222569D01*
X39254569Y-37513720D01*
X39097000Y-37894126D01*
X33247000Y-37894126D01*
X33247000Y-30199000D01*
X66829000Y-30199000D01*
X66829000Y-30298387D01*
G04 #@! TD*
M02*
