G04 #@! TF.GenerationSoftware,KiCad,Pcbnew,(5.0.0)*
G04 #@! TF.CreationDate,2018-12-27T13:03:48-05:00*
G04 #@! TF.ProjectId,32u2-breakout,333275322D627265616B6F75742E6B69,rev?*
G04 #@! TF.SameCoordinates,Original*
G04 #@! TF.FileFunction,Copper,L1,Top,Signal*
G04 #@! TF.FilePolarity,Positive*
%FSLAX46Y46*%
G04 Gerber Fmt 4.6, Leading zero omitted, Abs format (unit mm)*
G04 Created by KiCad (PCBNEW (5.0.0)) date 12/27/18 13:03:48*
%MOMM*%
%LPD*%
G01*
G04 APERTURE LIST*
G04 #@! TA.AperFunction,SMDPad,CuDef*
%ADD10R,1.600000X1.400000*%
G04 #@! TD*
G04 #@! TA.AperFunction,Conductor*
%ADD11C,0.100000*%
G04 #@! TD*
G04 #@! TA.AperFunction,SMDPad,CuDef*
%ADD12C,0.590000*%
G04 #@! TD*
G04 #@! TA.AperFunction,SMDPad,CuDef*
%ADD13C,0.975000*%
G04 #@! TD*
G04 #@! TA.AperFunction,SMDPad,CuDef*
%ADD14C,1.250000*%
G04 #@! TD*
G04 #@! TA.AperFunction,ComponentPad*
%ADD15R,1.700000X1.700000*%
G04 #@! TD*
G04 #@! TA.AperFunction,ComponentPad*
%ADD16O,1.700000X1.700000*%
G04 #@! TD*
G04 #@! TA.AperFunction,SMDPad,CuDef*
%ADD17R,1.500000X1.900000*%
G04 #@! TD*
G04 #@! TA.AperFunction,ComponentPad*
%ADD18C,1.450000*%
G04 #@! TD*
G04 #@! TA.AperFunction,SMDPad,CuDef*
%ADD19R,0.400000X1.350000*%
G04 #@! TD*
G04 #@! TA.AperFunction,ComponentPad*
%ADD20O,1.200000X1.900000*%
G04 #@! TD*
G04 #@! TA.AperFunction,SMDPad,CuDef*
%ADD21R,1.200000X1.900000*%
G04 #@! TD*
G04 #@! TA.AperFunction,SMDPad,CuDef*
%ADD22R,2.000000X4.500000*%
G04 #@! TD*
G04 #@! TA.AperFunction,SMDPad,CuDef*
%ADD23R,1.600000X0.550000*%
G04 #@! TD*
G04 #@! TA.AperFunction,SMDPad,CuDef*
%ADD24R,0.550000X1.600000*%
G04 #@! TD*
G04 #@! TA.AperFunction,ViaPad*
%ADD25C,0.800000*%
G04 #@! TD*
G04 #@! TA.AperFunction,Conductor*
%ADD26C,0.250000*%
G04 #@! TD*
G04 #@! TA.AperFunction,Conductor*
%ADD27C,0.254000*%
G04 #@! TD*
G04 APERTURE END LIST*
D10*
G04 #@! TO.P,SW1,1*
G04 #@! TO.N,Net-(R4-Pad2)*
X58376000Y-38584000D03*
X65576000Y-38584000D03*
G04 #@! TO.P,SW1,2*
G04 #@! TO.N,GND*
X58376000Y-35584000D03*
X65576000Y-35584000D03*
G04 #@! TD*
D11*
G04 #@! TO.N,GND*
G04 #@! TO.C,C2*
G36*
X36508958Y-32748710D02*
X36523276Y-32750834D01*
X36537317Y-32754351D01*
X36550946Y-32759228D01*
X36564031Y-32765417D01*
X36576447Y-32772858D01*
X36588073Y-32781481D01*
X36598798Y-32791202D01*
X36608519Y-32801927D01*
X36617142Y-32813553D01*
X36624583Y-32825969D01*
X36630772Y-32839054D01*
X36635649Y-32852683D01*
X36639166Y-32866724D01*
X36641290Y-32881042D01*
X36642000Y-32895500D01*
X36642000Y-33190500D01*
X36641290Y-33204958D01*
X36639166Y-33219276D01*
X36635649Y-33233317D01*
X36630772Y-33246946D01*
X36624583Y-33260031D01*
X36617142Y-33272447D01*
X36608519Y-33284073D01*
X36598798Y-33294798D01*
X36588073Y-33304519D01*
X36576447Y-33313142D01*
X36564031Y-33320583D01*
X36550946Y-33326772D01*
X36537317Y-33331649D01*
X36523276Y-33335166D01*
X36508958Y-33337290D01*
X36494500Y-33338000D01*
X36149500Y-33338000D01*
X36135042Y-33337290D01*
X36120724Y-33335166D01*
X36106683Y-33331649D01*
X36093054Y-33326772D01*
X36079969Y-33320583D01*
X36067553Y-33313142D01*
X36055927Y-33304519D01*
X36045202Y-33294798D01*
X36035481Y-33284073D01*
X36026858Y-33272447D01*
X36019417Y-33260031D01*
X36013228Y-33246946D01*
X36008351Y-33233317D01*
X36004834Y-33219276D01*
X36002710Y-33204958D01*
X36002000Y-33190500D01*
X36002000Y-32895500D01*
X36002710Y-32881042D01*
X36004834Y-32866724D01*
X36008351Y-32852683D01*
X36013228Y-32839054D01*
X36019417Y-32825969D01*
X36026858Y-32813553D01*
X36035481Y-32801927D01*
X36045202Y-32791202D01*
X36055927Y-32781481D01*
X36067553Y-32772858D01*
X36079969Y-32765417D01*
X36093054Y-32759228D01*
X36106683Y-32754351D01*
X36120724Y-32750834D01*
X36135042Y-32748710D01*
X36149500Y-32748000D01*
X36494500Y-32748000D01*
X36508958Y-32748710D01*
X36508958Y-32748710D01*
G37*
D12*
G04 #@! TD*
G04 #@! TO.P,C2,2*
G04 #@! TO.N,GND*
X36322000Y-33043000D03*
D11*
G04 #@! TO.N,Net-(C2-Pad1)*
G04 #@! TO.C,C2*
G36*
X36508958Y-33718710D02*
X36523276Y-33720834D01*
X36537317Y-33724351D01*
X36550946Y-33729228D01*
X36564031Y-33735417D01*
X36576447Y-33742858D01*
X36588073Y-33751481D01*
X36598798Y-33761202D01*
X36608519Y-33771927D01*
X36617142Y-33783553D01*
X36624583Y-33795969D01*
X36630772Y-33809054D01*
X36635649Y-33822683D01*
X36639166Y-33836724D01*
X36641290Y-33851042D01*
X36642000Y-33865500D01*
X36642000Y-34160500D01*
X36641290Y-34174958D01*
X36639166Y-34189276D01*
X36635649Y-34203317D01*
X36630772Y-34216946D01*
X36624583Y-34230031D01*
X36617142Y-34242447D01*
X36608519Y-34254073D01*
X36598798Y-34264798D01*
X36588073Y-34274519D01*
X36576447Y-34283142D01*
X36564031Y-34290583D01*
X36550946Y-34296772D01*
X36537317Y-34301649D01*
X36523276Y-34305166D01*
X36508958Y-34307290D01*
X36494500Y-34308000D01*
X36149500Y-34308000D01*
X36135042Y-34307290D01*
X36120724Y-34305166D01*
X36106683Y-34301649D01*
X36093054Y-34296772D01*
X36079969Y-34290583D01*
X36067553Y-34283142D01*
X36055927Y-34274519D01*
X36045202Y-34264798D01*
X36035481Y-34254073D01*
X36026858Y-34242447D01*
X36019417Y-34230031D01*
X36013228Y-34216946D01*
X36008351Y-34203317D01*
X36004834Y-34189276D01*
X36002710Y-34174958D01*
X36002000Y-34160500D01*
X36002000Y-33865500D01*
X36002710Y-33851042D01*
X36004834Y-33836724D01*
X36008351Y-33822683D01*
X36013228Y-33809054D01*
X36019417Y-33795969D01*
X36026858Y-33783553D01*
X36035481Y-33771927D01*
X36045202Y-33761202D01*
X36055927Y-33751481D01*
X36067553Y-33742858D01*
X36079969Y-33735417D01*
X36093054Y-33729228D01*
X36106683Y-33724351D01*
X36120724Y-33720834D01*
X36135042Y-33718710D01*
X36149500Y-33718000D01*
X36494500Y-33718000D01*
X36508958Y-33718710D01*
X36508958Y-33718710D01*
G37*
D12*
G04 #@! TD*
G04 #@! TO.P,C2,1*
G04 #@! TO.N,Net-(C2-Pad1)*
X36322000Y-34013000D03*
D11*
G04 #@! TO.N,Net-(C1-Pad1)*
G04 #@! TO.C,C1*
G36*
X36762958Y-40830710D02*
X36777276Y-40832834D01*
X36791317Y-40836351D01*
X36804946Y-40841228D01*
X36818031Y-40847417D01*
X36830447Y-40854858D01*
X36842073Y-40863481D01*
X36852798Y-40873202D01*
X36862519Y-40883927D01*
X36871142Y-40895553D01*
X36878583Y-40907969D01*
X36884772Y-40921054D01*
X36889649Y-40934683D01*
X36893166Y-40948724D01*
X36895290Y-40963042D01*
X36896000Y-40977500D01*
X36896000Y-41272500D01*
X36895290Y-41286958D01*
X36893166Y-41301276D01*
X36889649Y-41315317D01*
X36884772Y-41328946D01*
X36878583Y-41342031D01*
X36871142Y-41354447D01*
X36862519Y-41366073D01*
X36852798Y-41376798D01*
X36842073Y-41386519D01*
X36830447Y-41395142D01*
X36818031Y-41402583D01*
X36804946Y-41408772D01*
X36791317Y-41413649D01*
X36777276Y-41417166D01*
X36762958Y-41419290D01*
X36748500Y-41420000D01*
X36403500Y-41420000D01*
X36389042Y-41419290D01*
X36374724Y-41417166D01*
X36360683Y-41413649D01*
X36347054Y-41408772D01*
X36333969Y-41402583D01*
X36321553Y-41395142D01*
X36309927Y-41386519D01*
X36299202Y-41376798D01*
X36289481Y-41366073D01*
X36280858Y-41354447D01*
X36273417Y-41342031D01*
X36267228Y-41328946D01*
X36262351Y-41315317D01*
X36258834Y-41301276D01*
X36256710Y-41286958D01*
X36256000Y-41272500D01*
X36256000Y-40977500D01*
X36256710Y-40963042D01*
X36258834Y-40948724D01*
X36262351Y-40934683D01*
X36267228Y-40921054D01*
X36273417Y-40907969D01*
X36280858Y-40895553D01*
X36289481Y-40883927D01*
X36299202Y-40873202D01*
X36309927Y-40863481D01*
X36321553Y-40854858D01*
X36333969Y-40847417D01*
X36347054Y-40841228D01*
X36360683Y-40836351D01*
X36374724Y-40832834D01*
X36389042Y-40830710D01*
X36403500Y-40830000D01*
X36748500Y-40830000D01*
X36762958Y-40830710D01*
X36762958Y-40830710D01*
G37*
D12*
G04 #@! TD*
G04 #@! TO.P,C1,1*
G04 #@! TO.N,Net-(C1-Pad1)*
X36576000Y-41125000D03*
D11*
G04 #@! TO.N,GND*
G04 #@! TO.C,C1*
G36*
X36762958Y-39860710D02*
X36777276Y-39862834D01*
X36791317Y-39866351D01*
X36804946Y-39871228D01*
X36818031Y-39877417D01*
X36830447Y-39884858D01*
X36842073Y-39893481D01*
X36852798Y-39903202D01*
X36862519Y-39913927D01*
X36871142Y-39925553D01*
X36878583Y-39937969D01*
X36884772Y-39951054D01*
X36889649Y-39964683D01*
X36893166Y-39978724D01*
X36895290Y-39993042D01*
X36896000Y-40007500D01*
X36896000Y-40302500D01*
X36895290Y-40316958D01*
X36893166Y-40331276D01*
X36889649Y-40345317D01*
X36884772Y-40358946D01*
X36878583Y-40372031D01*
X36871142Y-40384447D01*
X36862519Y-40396073D01*
X36852798Y-40406798D01*
X36842073Y-40416519D01*
X36830447Y-40425142D01*
X36818031Y-40432583D01*
X36804946Y-40438772D01*
X36791317Y-40443649D01*
X36777276Y-40447166D01*
X36762958Y-40449290D01*
X36748500Y-40450000D01*
X36403500Y-40450000D01*
X36389042Y-40449290D01*
X36374724Y-40447166D01*
X36360683Y-40443649D01*
X36347054Y-40438772D01*
X36333969Y-40432583D01*
X36321553Y-40425142D01*
X36309927Y-40416519D01*
X36299202Y-40406798D01*
X36289481Y-40396073D01*
X36280858Y-40384447D01*
X36273417Y-40372031D01*
X36267228Y-40358946D01*
X36262351Y-40345317D01*
X36258834Y-40331276D01*
X36256710Y-40316958D01*
X36256000Y-40302500D01*
X36256000Y-40007500D01*
X36256710Y-39993042D01*
X36258834Y-39978724D01*
X36262351Y-39964683D01*
X36267228Y-39951054D01*
X36273417Y-39937969D01*
X36280858Y-39925553D01*
X36289481Y-39913927D01*
X36299202Y-39903202D01*
X36309927Y-39893481D01*
X36321553Y-39884858D01*
X36333969Y-39877417D01*
X36347054Y-39871228D01*
X36360683Y-39866351D01*
X36374724Y-39862834D01*
X36389042Y-39860710D01*
X36403500Y-39860000D01*
X36748500Y-39860000D01*
X36762958Y-39860710D01*
X36762958Y-39860710D01*
G37*
D12*
G04 #@! TD*
G04 #@! TO.P,C1,2*
G04 #@! TO.N,GND*
X36576000Y-40155000D03*
D11*
G04 #@! TO.N,Net-(C4-Pad1)*
G04 #@! TO.C,C4*
G36*
X46671142Y-33591174D02*
X46694803Y-33594684D01*
X46718007Y-33600496D01*
X46740529Y-33608554D01*
X46762153Y-33618782D01*
X46782670Y-33631079D01*
X46801883Y-33645329D01*
X46819607Y-33661393D01*
X46835671Y-33679117D01*
X46849921Y-33698330D01*
X46862218Y-33718847D01*
X46872446Y-33740471D01*
X46880504Y-33762993D01*
X46886316Y-33786197D01*
X46889826Y-33809858D01*
X46891000Y-33833750D01*
X46891000Y-34746250D01*
X46889826Y-34770142D01*
X46886316Y-34793803D01*
X46880504Y-34817007D01*
X46872446Y-34839529D01*
X46862218Y-34861153D01*
X46849921Y-34881670D01*
X46835671Y-34900883D01*
X46819607Y-34918607D01*
X46801883Y-34934671D01*
X46782670Y-34948921D01*
X46762153Y-34961218D01*
X46740529Y-34971446D01*
X46718007Y-34979504D01*
X46694803Y-34985316D01*
X46671142Y-34988826D01*
X46647250Y-34990000D01*
X46159750Y-34990000D01*
X46135858Y-34988826D01*
X46112197Y-34985316D01*
X46088993Y-34979504D01*
X46066471Y-34971446D01*
X46044847Y-34961218D01*
X46024330Y-34948921D01*
X46005117Y-34934671D01*
X45987393Y-34918607D01*
X45971329Y-34900883D01*
X45957079Y-34881670D01*
X45944782Y-34861153D01*
X45934554Y-34839529D01*
X45926496Y-34817007D01*
X45920684Y-34793803D01*
X45917174Y-34770142D01*
X45916000Y-34746250D01*
X45916000Y-33833750D01*
X45917174Y-33809858D01*
X45920684Y-33786197D01*
X45926496Y-33762993D01*
X45934554Y-33740471D01*
X45944782Y-33718847D01*
X45957079Y-33698330D01*
X45971329Y-33679117D01*
X45987393Y-33661393D01*
X46005117Y-33645329D01*
X46024330Y-33631079D01*
X46044847Y-33618782D01*
X46066471Y-33608554D01*
X46088993Y-33600496D01*
X46112197Y-33594684D01*
X46135858Y-33591174D01*
X46159750Y-33590000D01*
X46647250Y-33590000D01*
X46671142Y-33591174D01*
X46671142Y-33591174D01*
G37*
D13*
G04 #@! TD*
G04 #@! TO.P,C4,1*
G04 #@! TO.N,Net-(C4-Pad1)*
X46403500Y-34290000D03*
D11*
G04 #@! TO.N,GND*
G04 #@! TO.C,C4*
G36*
X44796142Y-33591174D02*
X44819803Y-33594684D01*
X44843007Y-33600496D01*
X44865529Y-33608554D01*
X44887153Y-33618782D01*
X44907670Y-33631079D01*
X44926883Y-33645329D01*
X44944607Y-33661393D01*
X44960671Y-33679117D01*
X44974921Y-33698330D01*
X44987218Y-33718847D01*
X44997446Y-33740471D01*
X45005504Y-33762993D01*
X45011316Y-33786197D01*
X45014826Y-33809858D01*
X45016000Y-33833750D01*
X45016000Y-34746250D01*
X45014826Y-34770142D01*
X45011316Y-34793803D01*
X45005504Y-34817007D01*
X44997446Y-34839529D01*
X44987218Y-34861153D01*
X44974921Y-34881670D01*
X44960671Y-34900883D01*
X44944607Y-34918607D01*
X44926883Y-34934671D01*
X44907670Y-34948921D01*
X44887153Y-34961218D01*
X44865529Y-34971446D01*
X44843007Y-34979504D01*
X44819803Y-34985316D01*
X44796142Y-34988826D01*
X44772250Y-34990000D01*
X44284750Y-34990000D01*
X44260858Y-34988826D01*
X44237197Y-34985316D01*
X44213993Y-34979504D01*
X44191471Y-34971446D01*
X44169847Y-34961218D01*
X44149330Y-34948921D01*
X44130117Y-34934671D01*
X44112393Y-34918607D01*
X44096329Y-34900883D01*
X44082079Y-34881670D01*
X44069782Y-34861153D01*
X44059554Y-34839529D01*
X44051496Y-34817007D01*
X44045684Y-34793803D01*
X44042174Y-34770142D01*
X44041000Y-34746250D01*
X44041000Y-33833750D01*
X44042174Y-33809858D01*
X44045684Y-33786197D01*
X44051496Y-33762993D01*
X44059554Y-33740471D01*
X44069782Y-33718847D01*
X44082079Y-33698330D01*
X44096329Y-33679117D01*
X44112393Y-33661393D01*
X44130117Y-33645329D01*
X44149330Y-33631079D01*
X44169847Y-33618782D01*
X44191471Y-33608554D01*
X44213993Y-33600496D01*
X44237197Y-33594684D01*
X44260858Y-33591174D01*
X44284750Y-33590000D01*
X44772250Y-33590000D01*
X44796142Y-33591174D01*
X44796142Y-33591174D01*
G37*
D13*
G04 #@! TD*
G04 #@! TO.P,C4,2*
G04 #@! TO.N,GND*
X44528500Y-34290000D03*
D11*
G04 #@! TO.N,VCC*
G04 #@! TO.C,C3*
G36*
X49167504Y-59128204D02*
X49191773Y-59131804D01*
X49215571Y-59137765D01*
X49238671Y-59146030D01*
X49260849Y-59156520D01*
X49281893Y-59169133D01*
X49301598Y-59183747D01*
X49319777Y-59200223D01*
X49336253Y-59218402D01*
X49350867Y-59238107D01*
X49363480Y-59259151D01*
X49373970Y-59281329D01*
X49382235Y-59304429D01*
X49388196Y-59328227D01*
X49391796Y-59352496D01*
X49393000Y-59377000D01*
X49393000Y-61527000D01*
X49391796Y-61551504D01*
X49388196Y-61575773D01*
X49382235Y-61599571D01*
X49373970Y-61622671D01*
X49363480Y-61644849D01*
X49350867Y-61665893D01*
X49336253Y-61685598D01*
X49319777Y-61703777D01*
X49301598Y-61720253D01*
X49281893Y-61734867D01*
X49260849Y-61747480D01*
X49238671Y-61757970D01*
X49215571Y-61766235D01*
X49191773Y-61772196D01*
X49167504Y-61775796D01*
X49143000Y-61777000D01*
X48393000Y-61777000D01*
X48368496Y-61775796D01*
X48344227Y-61772196D01*
X48320429Y-61766235D01*
X48297329Y-61757970D01*
X48275151Y-61747480D01*
X48254107Y-61734867D01*
X48234402Y-61720253D01*
X48216223Y-61703777D01*
X48199747Y-61685598D01*
X48185133Y-61665893D01*
X48172520Y-61644849D01*
X48162030Y-61622671D01*
X48153765Y-61599571D01*
X48147804Y-61575773D01*
X48144204Y-61551504D01*
X48143000Y-61527000D01*
X48143000Y-59377000D01*
X48144204Y-59352496D01*
X48147804Y-59328227D01*
X48153765Y-59304429D01*
X48162030Y-59281329D01*
X48172520Y-59259151D01*
X48185133Y-59238107D01*
X48199747Y-59218402D01*
X48216223Y-59200223D01*
X48234402Y-59183747D01*
X48254107Y-59169133D01*
X48275151Y-59156520D01*
X48297329Y-59146030D01*
X48320429Y-59137765D01*
X48344227Y-59131804D01*
X48368496Y-59128204D01*
X48393000Y-59127000D01*
X49143000Y-59127000D01*
X49167504Y-59128204D01*
X49167504Y-59128204D01*
G37*
D14*
G04 #@! TD*
G04 #@! TO.P,C3,1*
G04 #@! TO.N,VCC*
X48768000Y-60452000D03*
D11*
G04 #@! TO.N,GND*
G04 #@! TO.C,C3*
G36*
X51967504Y-59128204D02*
X51991773Y-59131804D01*
X52015571Y-59137765D01*
X52038671Y-59146030D01*
X52060849Y-59156520D01*
X52081893Y-59169133D01*
X52101598Y-59183747D01*
X52119777Y-59200223D01*
X52136253Y-59218402D01*
X52150867Y-59238107D01*
X52163480Y-59259151D01*
X52173970Y-59281329D01*
X52182235Y-59304429D01*
X52188196Y-59328227D01*
X52191796Y-59352496D01*
X52193000Y-59377000D01*
X52193000Y-61527000D01*
X52191796Y-61551504D01*
X52188196Y-61575773D01*
X52182235Y-61599571D01*
X52173970Y-61622671D01*
X52163480Y-61644849D01*
X52150867Y-61665893D01*
X52136253Y-61685598D01*
X52119777Y-61703777D01*
X52101598Y-61720253D01*
X52081893Y-61734867D01*
X52060849Y-61747480D01*
X52038671Y-61757970D01*
X52015571Y-61766235D01*
X51991773Y-61772196D01*
X51967504Y-61775796D01*
X51943000Y-61777000D01*
X51193000Y-61777000D01*
X51168496Y-61775796D01*
X51144227Y-61772196D01*
X51120429Y-61766235D01*
X51097329Y-61757970D01*
X51075151Y-61747480D01*
X51054107Y-61734867D01*
X51034402Y-61720253D01*
X51016223Y-61703777D01*
X50999747Y-61685598D01*
X50985133Y-61665893D01*
X50972520Y-61644849D01*
X50962030Y-61622671D01*
X50953765Y-61599571D01*
X50947804Y-61575773D01*
X50944204Y-61551504D01*
X50943000Y-61527000D01*
X50943000Y-59377000D01*
X50944204Y-59352496D01*
X50947804Y-59328227D01*
X50953765Y-59304429D01*
X50962030Y-59281329D01*
X50972520Y-59259151D01*
X50985133Y-59238107D01*
X50999747Y-59218402D01*
X51016223Y-59200223D01*
X51034402Y-59183747D01*
X51054107Y-59169133D01*
X51075151Y-59156520D01*
X51097329Y-59146030D01*
X51120429Y-59137765D01*
X51144227Y-59131804D01*
X51168496Y-59128204D01*
X51193000Y-59127000D01*
X51943000Y-59127000D01*
X51967504Y-59128204D01*
X51967504Y-59128204D01*
G37*
D14*
G04 #@! TD*
G04 #@! TO.P,C3,2*
G04 #@! TO.N,GND*
X51568000Y-60452000D03*
D15*
G04 #@! TO.P,J3,1*
G04 #@! TO.N,Net-(J3-Pad1)*
X45974000Y-38608000D03*
D16*
G04 #@! TO.P,J3,2*
G04 #@! TO.N,Net-(J3-Pad2)*
X48514000Y-38608000D03*
G04 #@! TO.P,J3,3*
G04 #@! TO.N,Net-(J3-Pad3)*
X51054000Y-38608000D03*
G04 #@! TO.P,J3,4*
G04 #@! TO.N,Net-(J3-Pad4)*
X53594000Y-38608000D03*
G04 #@! TD*
G04 #@! TO.P,J2,8*
G04 #@! TO.N,Net-(J2-Pad8)*
X35000000Y-62780000D03*
G04 #@! TO.P,J2,7*
G04 #@! TO.N,Net-(J2-Pad7)*
X35000000Y-60240000D03*
G04 #@! TO.P,J2,6*
G04 #@! TO.N,Net-(J2-Pad6)*
X35000000Y-57700000D03*
G04 #@! TO.P,J2,5*
G04 #@! TO.N,Net-(J2-Pad5)*
X35000000Y-55160000D03*
G04 #@! TO.P,J2,4*
G04 #@! TO.N,Net-(J2-Pad4)*
X35000000Y-52620000D03*
G04 #@! TO.P,J2,3*
G04 #@! TO.N,Net-(J2-Pad3)*
X35000000Y-50080000D03*
G04 #@! TO.P,J2,2*
G04 #@! TO.N,Net-(J2-Pad2)*
X35000000Y-47540000D03*
D15*
G04 #@! TO.P,J2,1*
G04 #@! TO.N,Net-(J2-Pad1)*
X35000000Y-45000000D03*
G04 #@! TD*
G04 #@! TO.P,J1,1*
G04 #@! TO.N,Net-(J1-Pad1)*
X65000000Y-63000000D03*
D16*
G04 #@! TO.P,J1,2*
G04 #@! TO.N,Net-(J1-Pad2)*
X65000000Y-60460000D03*
G04 #@! TO.P,J1,3*
G04 #@! TO.N,Net-(J1-Pad3)*
X65000000Y-57920000D03*
G04 #@! TO.P,J1,4*
G04 #@! TO.N,Net-(J1-Pad4)*
X65000000Y-55380000D03*
G04 #@! TO.P,J1,5*
G04 #@! TO.N,Net-(J1-Pad5)*
X65000000Y-52840000D03*
G04 #@! TO.P,J1,6*
G04 #@! TO.N,Net-(J1-Pad6)*
X65000000Y-50300000D03*
G04 #@! TO.P,J1,7*
G04 #@! TO.N,Net-(J1-Pad7)*
X65000000Y-47760000D03*
G04 #@! TO.P,J1,8*
G04 #@! TO.N,Net-(J1-Pad8)*
X65000000Y-45220000D03*
G04 #@! TD*
D17*
G04 #@! TO.P,J4,6*
G04 #@! TO.N,Net-(J4-Pad6)*
X51038000Y-67023500D03*
D18*
X47538000Y-64323500D03*
D19*
G04 #@! TO.P,J4,2*
G04 #@! TO.N,Net-(J4-Pad2)*
X49388000Y-64323500D03*
G04 #@! TO.P,J4,1*
G04 #@! TO.N,VCC*
X48738000Y-64323500D03*
G04 #@! TO.P,J4,5*
G04 #@! TO.N,GND*
X51338000Y-64323500D03*
G04 #@! TO.P,J4,4*
G04 #@! TO.N,Net-(J4-Pad4)*
X50688000Y-64323500D03*
G04 #@! TO.P,J4,3*
G04 #@! TO.N,Net-(J4-Pad3)*
X50038000Y-64323500D03*
D18*
G04 #@! TO.P,J4,6*
G04 #@! TO.N,Net-(J4-Pad6)*
X52538000Y-64323500D03*
D17*
X49038000Y-67023500D03*
D20*
X46538000Y-67023500D03*
X53538000Y-67023500D03*
D21*
X52938000Y-67023500D03*
X47138000Y-67023500D03*
G04 #@! TD*
D22*
G04 #@! TO.P,Y1,1*
G04 #@! TO.N,Net-(C1-Pad1)*
X40132000Y-42350000D03*
G04 #@! TO.P,Y1,2*
G04 #@! TO.N,Net-(C2-Pad1)*
X40132000Y-33850000D03*
G04 #@! TD*
D11*
G04 #@! TO.N,Net-(D1-Pad1)*
G04 #@! TO.C,D1*
G36*
X60678142Y-45409174D02*
X60701803Y-45412684D01*
X60725007Y-45418496D01*
X60747529Y-45426554D01*
X60769153Y-45436782D01*
X60789670Y-45449079D01*
X60808883Y-45463329D01*
X60826607Y-45479393D01*
X60842671Y-45497117D01*
X60856921Y-45516330D01*
X60869218Y-45536847D01*
X60879446Y-45558471D01*
X60887504Y-45580993D01*
X60893316Y-45604197D01*
X60896826Y-45627858D01*
X60898000Y-45651750D01*
X60898000Y-46139250D01*
X60896826Y-46163142D01*
X60893316Y-46186803D01*
X60887504Y-46210007D01*
X60879446Y-46232529D01*
X60869218Y-46254153D01*
X60856921Y-46274670D01*
X60842671Y-46293883D01*
X60826607Y-46311607D01*
X60808883Y-46327671D01*
X60789670Y-46341921D01*
X60769153Y-46354218D01*
X60747529Y-46364446D01*
X60725007Y-46372504D01*
X60701803Y-46378316D01*
X60678142Y-46381826D01*
X60654250Y-46383000D01*
X59741750Y-46383000D01*
X59717858Y-46381826D01*
X59694197Y-46378316D01*
X59670993Y-46372504D01*
X59648471Y-46364446D01*
X59626847Y-46354218D01*
X59606330Y-46341921D01*
X59587117Y-46327671D01*
X59569393Y-46311607D01*
X59553329Y-46293883D01*
X59539079Y-46274670D01*
X59526782Y-46254153D01*
X59516554Y-46232529D01*
X59508496Y-46210007D01*
X59502684Y-46186803D01*
X59499174Y-46163142D01*
X59498000Y-46139250D01*
X59498000Y-45651750D01*
X59499174Y-45627858D01*
X59502684Y-45604197D01*
X59508496Y-45580993D01*
X59516554Y-45558471D01*
X59526782Y-45536847D01*
X59539079Y-45516330D01*
X59553329Y-45497117D01*
X59569393Y-45479393D01*
X59587117Y-45463329D01*
X59606330Y-45449079D01*
X59626847Y-45436782D01*
X59648471Y-45426554D01*
X59670993Y-45418496D01*
X59694197Y-45412684D01*
X59717858Y-45409174D01*
X59741750Y-45408000D01*
X60654250Y-45408000D01*
X60678142Y-45409174D01*
X60678142Y-45409174D01*
G37*
D13*
G04 #@! TD*
G04 #@! TO.P,D1,1*
G04 #@! TO.N,Net-(D1-Pad1)*
X60198000Y-45895500D03*
D11*
G04 #@! TO.N,Net-(D1-Pad2)*
G04 #@! TO.C,D1*
G36*
X60678142Y-43534174D02*
X60701803Y-43537684D01*
X60725007Y-43543496D01*
X60747529Y-43551554D01*
X60769153Y-43561782D01*
X60789670Y-43574079D01*
X60808883Y-43588329D01*
X60826607Y-43604393D01*
X60842671Y-43622117D01*
X60856921Y-43641330D01*
X60869218Y-43661847D01*
X60879446Y-43683471D01*
X60887504Y-43705993D01*
X60893316Y-43729197D01*
X60896826Y-43752858D01*
X60898000Y-43776750D01*
X60898000Y-44264250D01*
X60896826Y-44288142D01*
X60893316Y-44311803D01*
X60887504Y-44335007D01*
X60879446Y-44357529D01*
X60869218Y-44379153D01*
X60856921Y-44399670D01*
X60842671Y-44418883D01*
X60826607Y-44436607D01*
X60808883Y-44452671D01*
X60789670Y-44466921D01*
X60769153Y-44479218D01*
X60747529Y-44489446D01*
X60725007Y-44497504D01*
X60701803Y-44503316D01*
X60678142Y-44506826D01*
X60654250Y-44508000D01*
X59741750Y-44508000D01*
X59717858Y-44506826D01*
X59694197Y-44503316D01*
X59670993Y-44497504D01*
X59648471Y-44489446D01*
X59626847Y-44479218D01*
X59606330Y-44466921D01*
X59587117Y-44452671D01*
X59569393Y-44436607D01*
X59553329Y-44418883D01*
X59539079Y-44399670D01*
X59526782Y-44379153D01*
X59516554Y-44357529D01*
X59508496Y-44335007D01*
X59502684Y-44311803D01*
X59499174Y-44288142D01*
X59498000Y-44264250D01*
X59498000Y-43776750D01*
X59499174Y-43752858D01*
X59502684Y-43729197D01*
X59508496Y-43705993D01*
X59516554Y-43683471D01*
X59526782Y-43661847D01*
X59539079Y-43641330D01*
X59553329Y-43622117D01*
X59569393Y-43604393D01*
X59587117Y-43588329D01*
X59606330Y-43574079D01*
X59626847Y-43561782D01*
X59648471Y-43551554D01*
X59670993Y-43543496D01*
X59694197Y-43537684D01*
X59717858Y-43534174D01*
X59741750Y-43533000D01*
X60654250Y-43533000D01*
X60678142Y-43534174D01*
X60678142Y-43534174D01*
G37*
D13*
G04 #@! TD*
G04 #@! TO.P,D1,2*
G04 #@! TO.N,Net-(D1-Pad2)*
X60198000Y-44020500D03*
D23*
G04 #@! TO.P,U1,1*
G04 #@! TO.N,Net-(C2-Pad1)*
X45750000Y-47200000D03*
G04 #@! TO.P,U1,2*
G04 #@! TO.N,Net-(C1-Pad1)*
X45750000Y-48000000D03*
G04 #@! TO.P,U1,3*
G04 #@! TO.N,GND*
X45750000Y-48800000D03*
G04 #@! TO.P,U1,4*
G04 #@! TO.N,VCC*
X45750000Y-49600000D03*
G04 #@! TO.P,U1,5*
G04 #@! TO.N,Net-(J3-Pad1)*
X45750000Y-50400000D03*
G04 #@! TO.P,U1,6*
G04 #@! TO.N,Net-(J2-Pad1)*
X45750000Y-51200000D03*
G04 #@! TO.P,U1,7*
G04 #@! TO.N,Net-(J2-Pad2)*
X45750000Y-52000000D03*
G04 #@! TO.P,U1,8*
G04 #@! TO.N,Net-(J2-Pad3)*
X45750000Y-52800000D03*
D24*
G04 #@! TO.P,U1,9*
G04 #@! TO.N,Net-(J2-Pad4)*
X47200000Y-54250000D03*
G04 #@! TO.P,U1,10*
G04 #@! TO.N,Net-(J2-Pad5)*
X48000000Y-54250000D03*
G04 #@! TO.P,U1,11*
G04 #@! TO.N,Net-(J2-Pad6)*
X48800000Y-54250000D03*
G04 #@! TO.P,U1,12*
G04 #@! TO.N,Net-(J2-Pad7)*
X49600000Y-54250000D03*
G04 #@! TO.P,U1,13*
G04 #@! TO.N,Net-(J2-Pad8)*
X50400000Y-54250000D03*
G04 #@! TO.P,U1,14*
G04 #@! TO.N,Net-(J1-Pad1)*
X51200000Y-54250000D03*
G04 #@! TO.P,U1,15*
G04 #@! TO.N,Net-(J1-Pad2)*
X52000000Y-54250000D03*
G04 #@! TO.P,U1,16*
G04 #@! TO.N,Net-(J1-Pad3)*
X52800000Y-54250000D03*
D23*
G04 #@! TO.P,U1,17*
G04 #@! TO.N,Net-(J1-Pad4)*
X54250000Y-52800000D03*
G04 #@! TO.P,U1,18*
G04 #@! TO.N,Net-(J1-Pad5)*
X54250000Y-52000000D03*
G04 #@! TO.P,U1,19*
G04 #@! TO.N,Net-(J1-Pad6)*
X54250000Y-51200000D03*
G04 #@! TO.P,U1,20*
G04 #@! TO.N,Net-(J1-Pad7)*
X54250000Y-50400000D03*
G04 #@! TO.P,U1,21*
G04 #@! TO.N,Net-(J1-Pad8)*
X54250000Y-49600000D03*
G04 #@! TO.P,U1,22*
G04 #@! TO.N,Net-(D1-Pad2)*
X54250000Y-48800000D03*
G04 #@! TO.P,U1,23*
G04 #@! TO.N,Net-(J3-Pad4)*
X54250000Y-48000000D03*
G04 #@! TO.P,U1,24*
G04 #@! TO.N,Net-(R4-Pad2)*
X54250000Y-47200000D03*
D24*
G04 #@! TO.P,U1,25*
G04 #@! TO.N,Net-(J3-Pad3)*
X52800000Y-45750000D03*
G04 #@! TO.P,U1,26*
G04 #@! TO.N,Net-(J3-Pad2)*
X52000000Y-45750000D03*
G04 #@! TO.P,U1,27*
G04 #@! TO.N,Net-(C4-Pad1)*
X51200000Y-45750000D03*
G04 #@! TO.P,U1,28*
G04 #@! TO.N,GND*
X50400000Y-45750000D03*
G04 #@! TO.P,U1,29*
G04 #@! TO.N,Net-(R1-Pad1)*
X49600000Y-45750000D03*
G04 #@! TO.P,U1,30*
G04 #@! TO.N,Net-(R2-Pad1)*
X48800000Y-45750000D03*
G04 #@! TO.P,U1,31*
G04 #@! TO.N,VCC*
X48000000Y-45750000D03*
G04 #@! TO.P,U1,32*
X47200000Y-45750000D03*
G04 #@! TD*
D11*
G04 #@! TO.N,Net-(R4-Pad2)*
G04 #@! TO.C,R4*
G36*
X56295958Y-42098710D02*
X56310276Y-42100834D01*
X56324317Y-42104351D01*
X56337946Y-42109228D01*
X56351031Y-42115417D01*
X56363447Y-42122858D01*
X56375073Y-42131481D01*
X56385798Y-42141202D01*
X56395519Y-42151927D01*
X56404142Y-42163553D01*
X56411583Y-42175969D01*
X56417772Y-42189054D01*
X56422649Y-42202683D01*
X56426166Y-42216724D01*
X56428290Y-42231042D01*
X56429000Y-42245500D01*
X56429000Y-42590500D01*
X56428290Y-42604958D01*
X56426166Y-42619276D01*
X56422649Y-42633317D01*
X56417772Y-42646946D01*
X56411583Y-42660031D01*
X56404142Y-42672447D01*
X56395519Y-42684073D01*
X56385798Y-42694798D01*
X56375073Y-42704519D01*
X56363447Y-42713142D01*
X56351031Y-42720583D01*
X56337946Y-42726772D01*
X56324317Y-42731649D01*
X56310276Y-42735166D01*
X56295958Y-42737290D01*
X56281500Y-42738000D01*
X55986500Y-42738000D01*
X55972042Y-42737290D01*
X55957724Y-42735166D01*
X55943683Y-42731649D01*
X55930054Y-42726772D01*
X55916969Y-42720583D01*
X55904553Y-42713142D01*
X55892927Y-42704519D01*
X55882202Y-42694798D01*
X55872481Y-42684073D01*
X55863858Y-42672447D01*
X55856417Y-42660031D01*
X55850228Y-42646946D01*
X55845351Y-42633317D01*
X55841834Y-42619276D01*
X55839710Y-42604958D01*
X55839000Y-42590500D01*
X55839000Y-42245500D01*
X55839710Y-42231042D01*
X55841834Y-42216724D01*
X55845351Y-42202683D01*
X55850228Y-42189054D01*
X55856417Y-42175969D01*
X55863858Y-42163553D01*
X55872481Y-42151927D01*
X55882202Y-42141202D01*
X55892927Y-42131481D01*
X55904553Y-42122858D01*
X55916969Y-42115417D01*
X55930054Y-42109228D01*
X55943683Y-42104351D01*
X55957724Y-42100834D01*
X55972042Y-42098710D01*
X55986500Y-42098000D01*
X56281500Y-42098000D01*
X56295958Y-42098710D01*
X56295958Y-42098710D01*
G37*
D12*
G04 #@! TD*
G04 #@! TO.P,R4,2*
G04 #@! TO.N,Net-(R4-Pad2)*
X56134000Y-42418000D03*
D11*
G04 #@! TO.N,VCC*
G04 #@! TO.C,R4*
G36*
X55325958Y-42098710D02*
X55340276Y-42100834D01*
X55354317Y-42104351D01*
X55367946Y-42109228D01*
X55381031Y-42115417D01*
X55393447Y-42122858D01*
X55405073Y-42131481D01*
X55415798Y-42141202D01*
X55425519Y-42151927D01*
X55434142Y-42163553D01*
X55441583Y-42175969D01*
X55447772Y-42189054D01*
X55452649Y-42202683D01*
X55456166Y-42216724D01*
X55458290Y-42231042D01*
X55459000Y-42245500D01*
X55459000Y-42590500D01*
X55458290Y-42604958D01*
X55456166Y-42619276D01*
X55452649Y-42633317D01*
X55447772Y-42646946D01*
X55441583Y-42660031D01*
X55434142Y-42672447D01*
X55425519Y-42684073D01*
X55415798Y-42694798D01*
X55405073Y-42704519D01*
X55393447Y-42713142D01*
X55381031Y-42720583D01*
X55367946Y-42726772D01*
X55354317Y-42731649D01*
X55340276Y-42735166D01*
X55325958Y-42737290D01*
X55311500Y-42738000D01*
X55016500Y-42738000D01*
X55002042Y-42737290D01*
X54987724Y-42735166D01*
X54973683Y-42731649D01*
X54960054Y-42726772D01*
X54946969Y-42720583D01*
X54934553Y-42713142D01*
X54922927Y-42704519D01*
X54912202Y-42694798D01*
X54902481Y-42684073D01*
X54893858Y-42672447D01*
X54886417Y-42660031D01*
X54880228Y-42646946D01*
X54875351Y-42633317D01*
X54871834Y-42619276D01*
X54869710Y-42604958D01*
X54869000Y-42590500D01*
X54869000Y-42245500D01*
X54869710Y-42231042D01*
X54871834Y-42216724D01*
X54875351Y-42202683D01*
X54880228Y-42189054D01*
X54886417Y-42175969D01*
X54893858Y-42163553D01*
X54902481Y-42151927D01*
X54912202Y-42141202D01*
X54922927Y-42131481D01*
X54934553Y-42122858D01*
X54946969Y-42115417D01*
X54960054Y-42109228D01*
X54973683Y-42104351D01*
X54987724Y-42100834D01*
X55002042Y-42098710D01*
X55016500Y-42098000D01*
X55311500Y-42098000D01*
X55325958Y-42098710D01*
X55325958Y-42098710D01*
G37*
D12*
G04 #@! TD*
G04 #@! TO.P,R4,1*
G04 #@! TO.N,VCC*
X55164000Y-42418000D03*
D11*
G04 #@! TO.N,Net-(D1-Pad1)*
G04 #@! TO.C,R3*
G36*
X62416958Y-44617710D02*
X62431276Y-44619834D01*
X62445317Y-44623351D01*
X62458946Y-44628228D01*
X62472031Y-44634417D01*
X62484447Y-44641858D01*
X62496073Y-44650481D01*
X62506798Y-44660202D01*
X62516519Y-44670927D01*
X62525142Y-44682553D01*
X62532583Y-44694969D01*
X62538772Y-44708054D01*
X62543649Y-44721683D01*
X62547166Y-44735724D01*
X62549290Y-44750042D01*
X62550000Y-44764500D01*
X62550000Y-45059500D01*
X62549290Y-45073958D01*
X62547166Y-45088276D01*
X62543649Y-45102317D01*
X62538772Y-45115946D01*
X62532583Y-45129031D01*
X62525142Y-45141447D01*
X62516519Y-45153073D01*
X62506798Y-45163798D01*
X62496073Y-45173519D01*
X62484447Y-45182142D01*
X62472031Y-45189583D01*
X62458946Y-45195772D01*
X62445317Y-45200649D01*
X62431276Y-45204166D01*
X62416958Y-45206290D01*
X62402500Y-45207000D01*
X62057500Y-45207000D01*
X62043042Y-45206290D01*
X62028724Y-45204166D01*
X62014683Y-45200649D01*
X62001054Y-45195772D01*
X61987969Y-45189583D01*
X61975553Y-45182142D01*
X61963927Y-45173519D01*
X61953202Y-45163798D01*
X61943481Y-45153073D01*
X61934858Y-45141447D01*
X61927417Y-45129031D01*
X61921228Y-45115946D01*
X61916351Y-45102317D01*
X61912834Y-45088276D01*
X61910710Y-45073958D01*
X61910000Y-45059500D01*
X61910000Y-44764500D01*
X61910710Y-44750042D01*
X61912834Y-44735724D01*
X61916351Y-44721683D01*
X61921228Y-44708054D01*
X61927417Y-44694969D01*
X61934858Y-44682553D01*
X61943481Y-44670927D01*
X61953202Y-44660202D01*
X61963927Y-44650481D01*
X61975553Y-44641858D01*
X61987969Y-44634417D01*
X62001054Y-44628228D01*
X62014683Y-44623351D01*
X62028724Y-44619834D01*
X62043042Y-44617710D01*
X62057500Y-44617000D01*
X62402500Y-44617000D01*
X62416958Y-44617710D01*
X62416958Y-44617710D01*
G37*
D12*
G04 #@! TD*
G04 #@! TO.P,R3,1*
G04 #@! TO.N,Net-(D1-Pad1)*
X62230000Y-44912000D03*
D11*
G04 #@! TO.N,GND*
G04 #@! TO.C,R3*
G36*
X62416958Y-43647710D02*
X62431276Y-43649834D01*
X62445317Y-43653351D01*
X62458946Y-43658228D01*
X62472031Y-43664417D01*
X62484447Y-43671858D01*
X62496073Y-43680481D01*
X62506798Y-43690202D01*
X62516519Y-43700927D01*
X62525142Y-43712553D01*
X62532583Y-43724969D01*
X62538772Y-43738054D01*
X62543649Y-43751683D01*
X62547166Y-43765724D01*
X62549290Y-43780042D01*
X62550000Y-43794500D01*
X62550000Y-44089500D01*
X62549290Y-44103958D01*
X62547166Y-44118276D01*
X62543649Y-44132317D01*
X62538772Y-44145946D01*
X62532583Y-44159031D01*
X62525142Y-44171447D01*
X62516519Y-44183073D01*
X62506798Y-44193798D01*
X62496073Y-44203519D01*
X62484447Y-44212142D01*
X62472031Y-44219583D01*
X62458946Y-44225772D01*
X62445317Y-44230649D01*
X62431276Y-44234166D01*
X62416958Y-44236290D01*
X62402500Y-44237000D01*
X62057500Y-44237000D01*
X62043042Y-44236290D01*
X62028724Y-44234166D01*
X62014683Y-44230649D01*
X62001054Y-44225772D01*
X61987969Y-44219583D01*
X61975553Y-44212142D01*
X61963927Y-44203519D01*
X61953202Y-44193798D01*
X61943481Y-44183073D01*
X61934858Y-44171447D01*
X61927417Y-44159031D01*
X61921228Y-44145946D01*
X61916351Y-44132317D01*
X61912834Y-44118276D01*
X61910710Y-44103958D01*
X61910000Y-44089500D01*
X61910000Y-43794500D01*
X61910710Y-43780042D01*
X61912834Y-43765724D01*
X61916351Y-43751683D01*
X61921228Y-43738054D01*
X61927417Y-43724969D01*
X61934858Y-43712553D01*
X61943481Y-43700927D01*
X61953202Y-43690202D01*
X61963927Y-43680481D01*
X61975553Y-43671858D01*
X61987969Y-43664417D01*
X62001054Y-43658228D01*
X62014683Y-43653351D01*
X62028724Y-43649834D01*
X62043042Y-43647710D01*
X62057500Y-43647000D01*
X62402500Y-43647000D01*
X62416958Y-43647710D01*
X62416958Y-43647710D01*
G37*
D12*
G04 #@! TD*
G04 #@! TO.P,R3,2*
G04 #@! TO.N,GND*
X62230000Y-43942000D03*
D11*
G04 #@! TO.N,Net-(J4-Pad2)*
G04 #@! TO.C,R2*
G36*
X46668958Y-61889710D02*
X46683276Y-61891834D01*
X46697317Y-61895351D01*
X46710946Y-61900228D01*
X46724031Y-61906417D01*
X46736447Y-61913858D01*
X46748073Y-61922481D01*
X46758798Y-61932202D01*
X46768519Y-61942927D01*
X46777142Y-61954553D01*
X46784583Y-61966969D01*
X46790772Y-61980054D01*
X46795649Y-61993683D01*
X46799166Y-62007724D01*
X46801290Y-62022042D01*
X46802000Y-62036500D01*
X46802000Y-62331500D01*
X46801290Y-62345958D01*
X46799166Y-62360276D01*
X46795649Y-62374317D01*
X46790772Y-62387946D01*
X46784583Y-62401031D01*
X46777142Y-62413447D01*
X46768519Y-62425073D01*
X46758798Y-62435798D01*
X46748073Y-62445519D01*
X46736447Y-62454142D01*
X46724031Y-62461583D01*
X46710946Y-62467772D01*
X46697317Y-62472649D01*
X46683276Y-62476166D01*
X46668958Y-62478290D01*
X46654500Y-62479000D01*
X46309500Y-62479000D01*
X46295042Y-62478290D01*
X46280724Y-62476166D01*
X46266683Y-62472649D01*
X46253054Y-62467772D01*
X46239969Y-62461583D01*
X46227553Y-62454142D01*
X46215927Y-62445519D01*
X46205202Y-62435798D01*
X46195481Y-62425073D01*
X46186858Y-62413447D01*
X46179417Y-62401031D01*
X46173228Y-62387946D01*
X46168351Y-62374317D01*
X46164834Y-62360276D01*
X46162710Y-62345958D01*
X46162000Y-62331500D01*
X46162000Y-62036500D01*
X46162710Y-62022042D01*
X46164834Y-62007724D01*
X46168351Y-61993683D01*
X46173228Y-61980054D01*
X46179417Y-61966969D01*
X46186858Y-61954553D01*
X46195481Y-61942927D01*
X46205202Y-61932202D01*
X46215927Y-61922481D01*
X46227553Y-61913858D01*
X46239969Y-61906417D01*
X46253054Y-61900228D01*
X46266683Y-61895351D01*
X46280724Y-61891834D01*
X46295042Y-61889710D01*
X46309500Y-61889000D01*
X46654500Y-61889000D01*
X46668958Y-61889710D01*
X46668958Y-61889710D01*
G37*
D12*
G04 #@! TD*
G04 #@! TO.P,R2,2*
G04 #@! TO.N,Net-(J4-Pad2)*
X46482000Y-62184000D03*
D11*
G04 #@! TO.N,Net-(R2-Pad1)*
G04 #@! TO.C,R2*
G36*
X46668958Y-60919710D02*
X46683276Y-60921834D01*
X46697317Y-60925351D01*
X46710946Y-60930228D01*
X46724031Y-60936417D01*
X46736447Y-60943858D01*
X46748073Y-60952481D01*
X46758798Y-60962202D01*
X46768519Y-60972927D01*
X46777142Y-60984553D01*
X46784583Y-60996969D01*
X46790772Y-61010054D01*
X46795649Y-61023683D01*
X46799166Y-61037724D01*
X46801290Y-61052042D01*
X46802000Y-61066500D01*
X46802000Y-61361500D01*
X46801290Y-61375958D01*
X46799166Y-61390276D01*
X46795649Y-61404317D01*
X46790772Y-61417946D01*
X46784583Y-61431031D01*
X46777142Y-61443447D01*
X46768519Y-61455073D01*
X46758798Y-61465798D01*
X46748073Y-61475519D01*
X46736447Y-61484142D01*
X46724031Y-61491583D01*
X46710946Y-61497772D01*
X46697317Y-61502649D01*
X46683276Y-61506166D01*
X46668958Y-61508290D01*
X46654500Y-61509000D01*
X46309500Y-61509000D01*
X46295042Y-61508290D01*
X46280724Y-61506166D01*
X46266683Y-61502649D01*
X46253054Y-61497772D01*
X46239969Y-61491583D01*
X46227553Y-61484142D01*
X46215927Y-61475519D01*
X46205202Y-61465798D01*
X46195481Y-61455073D01*
X46186858Y-61443447D01*
X46179417Y-61431031D01*
X46173228Y-61417946D01*
X46168351Y-61404317D01*
X46164834Y-61390276D01*
X46162710Y-61375958D01*
X46162000Y-61361500D01*
X46162000Y-61066500D01*
X46162710Y-61052042D01*
X46164834Y-61037724D01*
X46168351Y-61023683D01*
X46173228Y-61010054D01*
X46179417Y-60996969D01*
X46186858Y-60984553D01*
X46195481Y-60972927D01*
X46205202Y-60962202D01*
X46215927Y-60952481D01*
X46227553Y-60943858D01*
X46239969Y-60936417D01*
X46253054Y-60930228D01*
X46266683Y-60925351D01*
X46280724Y-60921834D01*
X46295042Y-60919710D01*
X46309500Y-60919000D01*
X46654500Y-60919000D01*
X46668958Y-60919710D01*
X46668958Y-60919710D01*
G37*
D12*
G04 #@! TD*
G04 #@! TO.P,R2,1*
G04 #@! TO.N,Net-(R2-Pad1)*
X46482000Y-61214000D03*
D11*
G04 #@! TO.N,Net-(R1-Pad1)*
G04 #@! TO.C,R1*
G36*
X53780958Y-60942710D02*
X53795276Y-60944834D01*
X53809317Y-60948351D01*
X53822946Y-60953228D01*
X53836031Y-60959417D01*
X53848447Y-60966858D01*
X53860073Y-60975481D01*
X53870798Y-60985202D01*
X53880519Y-60995927D01*
X53889142Y-61007553D01*
X53896583Y-61019969D01*
X53902772Y-61033054D01*
X53907649Y-61046683D01*
X53911166Y-61060724D01*
X53913290Y-61075042D01*
X53914000Y-61089500D01*
X53914000Y-61384500D01*
X53913290Y-61398958D01*
X53911166Y-61413276D01*
X53907649Y-61427317D01*
X53902772Y-61440946D01*
X53896583Y-61454031D01*
X53889142Y-61466447D01*
X53880519Y-61478073D01*
X53870798Y-61488798D01*
X53860073Y-61498519D01*
X53848447Y-61507142D01*
X53836031Y-61514583D01*
X53822946Y-61520772D01*
X53809317Y-61525649D01*
X53795276Y-61529166D01*
X53780958Y-61531290D01*
X53766500Y-61532000D01*
X53421500Y-61532000D01*
X53407042Y-61531290D01*
X53392724Y-61529166D01*
X53378683Y-61525649D01*
X53365054Y-61520772D01*
X53351969Y-61514583D01*
X53339553Y-61507142D01*
X53327927Y-61498519D01*
X53317202Y-61488798D01*
X53307481Y-61478073D01*
X53298858Y-61466447D01*
X53291417Y-61454031D01*
X53285228Y-61440946D01*
X53280351Y-61427317D01*
X53276834Y-61413276D01*
X53274710Y-61398958D01*
X53274000Y-61384500D01*
X53274000Y-61089500D01*
X53274710Y-61075042D01*
X53276834Y-61060724D01*
X53280351Y-61046683D01*
X53285228Y-61033054D01*
X53291417Y-61019969D01*
X53298858Y-61007553D01*
X53307481Y-60995927D01*
X53317202Y-60985202D01*
X53327927Y-60975481D01*
X53339553Y-60966858D01*
X53351969Y-60959417D01*
X53365054Y-60953228D01*
X53378683Y-60948351D01*
X53392724Y-60944834D01*
X53407042Y-60942710D01*
X53421500Y-60942000D01*
X53766500Y-60942000D01*
X53780958Y-60942710D01*
X53780958Y-60942710D01*
G37*
D12*
G04 #@! TD*
G04 #@! TO.P,R1,1*
G04 #@! TO.N,Net-(R1-Pad1)*
X53594000Y-61237000D03*
D11*
G04 #@! TO.N,Net-(J4-Pad3)*
G04 #@! TO.C,R1*
G36*
X53780958Y-61912710D02*
X53795276Y-61914834D01*
X53809317Y-61918351D01*
X53822946Y-61923228D01*
X53836031Y-61929417D01*
X53848447Y-61936858D01*
X53860073Y-61945481D01*
X53870798Y-61955202D01*
X53880519Y-61965927D01*
X53889142Y-61977553D01*
X53896583Y-61989969D01*
X53902772Y-62003054D01*
X53907649Y-62016683D01*
X53911166Y-62030724D01*
X53913290Y-62045042D01*
X53914000Y-62059500D01*
X53914000Y-62354500D01*
X53913290Y-62368958D01*
X53911166Y-62383276D01*
X53907649Y-62397317D01*
X53902772Y-62410946D01*
X53896583Y-62424031D01*
X53889142Y-62436447D01*
X53880519Y-62448073D01*
X53870798Y-62458798D01*
X53860073Y-62468519D01*
X53848447Y-62477142D01*
X53836031Y-62484583D01*
X53822946Y-62490772D01*
X53809317Y-62495649D01*
X53795276Y-62499166D01*
X53780958Y-62501290D01*
X53766500Y-62502000D01*
X53421500Y-62502000D01*
X53407042Y-62501290D01*
X53392724Y-62499166D01*
X53378683Y-62495649D01*
X53365054Y-62490772D01*
X53351969Y-62484583D01*
X53339553Y-62477142D01*
X53327927Y-62468519D01*
X53317202Y-62458798D01*
X53307481Y-62448073D01*
X53298858Y-62436447D01*
X53291417Y-62424031D01*
X53285228Y-62410946D01*
X53280351Y-62397317D01*
X53276834Y-62383276D01*
X53274710Y-62368958D01*
X53274000Y-62354500D01*
X53274000Y-62059500D01*
X53274710Y-62045042D01*
X53276834Y-62030724D01*
X53280351Y-62016683D01*
X53285228Y-62003054D01*
X53291417Y-61989969D01*
X53298858Y-61977553D01*
X53307481Y-61965927D01*
X53317202Y-61955202D01*
X53327927Y-61945481D01*
X53339553Y-61936858D01*
X53351969Y-61929417D01*
X53365054Y-61923228D01*
X53378683Y-61918351D01*
X53392724Y-61914834D01*
X53407042Y-61912710D01*
X53421500Y-61912000D01*
X53766500Y-61912000D01*
X53780958Y-61912710D01*
X53780958Y-61912710D01*
G37*
D12*
G04 #@! TD*
G04 #@! TO.P,R1,2*
G04 #@! TO.N,Net-(J4-Pad3)*
X53594000Y-62207000D03*
D25*
G04 #@! TO.N,Net-(R1-Pad1)*
X53340000Y-59944000D03*
X49486097Y-43731903D03*
G04 #@! TO.N,Net-(J4-Pad2)*
X49022000Y-62738000D03*
X46482000Y-62992000D03*
G04 #@! TO.N,Net-(R2-Pad1)*
X46758653Y-59966653D03*
X48260000Y-43688000D03*
G04 #@! TO.N,GND*
X50391780Y-44645137D03*
X61976000Y-42926000D03*
X56642000Y-35560000D03*
X66802000Y-35052000D03*
X36576000Y-39116000D03*
X36322000Y-32004000D03*
X52070000Y-57404000D03*
X51642903Y-62932000D03*
X44196000Y-32258000D03*
X42711347Y-47204653D03*
G04 #@! TO.N,Net-(R4-Pad2)*
X64008000Y-38608000D03*
X59944000Y-38608000D03*
G04 #@! TO.N,Net-(C2-Pad1)*
X43688000Y-45720000D03*
X40132000Y-38100000D03*
G04 #@! TO.N,Net-(J3-Pad1)*
X42926000Y-50475000D03*
G04 #@! TO.N,Net-(J3-Pad4)*
X56642000Y-47752000D03*
G04 #@! TD*
D26*
G04 #@! TO.N,Net-(R1-Pad1)*
X53594000Y-61237000D02*
X53594000Y-60198000D01*
X53594000Y-60198000D02*
X53340000Y-59944000D01*
X49486097Y-45636097D02*
X49600000Y-45750000D01*
X49486097Y-43731903D02*
X49486097Y-45636097D01*
G04 #@! TO.N,Net-(J4-Pad3)*
X53594000Y-62207000D02*
X51229500Y-62207000D01*
X50038000Y-63398500D02*
X50038000Y-64323500D01*
X51229500Y-62207000D02*
X50038000Y-63398500D01*
G04 #@! TO.N,Net-(J4-Pad2)*
X49388000Y-63398500D02*
X49388000Y-64323500D01*
X49388000Y-63398500D02*
X49388000Y-63104000D01*
X49388000Y-63104000D02*
X49022000Y-62738000D01*
X46482000Y-62992000D02*
X46482000Y-62184000D01*
G04 #@! TO.N,Net-(R2-Pad1)*
X46482000Y-61214000D02*
X46482000Y-60243306D01*
X46482000Y-60243306D02*
X46758653Y-59966653D01*
X48800000Y-44228000D02*
X48800000Y-45750000D01*
X48260000Y-43688000D02*
X48800000Y-44228000D01*
G04 #@! TO.N,Net-(D1-Pad1)*
X62230000Y-44912000D02*
X62230000Y-45466000D01*
X61800500Y-45895500D02*
X60198000Y-45895500D01*
X62230000Y-45466000D02*
X61800500Y-45895500D01*
G04 #@! TO.N,GND*
X50400000Y-45750000D02*
X50400000Y-44653357D01*
X50400000Y-44653357D02*
X50391780Y-44645137D01*
X62230000Y-43942000D02*
X62230000Y-43180000D01*
X62230000Y-43180000D02*
X61976000Y-42926000D01*
X58376000Y-35584000D02*
X56666000Y-35584000D01*
X56666000Y-35584000D02*
X56642000Y-35560000D01*
X65576000Y-35584000D02*
X66270000Y-35584000D01*
X66270000Y-35584000D02*
X66802000Y-35052000D01*
X36576000Y-40155000D02*
X36576000Y-39116000D01*
X36322000Y-33043000D02*
X36322000Y-32004000D01*
X51568000Y-60452000D02*
X51568000Y-57906000D01*
X51568000Y-57906000D02*
X52070000Y-57404000D01*
X51338000Y-64323500D02*
X51338000Y-63236903D01*
X51338000Y-63236903D02*
X51642903Y-62932000D01*
X44528500Y-34290000D02*
X44528500Y-32590500D01*
X44528500Y-32590500D02*
X44196000Y-32258000D01*
X45750000Y-48800000D02*
X44306694Y-48800000D01*
X44306694Y-48800000D02*
X42711347Y-47204653D01*
G04 #@! TO.N,Net-(R4-Pad2)*
X58376000Y-39534000D02*
X58376000Y-38584000D01*
X58376000Y-44124000D02*
X58376000Y-39534000D01*
X55300000Y-47200000D02*
X58376000Y-44124000D01*
X54250000Y-47200000D02*
X55300000Y-47200000D01*
X58376000Y-40176000D02*
X56134000Y-42418000D01*
X58376000Y-38584000D02*
X58376000Y-40176000D01*
X65576000Y-38584000D02*
X64032000Y-38584000D01*
X64032000Y-38584000D02*
X64008000Y-38608000D01*
X58400000Y-38608000D02*
X58376000Y-38584000D01*
X59944000Y-38608000D02*
X58400000Y-38608000D01*
G04 #@! TO.N,VCC*
X48072290Y-61147710D02*
X48768000Y-60452000D01*
X48072290Y-63182790D02*
X48072290Y-61147710D01*
X48738000Y-63848500D02*
X48072290Y-63182790D01*
X48738000Y-64323500D02*
X48738000Y-63848500D01*
X45750000Y-49600000D02*
X47428000Y-49600000D01*
X47200000Y-45750000D02*
X47200000Y-47200000D01*
X48000000Y-45750000D02*
X48000000Y-46984000D01*
G04 #@! TO.N,Net-(C2-Pad1)*
X36485000Y-33850000D02*
X36322000Y-34013000D01*
X40132000Y-33850000D02*
X36485000Y-33850000D01*
X43745000Y-45720000D02*
X43688000Y-45720000D01*
X45750000Y-47200000D02*
X45225000Y-47200000D01*
X45225000Y-47200000D02*
X43745000Y-45720000D01*
X40132000Y-33850000D02*
X40132000Y-38100000D01*
G04 #@! TO.N,Net-(C1-Pad1)*
X44700000Y-48000000D02*
X45750000Y-48000000D01*
X44532000Y-48000000D02*
X44700000Y-48000000D01*
X40132000Y-43600000D02*
X44532000Y-48000000D01*
X40132000Y-42350000D02*
X40132000Y-43600000D01*
X40939000Y-43157000D02*
X40132000Y-42350000D01*
X37801000Y-42350000D02*
X36576000Y-41125000D01*
X40132000Y-42350000D02*
X37801000Y-42350000D01*
G04 #@! TO.N,Net-(J3-Pad1)*
X45750000Y-50400000D02*
X43001000Y-50400000D01*
X43001000Y-50400000D02*
X42926000Y-50475000D01*
G04 #@! TO.N,Net-(J2-Pad1)*
X44700000Y-51200000D02*
X45750000Y-51200000D01*
X42300000Y-51200000D02*
X44700000Y-51200000D01*
X36100000Y-45000000D02*
X42300000Y-51200000D01*
X35000000Y-45000000D02*
X36100000Y-45000000D01*
G04 #@! TO.N,Net-(J2-Pad2)*
X39460000Y-52000000D02*
X45750000Y-52000000D01*
X35000000Y-47540000D02*
X39460000Y-52000000D01*
G04 #@! TO.N,Net-(J2-Pad3)*
X37720000Y-52800000D02*
X45750000Y-52800000D01*
X35000000Y-50080000D02*
X37720000Y-52800000D01*
G04 #@! TO.N,Net-(J2-Pad4)*
X36630000Y-54250000D02*
X47200000Y-54250000D01*
X35000000Y-52620000D02*
X36630000Y-54250000D01*
G04 #@! TO.N,Net-(J2-Pad5)*
X48000000Y-55300000D02*
X48000000Y-54250000D01*
X47290001Y-56009999D02*
X48000000Y-55300000D01*
X35849999Y-56009999D02*
X47290001Y-56009999D01*
X35000000Y-55160000D02*
X35849999Y-56009999D01*
G04 #@! TO.N,Net-(J2-Pad6)*
X48800000Y-55300000D02*
X48800000Y-54250000D01*
X47639992Y-56460008D02*
X48800000Y-55300000D01*
X36239992Y-56460008D02*
X47639992Y-56460008D01*
X35000000Y-57700000D02*
X36239992Y-56460008D01*
G04 #@! TO.N,Net-(J2-Pad7)*
X49600000Y-54250000D02*
X49600000Y-55136410D01*
X35000000Y-60240000D02*
X36576000Y-58664000D01*
X49600000Y-55300000D02*
X49600000Y-54250000D01*
X47989983Y-56910017D02*
X49600000Y-55300000D01*
X36815983Y-56910017D02*
X47989983Y-56910017D01*
X36576000Y-57150000D02*
X36815983Y-56910017D01*
X36576000Y-58664000D02*
X36576000Y-57150000D01*
G04 #@! TO.N,Net-(J2-Pad8)*
X50400000Y-55300000D02*
X50400000Y-54250000D01*
X35000000Y-61979002D02*
X37084000Y-59895002D01*
X35000000Y-62780000D02*
X35000000Y-61979002D01*
X37084000Y-59895002D02*
X37084000Y-57404000D01*
X50400000Y-55136410D02*
X50400000Y-54250000D01*
X48132410Y-57404000D02*
X50400000Y-55136410D01*
X37084000Y-57404000D02*
X48132410Y-57404000D01*
G04 #@! TO.N,Net-(J1-Pad1)*
X63900000Y-63000000D02*
X62738000Y-61838000D01*
X65000000Y-63000000D02*
X63900000Y-63000000D01*
X62738000Y-61838000D02*
X62738000Y-58820020D01*
X51200000Y-55300000D02*
X51200000Y-54250000D01*
X51200000Y-55460998D02*
X51200000Y-55300000D01*
X54559022Y-58820020D02*
X51200000Y-55460998D01*
X62738000Y-58820020D02*
X54559022Y-58820020D01*
G04 #@! TO.N,Net-(J1-Pad2)*
X64150001Y-59610001D02*
X64150001Y-59578001D01*
X65000000Y-60460000D02*
X64150001Y-59610001D01*
X52000000Y-55300000D02*
X52000000Y-54250000D01*
X55070010Y-58370010D02*
X52000000Y-55300000D01*
X62942010Y-58370010D02*
X55070010Y-58370010D01*
X64150001Y-59578001D02*
X62942010Y-58370010D01*
G04 #@! TO.N,Net-(J1-Pad3)*
X63797919Y-57920000D02*
X65000000Y-57920000D01*
X55945000Y-57920000D02*
X63797919Y-57920000D01*
X52800000Y-54775000D02*
X55945000Y-57920000D01*
X52800000Y-54250000D02*
X52800000Y-54775000D01*
G04 #@! TO.N,Net-(J1-Pad4)*
X54250000Y-53325000D02*
X54250000Y-52800000D01*
X56305000Y-55380000D02*
X54250000Y-53325000D01*
X65000000Y-55380000D02*
X56305000Y-55380000D01*
G04 #@! TO.N,Net-(J1-Pad5)*
X55300000Y-52000000D02*
X54250000Y-52000000D01*
X62957919Y-52000000D02*
X55300000Y-52000000D01*
X63797919Y-52840000D02*
X62957919Y-52000000D01*
X65000000Y-52840000D02*
X63797919Y-52840000D01*
G04 #@! TO.N,Net-(J1-Pad6)*
X64100000Y-51200000D02*
X65000000Y-50300000D01*
X54250000Y-51200000D02*
X64100000Y-51200000D01*
G04 #@! TO.N,Net-(J1-Pad7)*
X55300000Y-50400000D02*
X54250000Y-50400000D01*
X61157919Y-50400000D02*
X55300000Y-50400000D01*
X63797919Y-47760000D02*
X61157919Y-50400000D01*
X65000000Y-47760000D02*
X63797919Y-47760000D01*
G04 #@! TO.N,Net-(J1-Pad8)*
X55300000Y-49600000D02*
X54250000Y-49600000D01*
X59417919Y-49600000D02*
X55300000Y-49600000D01*
X63797919Y-45220000D02*
X59417919Y-49600000D01*
X65000000Y-45220000D02*
X63797919Y-45220000D01*
G04 #@! TO.N,Net-(D1-Pad2)*
X58826010Y-46640992D02*
X58826010Y-44310400D01*
X54250000Y-48800000D02*
X56667002Y-48800000D01*
X56667002Y-48800000D02*
X58826010Y-46640992D01*
X59115910Y-44020500D02*
X60198000Y-44020500D01*
X58826010Y-44310400D02*
X59115910Y-44020500D01*
G04 #@! TO.N,Net-(J3-Pad4)*
X56394000Y-48000000D02*
X54250000Y-48000000D01*
X56642000Y-47752000D02*
X56394000Y-48000000D01*
G04 #@! TO.N,Net-(J3-Pad3)*
X52800000Y-44700000D02*
X52800000Y-45750000D01*
X52800000Y-42257590D02*
X52800000Y-44700000D01*
X51054000Y-40511590D02*
X52800000Y-42257590D01*
X51054000Y-38608000D02*
X51054000Y-40511590D01*
G04 #@! TO.N,Net-(J3-Pad2)*
X52000000Y-42094000D02*
X48514000Y-38608000D01*
X52000000Y-45750000D02*
X52000000Y-42094000D01*
G04 #@! TO.N,Net-(C4-Pad1)*
X46959737Y-34846237D02*
X46403500Y-34290000D01*
X47338999Y-35225499D02*
X46959737Y-34846237D01*
X47338999Y-40559499D02*
X47338999Y-35225499D01*
X51200000Y-44420500D02*
X47338999Y-40559499D01*
X51200000Y-45750000D02*
X51200000Y-44420500D01*
G04 #@! TO.N,Net-(J4-Pad6)*
X52938000Y-67023500D02*
X53538000Y-67023500D01*
X52938000Y-67023500D02*
X51038000Y-67023500D01*
X51038000Y-67023500D02*
X49038000Y-67023500D01*
X49038000Y-67023500D02*
X47138000Y-67023500D01*
G04 #@! TD*
D27*
G04 #@! TO.N,VCC*
G36*
X66829000Y-30298387D02*
X66829001Y-30298392D01*
X66829001Y-34017000D01*
X66596126Y-34017000D01*
X66215720Y-34174569D01*
X66153729Y-34236560D01*
X64776000Y-34236560D01*
X64528235Y-34285843D01*
X64318191Y-34426191D01*
X64177843Y-34636235D01*
X64128560Y-34884000D01*
X64128560Y-36284000D01*
X64177843Y-36531765D01*
X64318191Y-36741809D01*
X64528235Y-36882157D01*
X64776000Y-36931440D01*
X66376000Y-36931440D01*
X66623765Y-36882157D01*
X66829001Y-36745022D01*
X66829001Y-37422978D01*
X66623765Y-37285843D01*
X66376000Y-37236560D01*
X64776000Y-37236560D01*
X64528235Y-37285843D01*
X64318191Y-37426191D01*
X64218747Y-37575018D01*
X64213874Y-37573000D01*
X63802126Y-37573000D01*
X63421720Y-37730569D01*
X63130569Y-38021720D01*
X62973000Y-38402126D01*
X62973000Y-38813874D01*
X63130569Y-39194280D01*
X63421720Y-39485431D01*
X63802126Y-39643000D01*
X64213874Y-39643000D01*
X64243867Y-39630576D01*
X64318191Y-39741809D01*
X64528235Y-39882157D01*
X64776000Y-39931440D01*
X66376000Y-39931440D01*
X66623765Y-39882157D01*
X66829001Y-39745022D01*
X66829000Y-65227553D01*
X64211554Y-67845000D01*
X54703407Y-67845000D01*
X54773000Y-67495135D01*
X54773000Y-66551864D01*
X54701344Y-66191627D01*
X54428385Y-65783115D01*
X54019872Y-65510156D01*
X53538000Y-65414305D01*
X53478904Y-65426060D01*
X53358770Y-65426060D01*
X53690952Y-65093878D01*
X53898000Y-64594021D01*
X53898000Y-64052979D01*
X53690952Y-63553122D01*
X53308378Y-63170548D01*
X52816971Y-62967000D01*
X52934811Y-62967000D01*
X53117290Y-63088929D01*
X53421500Y-63149440D01*
X53766500Y-63149440D01*
X54070710Y-63088929D01*
X54328607Y-62916607D01*
X54500929Y-62658710D01*
X54561440Y-62354500D01*
X54561440Y-62059500D01*
X54500929Y-61755290D01*
X54478685Y-61722000D01*
X54500929Y-61688710D01*
X54561440Y-61384500D01*
X54561440Y-61089500D01*
X54500929Y-60785290D01*
X54354000Y-60565396D01*
X54354000Y-60272846D01*
X54368888Y-60197999D01*
X54364404Y-60175456D01*
X54375000Y-60149874D01*
X54375000Y-59738126D01*
X54293828Y-59542158D01*
X54484170Y-59580020D01*
X54484174Y-59580020D01*
X54559021Y-59594908D01*
X54633868Y-59580020D01*
X61978001Y-59580020D01*
X61978000Y-61763153D01*
X61963112Y-61838000D01*
X61978000Y-61912847D01*
X61978000Y-61912851D01*
X62022096Y-62134536D01*
X62190071Y-62385929D01*
X62253530Y-62428331D01*
X63309671Y-63484473D01*
X63352071Y-63547929D01*
X63502560Y-63648483D01*
X63502560Y-63850000D01*
X63551843Y-64097765D01*
X63692191Y-64307809D01*
X63902235Y-64448157D01*
X64150000Y-64497440D01*
X65850000Y-64497440D01*
X66097765Y-64448157D01*
X66307809Y-64307809D01*
X66448157Y-64097765D01*
X66497440Y-63850000D01*
X66497440Y-62150000D01*
X66448157Y-61902235D01*
X66307809Y-61692191D01*
X66097765Y-61551843D01*
X66052381Y-61542816D01*
X66070625Y-61530625D01*
X66398839Y-61039418D01*
X66514092Y-60460000D01*
X66398839Y-59880582D01*
X66070625Y-59389375D01*
X65772239Y-59190000D01*
X66070625Y-58990625D01*
X66398839Y-58499418D01*
X66514092Y-57920000D01*
X66398839Y-57340582D01*
X66070625Y-56849375D01*
X65772239Y-56650000D01*
X66070625Y-56450625D01*
X66398839Y-55959418D01*
X66514092Y-55380000D01*
X66398839Y-54800582D01*
X66070625Y-54309375D01*
X65772239Y-54110000D01*
X66070625Y-53910625D01*
X66398839Y-53419418D01*
X66514092Y-52840000D01*
X66398839Y-52260582D01*
X66070625Y-51769375D01*
X65772239Y-51570000D01*
X66070625Y-51370625D01*
X66398839Y-50879418D01*
X66514092Y-50300000D01*
X66398839Y-49720582D01*
X66070625Y-49229375D01*
X65772239Y-49030000D01*
X66070625Y-48830625D01*
X66398839Y-48339418D01*
X66514092Y-47760000D01*
X66398839Y-47180582D01*
X66070625Y-46689375D01*
X65772239Y-46490000D01*
X66070625Y-46290625D01*
X66398839Y-45799418D01*
X66514092Y-45220000D01*
X66398839Y-44640582D01*
X66070625Y-44149375D01*
X65579418Y-43821161D01*
X65146256Y-43735000D01*
X64853744Y-43735000D01*
X64420582Y-43821161D01*
X63929375Y-44149375D01*
X63721631Y-44460286D01*
X63501382Y-44504096D01*
X63501380Y-44504097D01*
X63501381Y-44504097D01*
X63313445Y-44629671D01*
X63313443Y-44629673D01*
X63249990Y-44672071D01*
X63207592Y-44735524D01*
X63194317Y-44748799D01*
X63136929Y-44460290D01*
X63114685Y-44427000D01*
X63136929Y-44393710D01*
X63197440Y-44089500D01*
X63197440Y-43794500D01*
X63136929Y-43490290D01*
X62990000Y-43270396D01*
X62990000Y-43254846D01*
X63004888Y-43179999D01*
X63000404Y-43157456D01*
X63011000Y-43131874D01*
X63011000Y-42720126D01*
X62853431Y-42339720D01*
X62562280Y-42048569D01*
X62181874Y-41891000D01*
X61770126Y-41891000D01*
X61389720Y-42048569D01*
X61098569Y-42339720D01*
X60941000Y-42720126D01*
X60941000Y-42942598D01*
X60654250Y-42885560D01*
X59741750Y-42885560D01*
X59400706Y-42953398D01*
X59136000Y-43130270D01*
X59136000Y-40250848D01*
X59150888Y-40176000D01*
X59136000Y-40101152D01*
X59136000Y-39931440D01*
X59176000Y-39931440D01*
X59423765Y-39882157D01*
X59633809Y-39741809D01*
X59708133Y-39630576D01*
X59738126Y-39643000D01*
X60149874Y-39643000D01*
X60530280Y-39485431D01*
X60821431Y-39194280D01*
X60979000Y-38813874D01*
X60979000Y-38402126D01*
X60821431Y-38021720D01*
X60530280Y-37730569D01*
X60149874Y-37573000D01*
X59738126Y-37573000D01*
X59733253Y-37575018D01*
X59633809Y-37426191D01*
X59423765Y-37285843D01*
X59176000Y-37236560D01*
X57576000Y-37236560D01*
X57328235Y-37285843D01*
X57118191Y-37426191D01*
X56977843Y-37636235D01*
X56928560Y-37884000D01*
X56928560Y-39284000D01*
X56977843Y-39531765D01*
X57118191Y-39741809D01*
X57328235Y-39882157D01*
X57550776Y-39926423D01*
X56026639Y-41450560D01*
X55986500Y-41450560D01*
X55695175Y-41508508D01*
X55585309Y-41463000D01*
X55449750Y-41463000D01*
X55291000Y-41621750D01*
X55291000Y-41883029D01*
X55252071Y-41941290D01*
X55191560Y-42245500D01*
X55191560Y-42590500D01*
X55252071Y-42894710D01*
X55291000Y-42952971D01*
X55291000Y-43214250D01*
X55449750Y-43373000D01*
X55585309Y-43373000D01*
X55695175Y-43327492D01*
X55986500Y-43385440D01*
X56281500Y-43385440D01*
X56585710Y-43324929D01*
X56843607Y-43152607D01*
X57015929Y-42894710D01*
X57076440Y-42590500D01*
X57076440Y-42550361D01*
X57616000Y-42010801D01*
X57616000Y-43809198D01*
X55131440Y-46293759D01*
X55050000Y-46277560D01*
X53722440Y-46277560D01*
X53722440Y-44950000D01*
X53673157Y-44702235D01*
X53560000Y-44532885D01*
X53560000Y-42703750D01*
X54234000Y-42703750D01*
X54234000Y-42864310D01*
X54330673Y-43097699D01*
X54509302Y-43276327D01*
X54742691Y-43373000D01*
X54878250Y-43373000D01*
X55037000Y-43214250D01*
X55037000Y-42545000D01*
X54392750Y-42545000D01*
X54234000Y-42703750D01*
X53560000Y-42703750D01*
X53560000Y-42332437D01*
X53574888Y-42257590D01*
X53560000Y-42182743D01*
X53560000Y-42182738D01*
X53518020Y-41971690D01*
X54234000Y-41971690D01*
X54234000Y-42132250D01*
X54392750Y-42291000D01*
X55037000Y-42291000D01*
X55037000Y-41621750D01*
X54878250Y-41463000D01*
X54742691Y-41463000D01*
X54509302Y-41559673D01*
X54330673Y-41738301D01*
X54234000Y-41971690D01*
X53518020Y-41971690D01*
X53515904Y-41961053D01*
X53347929Y-41709661D01*
X53284473Y-41667261D01*
X51814000Y-40196789D01*
X51814000Y-39886178D01*
X52124625Y-39678625D01*
X52324000Y-39380239D01*
X52523375Y-39678625D01*
X53014582Y-40006839D01*
X53447744Y-40093000D01*
X53740256Y-40093000D01*
X54173418Y-40006839D01*
X54664625Y-39678625D01*
X54992839Y-39187418D01*
X55108092Y-38608000D01*
X54992839Y-38028582D01*
X54664625Y-37537375D01*
X54173418Y-37209161D01*
X53740256Y-37123000D01*
X53447744Y-37123000D01*
X53014582Y-37209161D01*
X52523375Y-37537375D01*
X52324000Y-37835761D01*
X52124625Y-37537375D01*
X51633418Y-37209161D01*
X51200256Y-37123000D01*
X50907744Y-37123000D01*
X50474582Y-37209161D01*
X49983375Y-37537375D01*
X49784000Y-37835761D01*
X49584625Y-37537375D01*
X49093418Y-37209161D01*
X48660256Y-37123000D01*
X48367744Y-37123000D01*
X48098999Y-37176457D01*
X48098999Y-35354126D01*
X55607000Y-35354126D01*
X55607000Y-35765874D01*
X55764569Y-36146280D01*
X56055720Y-36437431D01*
X56436126Y-36595000D01*
X56847874Y-36595000D01*
X56982762Y-36539127D01*
X57118191Y-36741809D01*
X57328235Y-36882157D01*
X57576000Y-36931440D01*
X59176000Y-36931440D01*
X59423765Y-36882157D01*
X59633809Y-36741809D01*
X59774157Y-36531765D01*
X59823440Y-36284000D01*
X59823440Y-34884000D01*
X59774157Y-34636235D01*
X59633809Y-34426191D01*
X59423765Y-34285843D01*
X59176000Y-34236560D01*
X57576000Y-34236560D01*
X57328235Y-34285843D01*
X57118191Y-34426191D01*
X57007883Y-34591278D01*
X56847874Y-34525000D01*
X56436126Y-34525000D01*
X56055720Y-34682569D01*
X55764569Y-34973720D01*
X55607000Y-35354126D01*
X48098999Y-35354126D01*
X48098999Y-35300345D01*
X48113887Y-35225498D01*
X48098999Y-35150651D01*
X48098999Y-35150647D01*
X48054903Y-34928962D01*
X47886928Y-34677570D01*
X47823471Y-34635170D01*
X47550068Y-34361766D01*
X47538440Y-34350138D01*
X47538440Y-33833750D01*
X47470602Y-33492706D01*
X47277416Y-33203584D01*
X46988294Y-33010398D01*
X46647250Y-32942560D01*
X46159750Y-32942560D01*
X45818706Y-33010398D01*
X45529584Y-33203584D01*
X45466000Y-33298744D01*
X45402416Y-33203584D01*
X45288500Y-33127467D01*
X45288500Y-32665346D01*
X45303388Y-32590499D01*
X45288500Y-32515652D01*
X45288500Y-32515648D01*
X45244404Y-32293963D01*
X45231000Y-32273903D01*
X45231000Y-32052126D01*
X45073431Y-31671720D01*
X44782280Y-31380569D01*
X44401874Y-31223000D01*
X43990126Y-31223000D01*
X43609720Y-31380569D01*
X43318569Y-31671720D01*
X43161000Y-32052126D01*
X43161000Y-32463874D01*
X43318569Y-32844280D01*
X43609720Y-33135431D01*
X43700380Y-33172984D01*
X43654584Y-33203584D01*
X43461398Y-33492706D01*
X43393560Y-33833750D01*
X43393560Y-34746250D01*
X43461398Y-35087294D01*
X43654584Y-35376416D01*
X43943706Y-35569602D01*
X44284750Y-35637440D01*
X44772250Y-35637440D01*
X45113294Y-35569602D01*
X45402416Y-35376416D01*
X45466000Y-35281256D01*
X45529584Y-35376416D01*
X45818706Y-35569602D01*
X46159750Y-35637440D01*
X46579000Y-35637440D01*
X46579000Y-37110560D01*
X45124000Y-37110560D01*
X44876235Y-37159843D01*
X44666191Y-37300191D01*
X44525843Y-37510235D01*
X44476560Y-37758000D01*
X44476560Y-39458000D01*
X44525843Y-39705765D01*
X44666191Y-39915809D01*
X44876235Y-40056157D01*
X45124000Y-40105440D01*
X46578999Y-40105440D01*
X46578999Y-40484652D01*
X46564111Y-40559499D01*
X46578999Y-40634346D01*
X46578999Y-40634350D01*
X46623095Y-40856035D01*
X46791070Y-41107428D01*
X46854529Y-41149830D01*
X48357699Y-42653000D01*
X48054126Y-42653000D01*
X47673720Y-42810569D01*
X47382569Y-43101720D01*
X47225000Y-43482126D01*
X47225000Y-43893874D01*
X47382569Y-44274280D01*
X47454520Y-44346231D01*
X47405889Y-44394861D01*
X47365301Y-44411673D01*
X47186673Y-44590302D01*
X47090000Y-44823691D01*
X47090000Y-45464250D01*
X47248750Y-45623000D01*
X47347000Y-45623000D01*
X47347000Y-45877000D01*
X47248750Y-45877000D01*
X47090000Y-46035750D01*
X47090000Y-46590198D01*
X47073000Y-46564755D01*
X47073000Y-45877000D01*
X46448750Y-45877000D01*
X46290000Y-46035750D01*
X46290000Y-46277560D01*
X45377362Y-46277560D01*
X44723000Y-45623199D01*
X44723000Y-45514126D01*
X44565431Y-45133720D01*
X44274280Y-44842569D01*
X44228705Y-44823691D01*
X46290000Y-44823691D01*
X46290000Y-45464250D01*
X46448750Y-45623000D01*
X47073000Y-45623000D01*
X47073000Y-44473750D01*
X46914250Y-44315000D01*
X46798690Y-44315000D01*
X46565301Y-44411673D01*
X46386673Y-44590302D01*
X46290000Y-44823691D01*
X44228705Y-44823691D01*
X43893874Y-44685000D01*
X43482126Y-44685000D01*
X43101720Y-44842569D01*
X42810569Y-45133720D01*
X42790053Y-45183251D01*
X41779440Y-44172639D01*
X41779440Y-40100000D01*
X41730157Y-39852235D01*
X41589809Y-39642191D01*
X41379765Y-39501843D01*
X41132000Y-39452560D01*
X39132000Y-39452560D01*
X38884235Y-39501843D01*
X38674191Y-39642191D01*
X38533843Y-39852235D01*
X38484560Y-40100000D01*
X38484560Y-41590000D01*
X38115802Y-41590000D01*
X37543440Y-41017639D01*
X37543440Y-40977500D01*
X37482929Y-40673290D01*
X37460685Y-40640000D01*
X37482929Y-40606710D01*
X37543440Y-40302500D01*
X37543440Y-40007500D01*
X37482929Y-39703290D01*
X37464461Y-39675651D01*
X37611000Y-39321874D01*
X37611000Y-38910126D01*
X37453431Y-38529720D01*
X37162280Y-38238569D01*
X36781874Y-38081000D01*
X36370126Y-38081000D01*
X35989720Y-38238569D01*
X35698569Y-38529720D01*
X35541000Y-38910126D01*
X35541000Y-39321874D01*
X35687539Y-39675651D01*
X35669071Y-39703290D01*
X35608560Y-40007500D01*
X35608560Y-40302500D01*
X35669071Y-40606710D01*
X35691315Y-40640000D01*
X35669071Y-40673290D01*
X35608560Y-40977500D01*
X35608560Y-41272500D01*
X35669071Y-41576710D01*
X35841393Y-41834607D01*
X36099290Y-42006929D01*
X36403500Y-42067440D01*
X36443639Y-42067440D01*
X37210670Y-42834472D01*
X37253071Y-42897929D01*
X37504463Y-43065904D01*
X37726148Y-43110000D01*
X37726152Y-43110000D01*
X37801000Y-43124888D01*
X37875848Y-43110000D01*
X38484560Y-43110000D01*
X38484560Y-44600000D01*
X38533843Y-44847765D01*
X38674191Y-45057809D01*
X38884235Y-45198157D01*
X39132000Y-45247440D01*
X40704639Y-45247440D01*
X41954744Y-46497545D01*
X41833916Y-46618373D01*
X41676347Y-46998779D01*
X41676347Y-47410527D01*
X41833916Y-47790933D01*
X42125067Y-48082084D01*
X42505473Y-48239653D01*
X42671545Y-48239653D01*
X43716367Y-49284476D01*
X43758765Y-49347929D01*
X43822218Y-49390327D01*
X43822220Y-49390329D01*
X43945947Y-49473000D01*
X44010157Y-49515904D01*
X44231842Y-49560000D01*
X44231846Y-49560000D01*
X44306693Y-49574888D01*
X44381540Y-49560000D01*
X44532885Y-49560000D01*
X44592749Y-49600000D01*
X44532885Y-49640000D01*
X43554711Y-49640000D01*
X43512280Y-49597569D01*
X43131874Y-49440000D01*
X42720126Y-49440000D01*
X42339720Y-49597569D01*
X42056045Y-49881244D01*
X36690331Y-44515530D01*
X36647929Y-44452071D01*
X36497440Y-44351517D01*
X36497440Y-44150000D01*
X36448157Y-43902235D01*
X36307809Y-43692191D01*
X36097765Y-43551843D01*
X35850000Y-43502560D01*
X34150000Y-43502560D01*
X33902235Y-43551843D01*
X33692191Y-43692191D01*
X33551843Y-43902235D01*
X33502560Y-44150000D01*
X33502560Y-45850000D01*
X33551843Y-46097765D01*
X33692191Y-46307809D01*
X33902235Y-46448157D01*
X33947619Y-46457184D01*
X33929375Y-46469375D01*
X33601161Y-46960582D01*
X33485908Y-47540000D01*
X33601161Y-48119418D01*
X33929375Y-48610625D01*
X34227761Y-48810000D01*
X33929375Y-49009375D01*
X33601161Y-49500582D01*
X33485908Y-50080000D01*
X33601161Y-50659418D01*
X33929375Y-51150625D01*
X34227761Y-51350000D01*
X33929375Y-51549375D01*
X33601161Y-52040582D01*
X33485908Y-52620000D01*
X33601161Y-53199418D01*
X33929375Y-53690625D01*
X34227761Y-53890000D01*
X33929375Y-54089375D01*
X33601161Y-54580582D01*
X33485908Y-55160000D01*
X33601161Y-55739418D01*
X33929375Y-56230625D01*
X34227761Y-56430000D01*
X33929375Y-56629375D01*
X33601161Y-57120582D01*
X33485908Y-57700000D01*
X33601161Y-58279418D01*
X33929375Y-58770625D01*
X34227761Y-58970000D01*
X33929375Y-59169375D01*
X33601161Y-59660582D01*
X33485908Y-60240000D01*
X33601161Y-60819418D01*
X33929375Y-61310625D01*
X34227761Y-61510000D01*
X33929375Y-61709375D01*
X33601161Y-62200582D01*
X33485908Y-62780000D01*
X33601161Y-63359418D01*
X33929375Y-63850625D01*
X34420582Y-64178839D01*
X34853744Y-64265000D01*
X35146256Y-64265000D01*
X35579418Y-64178839D01*
X36070625Y-63850625D01*
X36398839Y-63359418D01*
X36514092Y-62780000D01*
X36398839Y-62200582D01*
X36180295Y-61873508D01*
X37568473Y-60485331D01*
X37631929Y-60442931D01*
X37799904Y-60191539D01*
X37844000Y-59969854D01*
X37844000Y-59969850D01*
X37858888Y-59895003D01*
X37844000Y-59820156D01*
X37844000Y-58164000D01*
X48057563Y-58164000D01*
X48132410Y-58178888D01*
X48207257Y-58164000D01*
X48207262Y-58164000D01*
X48428947Y-58119904D01*
X48680339Y-57951929D01*
X48722741Y-57888470D01*
X50570172Y-56041039D01*
X50670318Y-56021119D01*
X50715530Y-56051329D01*
X51337245Y-56673044D01*
X51192569Y-56817720D01*
X51035000Y-57198126D01*
X51035000Y-57348096D01*
X51020072Y-57358071D01*
X50977672Y-57421527D01*
X50977671Y-57421528D01*
X50852097Y-57609463D01*
X50793112Y-57906000D01*
X50808001Y-57980852D01*
X50808001Y-58575646D01*
X50558414Y-58742414D01*
X50363874Y-59033565D01*
X50295560Y-59377000D01*
X50295560Y-61527000D01*
X50363874Y-61870435D01*
X50414899Y-61946799D01*
X49990388Y-62371310D01*
X49904374Y-62163652D01*
X49931327Y-62136699D01*
X50028000Y-61903310D01*
X50028000Y-60737750D01*
X49869250Y-60579000D01*
X48895000Y-60579000D01*
X48895000Y-60599000D01*
X48641000Y-60599000D01*
X48641000Y-60579000D01*
X48621000Y-60579000D01*
X48621000Y-60325000D01*
X48641000Y-60325000D01*
X48641000Y-58650750D01*
X48895000Y-58650750D01*
X48895000Y-60325000D01*
X49869250Y-60325000D01*
X50028000Y-60166250D01*
X50028000Y-59000690D01*
X49931327Y-58767301D01*
X49752698Y-58588673D01*
X49519309Y-58492000D01*
X49053750Y-58492000D01*
X48895000Y-58650750D01*
X48641000Y-58650750D01*
X48482250Y-58492000D01*
X48016691Y-58492000D01*
X47783302Y-58588673D01*
X47604673Y-58767301D01*
X47508000Y-59000690D01*
X47508000Y-59252289D01*
X47344933Y-59089222D01*
X46964527Y-58931653D01*
X46552779Y-58931653D01*
X46172373Y-59089222D01*
X45881222Y-59380373D01*
X45723653Y-59760779D01*
X45723653Y-60160149D01*
X45707112Y-60243306D01*
X45722001Y-60318157D01*
X45722001Y-60542395D01*
X45575071Y-60762290D01*
X45514560Y-61066500D01*
X45514560Y-61361500D01*
X45575071Y-61665710D01*
X45597315Y-61699000D01*
X45575071Y-61732290D01*
X45514560Y-62036500D01*
X45514560Y-62331500D01*
X45553735Y-62528445D01*
X45447000Y-62786126D01*
X45447000Y-63197874D01*
X45604569Y-63578280D01*
X45895720Y-63869431D01*
X46201555Y-63996112D01*
X46178000Y-64052979D01*
X46178000Y-64594021D01*
X46385048Y-65093878D01*
X46717230Y-65426060D01*
X46597096Y-65426060D01*
X46538000Y-65414305D01*
X46056128Y-65510156D01*
X45647616Y-65783115D01*
X45374656Y-66191627D01*
X45303000Y-66551864D01*
X45303000Y-67495135D01*
X45372593Y-67845000D01*
X35610447Y-67845000D01*
X35368911Y-67603465D01*
X35368909Y-67603462D01*
X33247000Y-65481554D01*
X33247000Y-31798126D01*
X35287000Y-31798126D01*
X35287000Y-32209874D01*
X35433539Y-32563651D01*
X35415071Y-32591290D01*
X35354560Y-32895500D01*
X35354560Y-33190500D01*
X35415071Y-33494710D01*
X35437315Y-33528000D01*
X35415071Y-33561290D01*
X35354560Y-33865500D01*
X35354560Y-34160500D01*
X35415071Y-34464710D01*
X35587393Y-34722607D01*
X35845290Y-34894929D01*
X36149500Y-34955440D01*
X36494500Y-34955440D01*
X36798710Y-34894929D01*
X37056607Y-34722607D01*
X37131849Y-34610000D01*
X38484560Y-34610000D01*
X38484560Y-36100000D01*
X38533843Y-36347765D01*
X38674191Y-36557809D01*
X38884235Y-36698157D01*
X39132000Y-36747440D01*
X39372001Y-36747440D01*
X39372001Y-37396288D01*
X39254569Y-37513720D01*
X39097000Y-37894126D01*
X39097000Y-38305874D01*
X39254569Y-38686280D01*
X39545720Y-38977431D01*
X39926126Y-39135000D01*
X40337874Y-39135000D01*
X40718280Y-38977431D01*
X41009431Y-38686280D01*
X41167000Y-38305874D01*
X41167000Y-37894126D01*
X41009431Y-37513720D01*
X40892000Y-37396289D01*
X40892000Y-36747440D01*
X41132000Y-36747440D01*
X41379765Y-36698157D01*
X41589809Y-36557809D01*
X41730157Y-36347765D01*
X41779440Y-36100000D01*
X41779440Y-31600000D01*
X41730157Y-31352235D01*
X41589809Y-31142191D01*
X41379765Y-31001843D01*
X41132000Y-30952560D01*
X39132000Y-30952560D01*
X38884235Y-31001843D01*
X38674191Y-31142191D01*
X38533843Y-31352235D01*
X38484560Y-31600000D01*
X38484560Y-33090000D01*
X37289440Y-33090000D01*
X37289440Y-32895500D01*
X37228929Y-32591290D01*
X37210461Y-32563651D01*
X37357000Y-32209874D01*
X37357000Y-31798126D01*
X37199431Y-31417720D01*
X36908280Y-31126569D01*
X36527874Y-30969000D01*
X36116126Y-30969000D01*
X35735720Y-31126569D01*
X35444569Y-31417720D01*
X35287000Y-31798126D01*
X33247000Y-31798126D01*
X33247000Y-30199000D01*
X66829000Y-30199000D01*
X66829000Y-30298387D01*
X66829000Y-30298387D01*
G37*
X66829000Y-30298387D02*
X66829001Y-30298392D01*
X66829001Y-34017000D01*
X66596126Y-34017000D01*
X66215720Y-34174569D01*
X66153729Y-34236560D01*
X64776000Y-34236560D01*
X64528235Y-34285843D01*
X64318191Y-34426191D01*
X64177843Y-34636235D01*
X64128560Y-34884000D01*
X64128560Y-36284000D01*
X64177843Y-36531765D01*
X64318191Y-36741809D01*
X64528235Y-36882157D01*
X64776000Y-36931440D01*
X66376000Y-36931440D01*
X66623765Y-36882157D01*
X66829001Y-36745022D01*
X66829001Y-37422978D01*
X66623765Y-37285843D01*
X66376000Y-37236560D01*
X64776000Y-37236560D01*
X64528235Y-37285843D01*
X64318191Y-37426191D01*
X64218747Y-37575018D01*
X64213874Y-37573000D01*
X63802126Y-37573000D01*
X63421720Y-37730569D01*
X63130569Y-38021720D01*
X62973000Y-38402126D01*
X62973000Y-38813874D01*
X63130569Y-39194280D01*
X63421720Y-39485431D01*
X63802126Y-39643000D01*
X64213874Y-39643000D01*
X64243867Y-39630576D01*
X64318191Y-39741809D01*
X64528235Y-39882157D01*
X64776000Y-39931440D01*
X66376000Y-39931440D01*
X66623765Y-39882157D01*
X66829001Y-39745022D01*
X66829000Y-65227553D01*
X64211554Y-67845000D01*
X54703407Y-67845000D01*
X54773000Y-67495135D01*
X54773000Y-66551864D01*
X54701344Y-66191627D01*
X54428385Y-65783115D01*
X54019872Y-65510156D01*
X53538000Y-65414305D01*
X53478904Y-65426060D01*
X53358770Y-65426060D01*
X53690952Y-65093878D01*
X53898000Y-64594021D01*
X53898000Y-64052979D01*
X53690952Y-63553122D01*
X53308378Y-63170548D01*
X52816971Y-62967000D01*
X52934811Y-62967000D01*
X53117290Y-63088929D01*
X53421500Y-63149440D01*
X53766500Y-63149440D01*
X54070710Y-63088929D01*
X54328607Y-62916607D01*
X54500929Y-62658710D01*
X54561440Y-62354500D01*
X54561440Y-62059500D01*
X54500929Y-61755290D01*
X54478685Y-61722000D01*
X54500929Y-61688710D01*
X54561440Y-61384500D01*
X54561440Y-61089500D01*
X54500929Y-60785290D01*
X54354000Y-60565396D01*
X54354000Y-60272846D01*
X54368888Y-60197999D01*
X54364404Y-60175456D01*
X54375000Y-60149874D01*
X54375000Y-59738126D01*
X54293828Y-59542158D01*
X54484170Y-59580020D01*
X54484174Y-59580020D01*
X54559021Y-59594908D01*
X54633868Y-59580020D01*
X61978001Y-59580020D01*
X61978000Y-61763153D01*
X61963112Y-61838000D01*
X61978000Y-61912847D01*
X61978000Y-61912851D01*
X62022096Y-62134536D01*
X62190071Y-62385929D01*
X62253530Y-62428331D01*
X63309671Y-63484473D01*
X63352071Y-63547929D01*
X63502560Y-63648483D01*
X63502560Y-63850000D01*
X63551843Y-64097765D01*
X63692191Y-64307809D01*
X63902235Y-64448157D01*
X64150000Y-64497440D01*
X65850000Y-64497440D01*
X66097765Y-64448157D01*
X66307809Y-64307809D01*
X66448157Y-64097765D01*
X66497440Y-63850000D01*
X66497440Y-62150000D01*
X66448157Y-61902235D01*
X66307809Y-61692191D01*
X66097765Y-61551843D01*
X66052381Y-61542816D01*
X66070625Y-61530625D01*
X66398839Y-61039418D01*
X66514092Y-60460000D01*
X66398839Y-59880582D01*
X66070625Y-59389375D01*
X65772239Y-59190000D01*
X66070625Y-58990625D01*
X66398839Y-58499418D01*
X66514092Y-57920000D01*
X66398839Y-57340582D01*
X66070625Y-56849375D01*
X65772239Y-56650000D01*
X66070625Y-56450625D01*
X66398839Y-55959418D01*
X66514092Y-55380000D01*
X66398839Y-54800582D01*
X66070625Y-54309375D01*
X65772239Y-54110000D01*
X66070625Y-53910625D01*
X66398839Y-53419418D01*
X66514092Y-52840000D01*
X66398839Y-52260582D01*
X66070625Y-51769375D01*
X65772239Y-51570000D01*
X66070625Y-51370625D01*
X66398839Y-50879418D01*
X66514092Y-50300000D01*
X66398839Y-49720582D01*
X66070625Y-49229375D01*
X65772239Y-49030000D01*
X66070625Y-48830625D01*
X66398839Y-48339418D01*
X66514092Y-47760000D01*
X66398839Y-47180582D01*
X66070625Y-46689375D01*
X65772239Y-46490000D01*
X66070625Y-46290625D01*
X66398839Y-45799418D01*
X66514092Y-45220000D01*
X66398839Y-44640582D01*
X66070625Y-44149375D01*
X65579418Y-43821161D01*
X65146256Y-43735000D01*
X64853744Y-43735000D01*
X64420582Y-43821161D01*
X63929375Y-44149375D01*
X63721631Y-44460286D01*
X63501382Y-44504096D01*
X63501380Y-44504097D01*
X63501381Y-44504097D01*
X63313445Y-44629671D01*
X63313443Y-44629673D01*
X63249990Y-44672071D01*
X63207592Y-44735524D01*
X63194317Y-44748799D01*
X63136929Y-44460290D01*
X63114685Y-44427000D01*
X63136929Y-44393710D01*
X63197440Y-44089500D01*
X63197440Y-43794500D01*
X63136929Y-43490290D01*
X62990000Y-43270396D01*
X62990000Y-43254846D01*
X63004888Y-43179999D01*
X63000404Y-43157456D01*
X63011000Y-43131874D01*
X63011000Y-42720126D01*
X62853431Y-42339720D01*
X62562280Y-42048569D01*
X62181874Y-41891000D01*
X61770126Y-41891000D01*
X61389720Y-42048569D01*
X61098569Y-42339720D01*
X60941000Y-42720126D01*
X60941000Y-42942598D01*
X60654250Y-42885560D01*
X59741750Y-42885560D01*
X59400706Y-42953398D01*
X59136000Y-43130270D01*
X59136000Y-40250848D01*
X59150888Y-40176000D01*
X59136000Y-40101152D01*
X59136000Y-39931440D01*
X59176000Y-39931440D01*
X59423765Y-39882157D01*
X59633809Y-39741809D01*
X59708133Y-39630576D01*
X59738126Y-39643000D01*
X60149874Y-39643000D01*
X60530280Y-39485431D01*
X60821431Y-39194280D01*
X60979000Y-38813874D01*
X60979000Y-38402126D01*
X60821431Y-38021720D01*
X60530280Y-37730569D01*
X60149874Y-37573000D01*
X59738126Y-37573000D01*
X59733253Y-37575018D01*
X59633809Y-37426191D01*
X59423765Y-37285843D01*
X59176000Y-37236560D01*
X57576000Y-37236560D01*
X57328235Y-37285843D01*
X57118191Y-37426191D01*
X56977843Y-37636235D01*
X56928560Y-37884000D01*
X56928560Y-39284000D01*
X56977843Y-39531765D01*
X57118191Y-39741809D01*
X57328235Y-39882157D01*
X57550776Y-39926423D01*
X56026639Y-41450560D01*
X55986500Y-41450560D01*
X55695175Y-41508508D01*
X55585309Y-41463000D01*
X55449750Y-41463000D01*
X55291000Y-41621750D01*
X55291000Y-41883029D01*
X55252071Y-41941290D01*
X55191560Y-42245500D01*
X55191560Y-42590500D01*
X55252071Y-42894710D01*
X55291000Y-42952971D01*
X55291000Y-43214250D01*
X55449750Y-43373000D01*
X55585309Y-43373000D01*
X55695175Y-43327492D01*
X55986500Y-43385440D01*
X56281500Y-43385440D01*
X56585710Y-43324929D01*
X56843607Y-43152607D01*
X57015929Y-42894710D01*
X57076440Y-42590500D01*
X57076440Y-42550361D01*
X57616000Y-42010801D01*
X57616000Y-43809198D01*
X55131440Y-46293759D01*
X55050000Y-46277560D01*
X53722440Y-46277560D01*
X53722440Y-44950000D01*
X53673157Y-44702235D01*
X53560000Y-44532885D01*
X53560000Y-42703750D01*
X54234000Y-42703750D01*
X54234000Y-42864310D01*
X54330673Y-43097699D01*
X54509302Y-43276327D01*
X54742691Y-43373000D01*
X54878250Y-43373000D01*
X55037000Y-43214250D01*
X55037000Y-42545000D01*
X54392750Y-42545000D01*
X54234000Y-42703750D01*
X53560000Y-42703750D01*
X53560000Y-42332437D01*
X53574888Y-42257590D01*
X53560000Y-42182743D01*
X53560000Y-42182738D01*
X53518020Y-41971690D01*
X54234000Y-41971690D01*
X54234000Y-42132250D01*
X54392750Y-42291000D01*
X55037000Y-42291000D01*
X55037000Y-41621750D01*
X54878250Y-41463000D01*
X54742691Y-41463000D01*
X54509302Y-41559673D01*
X54330673Y-41738301D01*
X54234000Y-41971690D01*
X53518020Y-41971690D01*
X53515904Y-41961053D01*
X53347929Y-41709661D01*
X53284473Y-41667261D01*
X51814000Y-40196789D01*
X51814000Y-39886178D01*
X52124625Y-39678625D01*
X52324000Y-39380239D01*
X52523375Y-39678625D01*
X53014582Y-40006839D01*
X53447744Y-40093000D01*
X53740256Y-40093000D01*
X54173418Y-40006839D01*
X54664625Y-39678625D01*
X54992839Y-39187418D01*
X55108092Y-38608000D01*
X54992839Y-38028582D01*
X54664625Y-37537375D01*
X54173418Y-37209161D01*
X53740256Y-37123000D01*
X53447744Y-37123000D01*
X53014582Y-37209161D01*
X52523375Y-37537375D01*
X52324000Y-37835761D01*
X52124625Y-37537375D01*
X51633418Y-37209161D01*
X51200256Y-37123000D01*
X50907744Y-37123000D01*
X50474582Y-37209161D01*
X49983375Y-37537375D01*
X49784000Y-37835761D01*
X49584625Y-37537375D01*
X49093418Y-37209161D01*
X48660256Y-37123000D01*
X48367744Y-37123000D01*
X48098999Y-37176457D01*
X48098999Y-35354126D01*
X55607000Y-35354126D01*
X55607000Y-35765874D01*
X55764569Y-36146280D01*
X56055720Y-36437431D01*
X56436126Y-36595000D01*
X56847874Y-36595000D01*
X56982762Y-36539127D01*
X57118191Y-36741809D01*
X57328235Y-36882157D01*
X57576000Y-36931440D01*
X59176000Y-36931440D01*
X59423765Y-36882157D01*
X59633809Y-36741809D01*
X59774157Y-36531765D01*
X59823440Y-36284000D01*
X59823440Y-34884000D01*
X59774157Y-34636235D01*
X59633809Y-34426191D01*
X59423765Y-34285843D01*
X59176000Y-34236560D01*
X57576000Y-34236560D01*
X57328235Y-34285843D01*
X57118191Y-34426191D01*
X57007883Y-34591278D01*
X56847874Y-34525000D01*
X56436126Y-34525000D01*
X56055720Y-34682569D01*
X55764569Y-34973720D01*
X55607000Y-35354126D01*
X48098999Y-35354126D01*
X48098999Y-35300345D01*
X48113887Y-35225498D01*
X48098999Y-35150651D01*
X48098999Y-35150647D01*
X48054903Y-34928962D01*
X47886928Y-34677570D01*
X47823471Y-34635170D01*
X47550068Y-34361766D01*
X47538440Y-34350138D01*
X47538440Y-33833750D01*
X47470602Y-33492706D01*
X47277416Y-33203584D01*
X46988294Y-33010398D01*
X46647250Y-32942560D01*
X46159750Y-32942560D01*
X45818706Y-33010398D01*
X45529584Y-33203584D01*
X45466000Y-33298744D01*
X45402416Y-33203584D01*
X45288500Y-33127467D01*
X45288500Y-32665346D01*
X45303388Y-32590499D01*
X45288500Y-32515652D01*
X45288500Y-32515648D01*
X45244404Y-32293963D01*
X45231000Y-32273903D01*
X45231000Y-32052126D01*
X45073431Y-31671720D01*
X44782280Y-31380569D01*
X44401874Y-31223000D01*
X43990126Y-31223000D01*
X43609720Y-31380569D01*
X43318569Y-31671720D01*
X43161000Y-32052126D01*
X43161000Y-32463874D01*
X43318569Y-32844280D01*
X43609720Y-33135431D01*
X43700380Y-33172984D01*
X43654584Y-33203584D01*
X43461398Y-33492706D01*
X43393560Y-33833750D01*
X43393560Y-34746250D01*
X43461398Y-35087294D01*
X43654584Y-35376416D01*
X43943706Y-35569602D01*
X44284750Y-35637440D01*
X44772250Y-35637440D01*
X45113294Y-35569602D01*
X45402416Y-35376416D01*
X45466000Y-35281256D01*
X45529584Y-35376416D01*
X45818706Y-35569602D01*
X46159750Y-35637440D01*
X46579000Y-35637440D01*
X46579000Y-37110560D01*
X45124000Y-37110560D01*
X44876235Y-37159843D01*
X44666191Y-37300191D01*
X44525843Y-37510235D01*
X44476560Y-37758000D01*
X44476560Y-39458000D01*
X44525843Y-39705765D01*
X44666191Y-39915809D01*
X44876235Y-40056157D01*
X45124000Y-40105440D01*
X46578999Y-40105440D01*
X46578999Y-40484652D01*
X46564111Y-40559499D01*
X46578999Y-40634346D01*
X46578999Y-40634350D01*
X46623095Y-40856035D01*
X46791070Y-41107428D01*
X46854529Y-41149830D01*
X48357699Y-42653000D01*
X48054126Y-42653000D01*
X47673720Y-42810569D01*
X47382569Y-43101720D01*
X47225000Y-43482126D01*
X47225000Y-43893874D01*
X47382569Y-44274280D01*
X47454520Y-44346231D01*
X47405889Y-44394861D01*
X47365301Y-44411673D01*
X47186673Y-44590302D01*
X47090000Y-44823691D01*
X47090000Y-45464250D01*
X47248750Y-45623000D01*
X47347000Y-45623000D01*
X47347000Y-45877000D01*
X47248750Y-45877000D01*
X47090000Y-46035750D01*
X47090000Y-46590198D01*
X47073000Y-46564755D01*
X47073000Y-45877000D01*
X46448750Y-45877000D01*
X46290000Y-46035750D01*
X46290000Y-46277560D01*
X45377362Y-46277560D01*
X44723000Y-45623199D01*
X44723000Y-45514126D01*
X44565431Y-45133720D01*
X44274280Y-44842569D01*
X44228705Y-44823691D01*
X46290000Y-44823691D01*
X46290000Y-45464250D01*
X46448750Y-45623000D01*
X47073000Y-45623000D01*
X47073000Y-44473750D01*
X46914250Y-44315000D01*
X46798690Y-44315000D01*
X46565301Y-44411673D01*
X46386673Y-44590302D01*
X46290000Y-44823691D01*
X44228705Y-44823691D01*
X43893874Y-44685000D01*
X43482126Y-44685000D01*
X43101720Y-44842569D01*
X42810569Y-45133720D01*
X42790053Y-45183251D01*
X41779440Y-44172639D01*
X41779440Y-40100000D01*
X41730157Y-39852235D01*
X41589809Y-39642191D01*
X41379765Y-39501843D01*
X41132000Y-39452560D01*
X39132000Y-39452560D01*
X38884235Y-39501843D01*
X38674191Y-39642191D01*
X38533843Y-39852235D01*
X38484560Y-40100000D01*
X38484560Y-41590000D01*
X38115802Y-41590000D01*
X37543440Y-41017639D01*
X37543440Y-40977500D01*
X37482929Y-40673290D01*
X37460685Y-40640000D01*
X37482929Y-40606710D01*
X37543440Y-40302500D01*
X37543440Y-40007500D01*
X37482929Y-39703290D01*
X37464461Y-39675651D01*
X37611000Y-39321874D01*
X37611000Y-38910126D01*
X37453431Y-38529720D01*
X37162280Y-38238569D01*
X36781874Y-38081000D01*
X36370126Y-38081000D01*
X35989720Y-38238569D01*
X35698569Y-38529720D01*
X35541000Y-38910126D01*
X35541000Y-39321874D01*
X35687539Y-39675651D01*
X35669071Y-39703290D01*
X35608560Y-40007500D01*
X35608560Y-40302500D01*
X35669071Y-40606710D01*
X35691315Y-40640000D01*
X35669071Y-40673290D01*
X35608560Y-40977500D01*
X35608560Y-41272500D01*
X35669071Y-41576710D01*
X35841393Y-41834607D01*
X36099290Y-42006929D01*
X36403500Y-42067440D01*
X36443639Y-42067440D01*
X37210670Y-42834472D01*
X37253071Y-42897929D01*
X37504463Y-43065904D01*
X37726148Y-43110000D01*
X37726152Y-43110000D01*
X37801000Y-43124888D01*
X37875848Y-43110000D01*
X38484560Y-43110000D01*
X38484560Y-44600000D01*
X38533843Y-44847765D01*
X38674191Y-45057809D01*
X38884235Y-45198157D01*
X39132000Y-45247440D01*
X40704639Y-45247440D01*
X41954744Y-46497545D01*
X41833916Y-46618373D01*
X41676347Y-46998779D01*
X41676347Y-47410527D01*
X41833916Y-47790933D01*
X42125067Y-48082084D01*
X42505473Y-48239653D01*
X42671545Y-48239653D01*
X43716367Y-49284476D01*
X43758765Y-49347929D01*
X43822218Y-49390327D01*
X43822220Y-49390329D01*
X43945947Y-49473000D01*
X44010157Y-49515904D01*
X44231842Y-49560000D01*
X44231846Y-49560000D01*
X44306693Y-49574888D01*
X44381540Y-49560000D01*
X44532885Y-49560000D01*
X44592749Y-49600000D01*
X44532885Y-49640000D01*
X43554711Y-49640000D01*
X43512280Y-49597569D01*
X43131874Y-49440000D01*
X42720126Y-49440000D01*
X42339720Y-49597569D01*
X42056045Y-49881244D01*
X36690331Y-44515530D01*
X36647929Y-44452071D01*
X36497440Y-44351517D01*
X36497440Y-44150000D01*
X36448157Y-43902235D01*
X36307809Y-43692191D01*
X36097765Y-43551843D01*
X35850000Y-43502560D01*
X34150000Y-43502560D01*
X33902235Y-43551843D01*
X33692191Y-43692191D01*
X33551843Y-43902235D01*
X33502560Y-44150000D01*
X33502560Y-45850000D01*
X33551843Y-46097765D01*
X33692191Y-46307809D01*
X33902235Y-46448157D01*
X33947619Y-46457184D01*
X33929375Y-46469375D01*
X33601161Y-46960582D01*
X33485908Y-47540000D01*
X33601161Y-48119418D01*
X33929375Y-48610625D01*
X34227761Y-48810000D01*
X33929375Y-49009375D01*
X33601161Y-49500582D01*
X33485908Y-50080000D01*
X33601161Y-50659418D01*
X33929375Y-51150625D01*
X34227761Y-51350000D01*
X33929375Y-51549375D01*
X33601161Y-52040582D01*
X33485908Y-52620000D01*
X33601161Y-53199418D01*
X33929375Y-53690625D01*
X34227761Y-53890000D01*
X33929375Y-54089375D01*
X33601161Y-54580582D01*
X33485908Y-55160000D01*
X33601161Y-55739418D01*
X33929375Y-56230625D01*
X34227761Y-56430000D01*
X33929375Y-56629375D01*
X33601161Y-57120582D01*
X33485908Y-57700000D01*
X33601161Y-58279418D01*
X33929375Y-58770625D01*
X34227761Y-58970000D01*
X33929375Y-59169375D01*
X33601161Y-59660582D01*
X33485908Y-60240000D01*
X33601161Y-60819418D01*
X33929375Y-61310625D01*
X34227761Y-61510000D01*
X33929375Y-61709375D01*
X33601161Y-62200582D01*
X33485908Y-62780000D01*
X33601161Y-63359418D01*
X33929375Y-63850625D01*
X34420582Y-64178839D01*
X34853744Y-64265000D01*
X35146256Y-64265000D01*
X35579418Y-64178839D01*
X36070625Y-63850625D01*
X36398839Y-63359418D01*
X36514092Y-62780000D01*
X36398839Y-62200582D01*
X36180295Y-61873508D01*
X37568473Y-60485331D01*
X37631929Y-60442931D01*
X37799904Y-60191539D01*
X37844000Y-59969854D01*
X37844000Y-59969850D01*
X37858888Y-59895003D01*
X37844000Y-59820156D01*
X37844000Y-58164000D01*
X48057563Y-58164000D01*
X48132410Y-58178888D01*
X48207257Y-58164000D01*
X48207262Y-58164000D01*
X48428947Y-58119904D01*
X48680339Y-57951929D01*
X48722741Y-57888470D01*
X50570172Y-56041039D01*
X50670318Y-56021119D01*
X50715530Y-56051329D01*
X51337245Y-56673044D01*
X51192569Y-56817720D01*
X51035000Y-57198126D01*
X51035000Y-57348096D01*
X51020072Y-57358071D01*
X50977672Y-57421527D01*
X50977671Y-57421528D01*
X50852097Y-57609463D01*
X50793112Y-57906000D01*
X50808001Y-57980852D01*
X50808001Y-58575646D01*
X50558414Y-58742414D01*
X50363874Y-59033565D01*
X50295560Y-59377000D01*
X50295560Y-61527000D01*
X50363874Y-61870435D01*
X50414899Y-61946799D01*
X49990388Y-62371310D01*
X49904374Y-62163652D01*
X49931327Y-62136699D01*
X50028000Y-61903310D01*
X50028000Y-60737750D01*
X49869250Y-60579000D01*
X48895000Y-60579000D01*
X48895000Y-60599000D01*
X48641000Y-60599000D01*
X48641000Y-60579000D01*
X48621000Y-60579000D01*
X48621000Y-60325000D01*
X48641000Y-60325000D01*
X48641000Y-58650750D01*
X48895000Y-58650750D01*
X48895000Y-60325000D01*
X49869250Y-60325000D01*
X50028000Y-60166250D01*
X50028000Y-59000690D01*
X49931327Y-58767301D01*
X49752698Y-58588673D01*
X49519309Y-58492000D01*
X49053750Y-58492000D01*
X48895000Y-58650750D01*
X48641000Y-58650750D01*
X48482250Y-58492000D01*
X48016691Y-58492000D01*
X47783302Y-58588673D01*
X47604673Y-58767301D01*
X47508000Y-59000690D01*
X47508000Y-59252289D01*
X47344933Y-59089222D01*
X46964527Y-58931653D01*
X46552779Y-58931653D01*
X46172373Y-59089222D01*
X45881222Y-59380373D01*
X45723653Y-59760779D01*
X45723653Y-60160149D01*
X45707112Y-60243306D01*
X45722001Y-60318157D01*
X45722001Y-60542395D01*
X45575071Y-60762290D01*
X45514560Y-61066500D01*
X45514560Y-61361500D01*
X45575071Y-61665710D01*
X45597315Y-61699000D01*
X45575071Y-61732290D01*
X45514560Y-62036500D01*
X45514560Y-62331500D01*
X45553735Y-62528445D01*
X45447000Y-62786126D01*
X45447000Y-63197874D01*
X45604569Y-63578280D01*
X45895720Y-63869431D01*
X46201555Y-63996112D01*
X46178000Y-64052979D01*
X46178000Y-64594021D01*
X46385048Y-65093878D01*
X46717230Y-65426060D01*
X46597096Y-65426060D01*
X46538000Y-65414305D01*
X46056128Y-65510156D01*
X45647616Y-65783115D01*
X45374656Y-66191627D01*
X45303000Y-66551864D01*
X45303000Y-67495135D01*
X45372593Y-67845000D01*
X35610447Y-67845000D01*
X35368911Y-67603465D01*
X35368909Y-67603462D01*
X33247000Y-65481554D01*
X33247000Y-31798126D01*
X35287000Y-31798126D01*
X35287000Y-32209874D01*
X35433539Y-32563651D01*
X35415071Y-32591290D01*
X35354560Y-32895500D01*
X35354560Y-33190500D01*
X35415071Y-33494710D01*
X35437315Y-33528000D01*
X35415071Y-33561290D01*
X35354560Y-33865500D01*
X35354560Y-34160500D01*
X35415071Y-34464710D01*
X35587393Y-34722607D01*
X35845290Y-34894929D01*
X36149500Y-34955440D01*
X36494500Y-34955440D01*
X36798710Y-34894929D01*
X37056607Y-34722607D01*
X37131849Y-34610000D01*
X38484560Y-34610000D01*
X38484560Y-36100000D01*
X38533843Y-36347765D01*
X38674191Y-36557809D01*
X38884235Y-36698157D01*
X39132000Y-36747440D01*
X39372001Y-36747440D01*
X39372001Y-37396288D01*
X39254569Y-37513720D01*
X39097000Y-37894126D01*
X39097000Y-38305874D01*
X39254569Y-38686280D01*
X39545720Y-38977431D01*
X39926126Y-39135000D01*
X40337874Y-39135000D01*
X40718280Y-38977431D01*
X41009431Y-38686280D01*
X41167000Y-38305874D01*
X41167000Y-37894126D01*
X41009431Y-37513720D01*
X40892000Y-37396289D01*
X40892000Y-36747440D01*
X41132000Y-36747440D01*
X41379765Y-36698157D01*
X41589809Y-36557809D01*
X41730157Y-36347765D01*
X41779440Y-36100000D01*
X41779440Y-31600000D01*
X41730157Y-31352235D01*
X41589809Y-31142191D01*
X41379765Y-31001843D01*
X41132000Y-30952560D01*
X39132000Y-30952560D01*
X38884235Y-31001843D01*
X38674191Y-31142191D01*
X38533843Y-31352235D01*
X38484560Y-31600000D01*
X38484560Y-33090000D01*
X37289440Y-33090000D01*
X37289440Y-32895500D01*
X37228929Y-32591290D01*
X37210461Y-32563651D01*
X37357000Y-32209874D01*
X37357000Y-31798126D01*
X37199431Y-31417720D01*
X36908280Y-31126569D01*
X36527874Y-30969000D01*
X36116126Y-30969000D01*
X35735720Y-31126569D01*
X35444569Y-31417720D01*
X35287000Y-31798126D01*
X33247000Y-31798126D01*
X33247000Y-30199000D01*
X66829000Y-30199000D01*
X66829000Y-30298387D01*
G36*
X47508000Y-60737750D02*
X47508000Y-61903310D01*
X47604673Y-62136699D01*
X47783302Y-62315327D01*
X48016691Y-62412000D01*
X48036758Y-62412000D01*
X47987000Y-62532126D01*
X47987000Y-62943874D01*
X48033777Y-63056804D01*
X47808521Y-62963500D01*
X47517000Y-62963500D01*
X47517000Y-62786126D01*
X47410265Y-62528445D01*
X47449440Y-62331500D01*
X47449440Y-62036500D01*
X47388929Y-61732290D01*
X47366685Y-61699000D01*
X47388929Y-61665710D01*
X47449440Y-61361500D01*
X47449440Y-61066500D01*
X47395200Y-60793817D01*
X47610015Y-60579002D01*
X47666748Y-60579002D01*
X47508000Y-60737750D01*
X47508000Y-60737750D01*
G37*
X47508000Y-60737750D02*
X47508000Y-61903310D01*
X47604673Y-62136699D01*
X47783302Y-62315327D01*
X48016691Y-62412000D01*
X48036758Y-62412000D01*
X47987000Y-62532126D01*
X47987000Y-62943874D01*
X48033777Y-63056804D01*
X47808521Y-62963500D01*
X47517000Y-62963500D01*
X47517000Y-62786126D01*
X47410265Y-62528445D01*
X47449440Y-62331500D01*
X47449440Y-62036500D01*
X47388929Y-61732290D01*
X47366685Y-61699000D01*
X47388929Y-61665710D01*
X47449440Y-61361500D01*
X47449440Y-61066500D01*
X47395200Y-60793817D01*
X47610015Y-60579002D01*
X47666748Y-60579002D01*
X47508000Y-60737750D01*
G36*
X48067191Y-47007809D02*
X48191862Y-47091112D01*
X48285750Y-47185000D01*
X48401310Y-47185000D01*
X48421148Y-47176783D01*
X48525000Y-47197440D01*
X49075000Y-47197440D01*
X49200000Y-47172576D01*
X49325000Y-47197440D01*
X49875000Y-47197440D01*
X50000000Y-47172576D01*
X50125000Y-47197440D01*
X50675000Y-47197440D01*
X50800000Y-47172576D01*
X50925000Y-47197440D01*
X51475000Y-47197440D01*
X51600000Y-47172576D01*
X51725000Y-47197440D01*
X52275000Y-47197440D01*
X52400000Y-47172576D01*
X52525000Y-47197440D01*
X52802560Y-47197440D01*
X52802560Y-47475000D01*
X52827424Y-47600000D01*
X52802560Y-47725000D01*
X52802560Y-48275000D01*
X52827424Y-48400000D01*
X52802560Y-48525000D01*
X52802560Y-49075000D01*
X52827424Y-49200000D01*
X52802560Y-49325000D01*
X52802560Y-49875000D01*
X52827424Y-50000000D01*
X52802560Y-50125000D01*
X52802560Y-50675000D01*
X52827424Y-50800000D01*
X52802560Y-50925000D01*
X52802560Y-51475000D01*
X52827424Y-51600000D01*
X52802560Y-51725000D01*
X52802560Y-52275000D01*
X52827424Y-52400000D01*
X52802560Y-52525000D01*
X52802560Y-52802560D01*
X52525000Y-52802560D01*
X52400000Y-52827424D01*
X52275000Y-52802560D01*
X51725000Y-52802560D01*
X51600000Y-52827424D01*
X51475000Y-52802560D01*
X50925000Y-52802560D01*
X50800000Y-52827424D01*
X50675000Y-52802560D01*
X50125000Y-52802560D01*
X50000000Y-52827424D01*
X49875000Y-52802560D01*
X49325000Y-52802560D01*
X49200000Y-52827424D01*
X49075000Y-52802560D01*
X48525000Y-52802560D01*
X48400000Y-52827424D01*
X48275000Y-52802560D01*
X47725000Y-52802560D01*
X47600000Y-52827424D01*
X47475000Y-52802560D01*
X47197440Y-52802560D01*
X47197440Y-52525000D01*
X47172576Y-52400000D01*
X47197440Y-52275000D01*
X47197440Y-51725000D01*
X47172576Y-51600000D01*
X47197440Y-51475000D01*
X47197440Y-50925000D01*
X47172576Y-50800000D01*
X47197440Y-50675000D01*
X47197440Y-50125000D01*
X47176783Y-50021148D01*
X47185000Y-50001310D01*
X47185000Y-49885750D01*
X47091112Y-49791862D01*
X47007809Y-49667191D01*
X46907251Y-49600000D01*
X47007809Y-49532809D01*
X47091112Y-49408138D01*
X47185000Y-49314250D01*
X47185000Y-49198690D01*
X47176783Y-49178852D01*
X47197440Y-49075000D01*
X47197440Y-48525000D01*
X47172576Y-48400000D01*
X47197440Y-48275000D01*
X47197440Y-47725000D01*
X47172576Y-47600000D01*
X47197440Y-47475000D01*
X47197440Y-46925000D01*
X47196314Y-46919339D01*
X47365301Y-47088327D01*
X47405889Y-47105139D01*
X47485750Y-47185000D01*
X47714250Y-47185000D01*
X47794111Y-47105139D01*
X47834699Y-47088327D01*
X48006318Y-46916707D01*
X48067191Y-47007809D01*
X48067191Y-47007809D01*
G37*
X48067191Y-47007809D02*
X48191862Y-47091112D01*
X48285750Y-47185000D01*
X48401310Y-47185000D01*
X48421148Y-47176783D01*
X48525000Y-47197440D01*
X49075000Y-47197440D01*
X49200000Y-47172576D01*
X49325000Y-47197440D01*
X49875000Y-47197440D01*
X50000000Y-47172576D01*
X50125000Y-47197440D01*
X50675000Y-47197440D01*
X50800000Y-47172576D01*
X50925000Y-47197440D01*
X51475000Y-47197440D01*
X51600000Y-47172576D01*
X51725000Y-47197440D01*
X52275000Y-47197440D01*
X52400000Y-47172576D01*
X52525000Y-47197440D01*
X52802560Y-47197440D01*
X52802560Y-47475000D01*
X52827424Y-47600000D01*
X52802560Y-47725000D01*
X52802560Y-48275000D01*
X52827424Y-48400000D01*
X52802560Y-48525000D01*
X52802560Y-49075000D01*
X52827424Y-49200000D01*
X52802560Y-49325000D01*
X52802560Y-49875000D01*
X52827424Y-50000000D01*
X52802560Y-50125000D01*
X52802560Y-50675000D01*
X52827424Y-50800000D01*
X52802560Y-50925000D01*
X52802560Y-51475000D01*
X52827424Y-51600000D01*
X52802560Y-51725000D01*
X52802560Y-52275000D01*
X52827424Y-52400000D01*
X52802560Y-52525000D01*
X52802560Y-52802560D01*
X52525000Y-52802560D01*
X52400000Y-52827424D01*
X52275000Y-52802560D01*
X51725000Y-52802560D01*
X51600000Y-52827424D01*
X51475000Y-52802560D01*
X50925000Y-52802560D01*
X50800000Y-52827424D01*
X50675000Y-52802560D01*
X50125000Y-52802560D01*
X50000000Y-52827424D01*
X49875000Y-52802560D01*
X49325000Y-52802560D01*
X49200000Y-52827424D01*
X49075000Y-52802560D01*
X48525000Y-52802560D01*
X48400000Y-52827424D01*
X48275000Y-52802560D01*
X47725000Y-52802560D01*
X47600000Y-52827424D01*
X47475000Y-52802560D01*
X47197440Y-52802560D01*
X47197440Y-52525000D01*
X47172576Y-52400000D01*
X47197440Y-52275000D01*
X47197440Y-51725000D01*
X47172576Y-51600000D01*
X47197440Y-51475000D01*
X47197440Y-50925000D01*
X47172576Y-50800000D01*
X47197440Y-50675000D01*
X47197440Y-50125000D01*
X47176783Y-50021148D01*
X47185000Y-50001310D01*
X47185000Y-49885750D01*
X47091112Y-49791862D01*
X47007809Y-49667191D01*
X46907251Y-49600000D01*
X47007809Y-49532809D01*
X47091112Y-49408138D01*
X47185000Y-49314250D01*
X47185000Y-49198690D01*
X47176783Y-49178852D01*
X47197440Y-49075000D01*
X47197440Y-48525000D01*
X47172576Y-48400000D01*
X47197440Y-48275000D01*
X47197440Y-47725000D01*
X47172576Y-47600000D01*
X47197440Y-47475000D01*
X47197440Y-46925000D01*
X47196314Y-46919339D01*
X47365301Y-47088327D01*
X47405889Y-47105139D01*
X47485750Y-47185000D01*
X47714250Y-47185000D01*
X47794111Y-47105139D01*
X47834699Y-47088327D01*
X48006318Y-46916707D01*
X48067191Y-47007809D01*
G04 #@! TD*
M02*
