G04 #@! TF.GenerationSoftware,KiCad,Pcbnew,(5.0.0)*
G04 #@! TF.CreationDate,2018-12-27T13:03:48-05:00*
G04 #@! TF.ProjectId,32u2-breakout,333275322D627265616B6F75742E6B69,rev?*
G04 #@! TF.SameCoordinates,Original*
G04 #@! TF.FileFunction,Soldermask,Top*
G04 #@! TF.FilePolarity,Negative*
%FSLAX46Y46*%
G04 Gerber Fmt 4.6, Leading zero omitted, Abs format (unit mm)*
G04 Created by KiCad (PCBNEW (5.0.0)) date 12/27/18 13:03:48*
%MOMM*%
%LPD*%
G01*
G04 APERTURE LIST*
%ADD10R,2.000000X1.800000*%
%ADD11C,0.100000*%
%ADD12C,0.990000*%
%ADD13C,1.375000*%
%ADD14C,1.650000*%
%ADD15R,2.100000X2.100000*%
%ADD16O,2.100000X2.100000*%
%ADD17R,1.900000X2.300000*%
%ADD18C,1.850000*%
%ADD19R,0.800000X1.750000*%
%ADD20O,1.600000X2.300000*%
%ADD21R,1.600000X2.300000*%
%ADD22R,2.400000X4.900000*%
%ADD23R,2.000000X0.950000*%
%ADD24R,0.950000X2.000000*%
G04 APERTURE END LIST*
D10*
G04 #@! TO.C,SW1*
X58376000Y-38584000D03*
X65576000Y-38584000D03*
X58376000Y-35584000D03*
X65576000Y-35584000D03*
G04 #@! TD*
D11*
G04 #@! TO.C,C2*
G36*
X36618759Y-32549192D02*
X36642785Y-32552756D01*
X36666345Y-32558657D01*
X36689214Y-32566840D01*
X36711171Y-32577224D01*
X36732004Y-32589711D01*
X36751512Y-32604180D01*
X36769509Y-32620491D01*
X36785820Y-32638488D01*
X36800289Y-32657996D01*
X36812776Y-32678829D01*
X36823160Y-32700786D01*
X36831343Y-32723655D01*
X36837244Y-32747215D01*
X36840808Y-32771241D01*
X36842000Y-32795500D01*
X36842000Y-33290500D01*
X36840808Y-33314759D01*
X36837244Y-33338785D01*
X36831343Y-33362345D01*
X36823160Y-33385214D01*
X36812776Y-33407171D01*
X36800289Y-33428004D01*
X36785820Y-33447512D01*
X36769509Y-33465509D01*
X36751512Y-33481820D01*
X36732004Y-33496289D01*
X36711171Y-33508776D01*
X36689214Y-33519160D01*
X36666345Y-33527343D01*
X36642785Y-33533244D01*
X36618759Y-33536808D01*
X36594500Y-33538000D01*
X36049500Y-33538000D01*
X36025241Y-33536808D01*
X36001215Y-33533244D01*
X35977655Y-33527343D01*
X35954786Y-33519160D01*
X35932829Y-33508776D01*
X35911996Y-33496289D01*
X35892488Y-33481820D01*
X35874491Y-33465509D01*
X35858180Y-33447512D01*
X35843711Y-33428004D01*
X35831224Y-33407171D01*
X35820840Y-33385214D01*
X35812657Y-33362345D01*
X35806756Y-33338785D01*
X35803192Y-33314759D01*
X35802000Y-33290500D01*
X35802000Y-32795500D01*
X35803192Y-32771241D01*
X35806756Y-32747215D01*
X35812657Y-32723655D01*
X35820840Y-32700786D01*
X35831224Y-32678829D01*
X35843711Y-32657996D01*
X35858180Y-32638488D01*
X35874491Y-32620491D01*
X35892488Y-32604180D01*
X35911996Y-32589711D01*
X35932829Y-32577224D01*
X35954786Y-32566840D01*
X35977655Y-32558657D01*
X36001215Y-32552756D01*
X36025241Y-32549192D01*
X36049500Y-32548000D01*
X36594500Y-32548000D01*
X36618759Y-32549192D01*
X36618759Y-32549192D01*
G37*
D12*
X36322000Y-33043000D03*
D11*
G36*
X36618759Y-33519192D02*
X36642785Y-33522756D01*
X36666345Y-33528657D01*
X36689214Y-33536840D01*
X36711171Y-33547224D01*
X36732004Y-33559711D01*
X36751512Y-33574180D01*
X36769509Y-33590491D01*
X36785820Y-33608488D01*
X36800289Y-33627996D01*
X36812776Y-33648829D01*
X36823160Y-33670786D01*
X36831343Y-33693655D01*
X36837244Y-33717215D01*
X36840808Y-33741241D01*
X36842000Y-33765500D01*
X36842000Y-34260500D01*
X36840808Y-34284759D01*
X36837244Y-34308785D01*
X36831343Y-34332345D01*
X36823160Y-34355214D01*
X36812776Y-34377171D01*
X36800289Y-34398004D01*
X36785820Y-34417512D01*
X36769509Y-34435509D01*
X36751512Y-34451820D01*
X36732004Y-34466289D01*
X36711171Y-34478776D01*
X36689214Y-34489160D01*
X36666345Y-34497343D01*
X36642785Y-34503244D01*
X36618759Y-34506808D01*
X36594500Y-34508000D01*
X36049500Y-34508000D01*
X36025241Y-34506808D01*
X36001215Y-34503244D01*
X35977655Y-34497343D01*
X35954786Y-34489160D01*
X35932829Y-34478776D01*
X35911996Y-34466289D01*
X35892488Y-34451820D01*
X35874491Y-34435509D01*
X35858180Y-34417512D01*
X35843711Y-34398004D01*
X35831224Y-34377171D01*
X35820840Y-34355214D01*
X35812657Y-34332345D01*
X35806756Y-34308785D01*
X35803192Y-34284759D01*
X35802000Y-34260500D01*
X35802000Y-33765500D01*
X35803192Y-33741241D01*
X35806756Y-33717215D01*
X35812657Y-33693655D01*
X35820840Y-33670786D01*
X35831224Y-33648829D01*
X35843711Y-33627996D01*
X35858180Y-33608488D01*
X35874491Y-33590491D01*
X35892488Y-33574180D01*
X35911996Y-33559711D01*
X35932829Y-33547224D01*
X35954786Y-33536840D01*
X35977655Y-33528657D01*
X36001215Y-33522756D01*
X36025241Y-33519192D01*
X36049500Y-33518000D01*
X36594500Y-33518000D01*
X36618759Y-33519192D01*
X36618759Y-33519192D01*
G37*
D12*
X36322000Y-34013000D03*
G04 #@! TD*
D11*
G04 #@! TO.C,C1*
G36*
X36872759Y-40631192D02*
X36896785Y-40634756D01*
X36920345Y-40640657D01*
X36943214Y-40648840D01*
X36965171Y-40659224D01*
X36986004Y-40671711D01*
X37005512Y-40686180D01*
X37023509Y-40702491D01*
X37039820Y-40720488D01*
X37054289Y-40739996D01*
X37066776Y-40760829D01*
X37077160Y-40782786D01*
X37085343Y-40805655D01*
X37091244Y-40829215D01*
X37094808Y-40853241D01*
X37096000Y-40877500D01*
X37096000Y-41372500D01*
X37094808Y-41396759D01*
X37091244Y-41420785D01*
X37085343Y-41444345D01*
X37077160Y-41467214D01*
X37066776Y-41489171D01*
X37054289Y-41510004D01*
X37039820Y-41529512D01*
X37023509Y-41547509D01*
X37005512Y-41563820D01*
X36986004Y-41578289D01*
X36965171Y-41590776D01*
X36943214Y-41601160D01*
X36920345Y-41609343D01*
X36896785Y-41615244D01*
X36872759Y-41618808D01*
X36848500Y-41620000D01*
X36303500Y-41620000D01*
X36279241Y-41618808D01*
X36255215Y-41615244D01*
X36231655Y-41609343D01*
X36208786Y-41601160D01*
X36186829Y-41590776D01*
X36165996Y-41578289D01*
X36146488Y-41563820D01*
X36128491Y-41547509D01*
X36112180Y-41529512D01*
X36097711Y-41510004D01*
X36085224Y-41489171D01*
X36074840Y-41467214D01*
X36066657Y-41444345D01*
X36060756Y-41420785D01*
X36057192Y-41396759D01*
X36056000Y-41372500D01*
X36056000Y-40877500D01*
X36057192Y-40853241D01*
X36060756Y-40829215D01*
X36066657Y-40805655D01*
X36074840Y-40782786D01*
X36085224Y-40760829D01*
X36097711Y-40739996D01*
X36112180Y-40720488D01*
X36128491Y-40702491D01*
X36146488Y-40686180D01*
X36165996Y-40671711D01*
X36186829Y-40659224D01*
X36208786Y-40648840D01*
X36231655Y-40640657D01*
X36255215Y-40634756D01*
X36279241Y-40631192D01*
X36303500Y-40630000D01*
X36848500Y-40630000D01*
X36872759Y-40631192D01*
X36872759Y-40631192D01*
G37*
D12*
X36576000Y-41125000D03*
D11*
G36*
X36872759Y-39661192D02*
X36896785Y-39664756D01*
X36920345Y-39670657D01*
X36943214Y-39678840D01*
X36965171Y-39689224D01*
X36986004Y-39701711D01*
X37005512Y-39716180D01*
X37023509Y-39732491D01*
X37039820Y-39750488D01*
X37054289Y-39769996D01*
X37066776Y-39790829D01*
X37077160Y-39812786D01*
X37085343Y-39835655D01*
X37091244Y-39859215D01*
X37094808Y-39883241D01*
X37096000Y-39907500D01*
X37096000Y-40402500D01*
X37094808Y-40426759D01*
X37091244Y-40450785D01*
X37085343Y-40474345D01*
X37077160Y-40497214D01*
X37066776Y-40519171D01*
X37054289Y-40540004D01*
X37039820Y-40559512D01*
X37023509Y-40577509D01*
X37005512Y-40593820D01*
X36986004Y-40608289D01*
X36965171Y-40620776D01*
X36943214Y-40631160D01*
X36920345Y-40639343D01*
X36896785Y-40645244D01*
X36872759Y-40648808D01*
X36848500Y-40650000D01*
X36303500Y-40650000D01*
X36279241Y-40648808D01*
X36255215Y-40645244D01*
X36231655Y-40639343D01*
X36208786Y-40631160D01*
X36186829Y-40620776D01*
X36165996Y-40608289D01*
X36146488Y-40593820D01*
X36128491Y-40577509D01*
X36112180Y-40559512D01*
X36097711Y-40540004D01*
X36085224Y-40519171D01*
X36074840Y-40497214D01*
X36066657Y-40474345D01*
X36060756Y-40450785D01*
X36057192Y-40426759D01*
X36056000Y-40402500D01*
X36056000Y-39907500D01*
X36057192Y-39883241D01*
X36060756Y-39859215D01*
X36066657Y-39835655D01*
X36074840Y-39812786D01*
X36085224Y-39790829D01*
X36097711Y-39769996D01*
X36112180Y-39750488D01*
X36128491Y-39732491D01*
X36146488Y-39716180D01*
X36165996Y-39701711D01*
X36186829Y-39689224D01*
X36208786Y-39678840D01*
X36231655Y-39670657D01*
X36255215Y-39664756D01*
X36279241Y-39661192D01*
X36303500Y-39660000D01*
X36848500Y-39660000D01*
X36872759Y-39661192D01*
X36872759Y-39661192D01*
G37*
D12*
X36576000Y-40155000D03*
G04 #@! TD*
D11*
G04 #@! TO.C,C4*
G36*
X46780943Y-33391655D02*
X46814312Y-33396605D01*
X46847035Y-33404802D01*
X46878797Y-33416166D01*
X46909293Y-33430590D01*
X46938227Y-33447932D01*
X46965323Y-33468028D01*
X46990318Y-33490682D01*
X47012972Y-33515677D01*
X47033068Y-33542773D01*
X47050410Y-33571707D01*
X47064834Y-33602203D01*
X47076198Y-33633965D01*
X47084395Y-33666688D01*
X47089345Y-33700057D01*
X47091000Y-33733750D01*
X47091000Y-34846250D01*
X47089345Y-34879943D01*
X47084395Y-34913312D01*
X47076198Y-34946035D01*
X47064834Y-34977797D01*
X47050410Y-35008293D01*
X47033068Y-35037227D01*
X47012972Y-35064323D01*
X46990318Y-35089318D01*
X46965323Y-35111972D01*
X46938227Y-35132068D01*
X46909293Y-35149410D01*
X46878797Y-35163834D01*
X46847035Y-35175198D01*
X46814312Y-35183395D01*
X46780943Y-35188345D01*
X46747250Y-35190000D01*
X46059750Y-35190000D01*
X46026057Y-35188345D01*
X45992688Y-35183395D01*
X45959965Y-35175198D01*
X45928203Y-35163834D01*
X45897707Y-35149410D01*
X45868773Y-35132068D01*
X45841677Y-35111972D01*
X45816682Y-35089318D01*
X45794028Y-35064323D01*
X45773932Y-35037227D01*
X45756590Y-35008293D01*
X45742166Y-34977797D01*
X45730802Y-34946035D01*
X45722605Y-34913312D01*
X45717655Y-34879943D01*
X45716000Y-34846250D01*
X45716000Y-33733750D01*
X45717655Y-33700057D01*
X45722605Y-33666688D01*
X45730802Y-33633965D01*
X45742166Y-33602203D01*
X45756590Y-33571707D01*
X45773932Y-33542773D01*
X45794028Y-33515677D01*
X45816682Y-33490682D01*
X45841677Y-33468028D01*
X45868773Y-33447932D01*
X45897707Y-33430590D01*
X45928203Y-33416166D01*
X45959965Y-33404802D01*
X45992688Y-33396605D01*
X46026057Y-33391655D01*
X46059750Y-33390000D01*
X46747250Y-33390000D01*
X46780943Y-33391655D01*
X46780943Y-33391655D01*
G37*
D13*
X46403500Y-34290000D03*
D11*
G36*
X44905943Y-33391655D02*
X44939312Y-33396605D01*
X44972035Y-33404802D01*
X45003797Y-33416166D01*
X45034293Y-33430590D01*
X45063227Y-33447932D01*
X45090323Y-33468028D01*
X45115318Y-33490682D01*
X45137972Y-33515677D01*
X45158068Y-33542773D01*
X45175410Y-33571707D01*
X45189834Y-33602203D01*
X45201198Y-33633965D01*
X45209395Y-33666688D01*
X45214345Y-33700057D01*
X45216000Y-33733750D01*
X45216000Y-34846250D01*
X45214345Y-34879943D01*
X45209395Y-34913312D01*
X45201198Y-34946035D01*
X45189834Y-34977797D01*
X45175410Y-35008293D01*
X45158068Y-35037227D01*
X45137972Y-35064323D01*
X45115318Y-35089318D01*
X45090323Y-35111972D01*
X45063227Y-35132068D01*
X45034293Y-35149410D01*
X45003797Y-35163834D01*
X44972035Y-35175198D01*
X44939312Y-35183395D01*
X44905943Y-35188345D01*
X44872250Y-35190000D01*
X44184750Y-35190000D01*
X44151057Y-35188345D01*
X44117688Y-35183395D01*
X44084965Y-35175198D01*
X44053203Y-35163834D01*
X44022707Y-35149410D01*
X43993773Y-35132068D01*
X43966677Y-35111972D01*
X43941682Y-35089318D01*
X43919028Y-35064323D01*
X43898932Y-35037227D01*
X43881590Y-35008293D01*
X43867166Y-34977797D01*
X43855802Y-34946035D01*
X43847605Y-34913312D01*
X43842655Y-34879943D01*
X43841000Y-34846250D01*
X43841000Y-33733750D01*
X43842655Y-33700057D01*
X43847605Y-33666688D01*
X43855802Y-33633965D01*
X43867166Y-33602203D01*
X43881590Y-33571707D01*
X43898932Y-33542773D01*
X43919028Y-33515677D01*
X43941682Y-33490682D01*
X43966677Y-33468028D01*
X43993773Y-33447932D01*
X44022707Y-33430590D01*
X44053203Y-33416166D01*
X44084965Y-33404802D01*
X44117688Y-33396605D01*
X44151057Y-33391655D01*
X44184750Y-33390000D01*
X44872250Y-33390000D01*
X44905943Y-33391655D01*
X44905943Y-33391655D01*
G37*
D13*
X44528500Y-34290000D03*
G04 #@! TD*
D11*
G04 #@! TO.C,C3*
G36*
X49295346Y-58928589D02*
X49327380Y-58933341D01*
X49358794Y-58941210D01*
X49389286Y-58952120D01*
X49418561Y-58965966D01*
X49446338Y-58982615D01*
X49472350Y-59001907D01*
X49496345Y-59023655D01*
X49518093Y-59047650D01*
X49537385Y-59073662D01*
X49554034Y-59101439D01*
X49567880Y-59130714D01*
X49578790Y-59161206D01*
X49586659Y-59192620D01*
X49591411Y-59224654D01*
X49593000Y-59257000D01*
X49593000Y-61647000D01*
X49591411Y-61679346D01*
X49586659Y-61711380D01*
X49578790Y-61742794D01*
X49567880Y-61773286D01*
X49554034Y-61802561D01*
X49537385Y-61830338D01*
X49518093Y-61856350D01*
X49496345Y-61880345D01*
X49472350Y-61902093D01*
X49446338Y-61921385D01*
X49418561Y-61938034D01*
X49389286Y-61951880D01*
X49358794Y-61962790D01*
X49327380Y-61970659D01*
X49295346Y-61975411D01*
X49263000Y-61977000D01*
X48273000Y-61977000D01*
X48240654Y-61975411D01*
X48208620Y-61970659D01*
X48177206Y-61962790D01*
X48146714Y-61951880D01*
X48117439Y-61938034D01*
X48089662Y-61921385D01*
X48063650Y-61902093D01*
X48039655Y-61880345D01*
X48017907Y-61856350D01*
X47998615Y-61830338D01*
X47981966Y-61802561D01*
X47968120Y-61773286D01*
X47957210Y-61742794D01*
X47949341Y-61711380D01*
X47944589Y-61679346D01*
X47943000Y-61647000D01*
X47943000Y-59257000D01*
X47944589Y-59224654D01*
X47949341Y-59192620D01*
X47957210Y-59161206D01*
X47968120Y-59130714D01*
X47981966Y-59101439D01*
X47998615Y-59073662D01*
X48017907Y-59047650D01*
X48039655Y-59023655D01*
X48063650Y-59001907D01*
X48089662Y-58982615D01*
X48117439Y-58965966D01*
X48146714Y-58952120D01*
X48177206Y-58941210D01*
X48208620Y-58933341D01*
X48240654Y-58928589D01*
X48273000Y-58927000D01*
X49263000Y-58927000D01*
X49295346Y-58928589D01*
X49295346Y-58928589D01*
G37*
D14*
X48768000Y-60452000D03*
D11*
G36*
X52095346Y-58928589D02*
X52127380Y-58933341D01*
X52158794Y-58941210D01*
X52189286Y-58952120D01*
X52218561Y-58965966D01*
X52246338Y-58982615D01*
X52272350Y-59001907D01*
X52296345Y-59023655D01*
X52318093Y-59047650D01*
X52337385Y-59073662D01*
X52354034Y-59101439D01*
X52367880Y-59130714D01*
X52378790Y-59161206D01*
X52386659Y-59192620D01*
X52391411Y-59224654D01*
X52393000Y-59257000D01*
X52393000Y-61647000D01*
X52391411Y-61679346D01*
X52386659Y-61711380D01*
X52378790Y-61742794D01*
X52367880Y-61773286D01*
X52354034Y-61802561D01*
X52337385Y-61830338D01*
X52318093Y-61856350D01*
X52296345Y-61880345D01*
X52272350Y-61902093D01*
X52246338Y-61921385D01*
X52218561Y-61938034D01*
X52189286Y-61951880D01*
X52158794Y-61962790D01*
X52127380Y-61970659D01*
X52095346Y-61975411D01*
X52063000Y-61977000D01*
X51073000Y-61977000D01*
X51040654Y-61975411D01*
X51008620Y-61970659D01*
X50977206Y-61962790D01*
X50946714Y-61951880D01*
X50917439Y-61938034D01*
X50889662Y-61921385D01*
X50863650Y-61902093D01*
X50839655Y-61880345D01*
X50817907Y-61856350D01*
X50798615Y-61830338D01*
X50781966Y-61802561D01*
X50768120Y-61773286D01*
X50757210Y-61742794D01*
X50749341Y-61711380D01*
X50744589Y-61679346D01*
X50743000Y-61647000D01*
X50743000Y-59257000D01*
X50744589Y-59224654D01*
X50749341Y-59192620D01*
X50757210Y-59161206D01*
X50768120Y-59130714D01*
X50781966Y-59101439D01*
X50798615Y-59073662D01*
X50817907Y-59047650D01*
X50839655Y-59023655D01*
X50863650Y-59001907D01*
X50889662Y-58982615D01*
X50917439Y-58965966D01*
X50946714Y-58952120D01*
X50977206Y-58941210D01*
X51008620Y-58933341D01*
X51040654Y-58928589D01*
X51073000Y-58927000D01*
X52063000Y-58927000D01*
X52095346Y-58928589D01*
X52095346Y-58928589D01*
G37*
D14*
X51568000Y-60452000D03*
G04 #@! TD*
D15*
G04 #@! TO.C,J3*
X45974000Y-38608000D03*
D16*
X48514000Y-38608000D03*
X51054000Y-38608000D03*
X53594000Y-38608000D03*
G04 #@! TD*
G04 #@! TO.C,J2*
X35000000Y-62780000D03*
X35000000Y-60240000D03*
X35000000Y-57700000D03*
X35000000Y-55160000D03*
X35000000Y-52620000D03*
X35000000Y-50080000D03*
X35000000Y-47540000D03*
D15*
X35000000Y-45000000D03*
G04 #@! TD*
G04 #@! TO.C,J1*
X65000000Y-63000000D03*
D16*
X65000000Y-60460000D03*
X65000000Y-57920000D03*
X65000000Y-55380000D03*
X65000000Y-52840000D03*
X65000000Y-50300000D03*
X65000000Y-47760000D03*
X65000000Y-45220000D03*
G04 #@! TD*
D17*
G04 #@! TO.C,J4*
X51038000Y-67023500D03*
D18*
X47538000Y-64323500D03*
D19*
X49388000Y-64323500D03*
X48738000Y-64323500D03*
X51338000Y-64323500D03*
X50688000Y-64323500D03*
X50038000Y-64323500D03*
D18*
X52538000Y-64323500D03*
D17*
X49038000Y-67023500D03*
D20*
X46538000Y-67023500D03*
X53538000Y-67023500D03*
D21*
X52938000Y-67023500D03*
X47138000Y-67023500D03*
G04 #@! TD*
D22*
G04 #@! TO.C,Y1*
X40132000Y-42350000D03*
X40132000Y-33850000D03*
G04 #@! TD*
D11*
G04 #@! TO.C,D1*
G36*
X60787943Y-45209655D02*
X60821312Y-45214605D01*
X60854035Y-45222802D01*
X60885797Y-45234166D01*
X60916293Y-45248590D01*
X60945227Y-45265932D01*
X60972323Y-45286028D01*
X60997318Y-45308682D01*
X61019972Y-45333677D01*
X61040068Y-45360773D01*
X61057410Y-45389707D01*
X61071834Y-45420203D01*
X61083198Y-45451965D01*
X61091395Y-45484688D01*
X61096345Y-45518057D01*
X61098000Y-45551750D01*
X61098000Y-46239250D01*
X61096345Y-46272943D01*
X61091395Y-46306312D01*
X61083198Y-46339035D01*
X61071834Y-46370797D01*
X61057410Y-46401293D01*
X61040068Y-46430227D01*
X61019972Y-46457323D01*
X60997318Y-46482318D01*
X60972323Y-46504972D01*
X60945227Y-46525068D01*
X60916293Y-46542410D01*
X60885797Y-46556834D01*
X60854035Y-46568198D01*
X60821312Y-46576395D01*
X60787943Y-46581345D01*
X60754250Y-46583000D01*
X59641750Y-46583000D01*
X59608057Y-46581345D01*
X59574688Y-46576395D01*
X59541965Y-46568198D01*
X59510203Y-46556834D01*
X59479707Y-46542410D01*
X59450773Y-46525068D01*
X59423677Y-46504972D01*
X59398682Y-46482318D01*
X59376028Y-46457323D01*
X59355932Y-46430227D01*
X59338590Y-46401293D01*
X59324166Y-46370797D01*
X59312802Y-46339035D01*
X59304605Y-46306312D01*
X59299655Y-46272943D01*
X59298000Y-46239250D01*
X59298000Y-45551750D01*
X59299655Y-45518057D01*
X59304605Y-45484688D01*
X59312802Y-45451965D01*
X59324166Y-45420203D01*
X59338590Y-45389707D01*
X59355932Y-45360773D01*
X59376028Y-45333677D01*
X59398682Y-45308682D01*
X59423677Y-45286028D01*
X59450773Y-45265932D01*
X59479707Y-45248590D01*
X59510203Y-45234166D01*
X59541965Y-45222802D01*
X59574688Y-45214605D01*
X59608057Y-45209655D01*
X59641750Y-45208000D01*
X60754250Y-45208000D01*
X60787943Y-45209655D01*
X60787943Y-45209655D01*
G37*
D13*
X60198000Y-45895500D03*
D11*
G36*
X60787943Y-43334655D02*
X60821312Y-43339605D01*
X60854035Y-43347802D01*
X60885797Y-43359166D01*
X60916293Y-43373590D01*
X60945227Y-43390932D01*
X60972323Y-43411028D01*
X60997318Y-43433682D01*
X61019972Y-43458677D01*
X61040068Y-43485773D01*
X61057410Y-43514707D01*
X61071834Y-43545203D01*
X61083198Y-43576965D01*
X61091395Y-43609688D01*
X61096345Y-43643057D01*
X61098000Y-43676750D01*
X61098000Y-44364250D01*
X61096345Y-44397943D01*
X61091395Y-44431312D01*
X61083198Y-44464035D01*
X61071834Y-44495797D01*
X61057410Y-44526293D01*
X61040068Y-44555227D01*
X61019972Y-44582323D01*
X60997318Y-44607318D01*
X60972323Y-44629972D01*
X60945227Y-44650068D01*
X60916293Y-44667410D01*
X60885797Y-44681834D01*
X60854035Y-44693198D01*
X60821312Y-44701395D01*
X60787943Y-44706345D01*
X60754250Y-44708000D01*
X59641750Y-44708000D01*
X59608057Y-44706345D01*
X59574688Y-44701395D01*
X59541965Y-44693198D01*
X59510203Y-44681834D01*
X59479707Y-44667410D01*
X59450773Y-44650068D01*
X59423677Y-44629972D01*
X59398682Y-44607318D01*
X59376028Y-44582323D01*
X59355932Y-44555227D01*
X59338590Y-44526293D01*
X59324166Y-44495797D01*
X59312802Y-44464035D01*
X59304605Y-44431312D01*
X59299655Y-44397943D01*
X59298000Y-44364250D01*
X59298000Y-43676750D01*
X59299655Y-43643057D01*
X59304605Y-43609688D01*
X59312802Y-43576965D01*
X59324166Y-43545203D01*
X59338590Y-43514707D01*
X59355932Y-43485773D01*
X59376028Y-43458677D01*
X59398682Y-43433682D01*
X59423677Y-43411028D01*
X59450773Y-43390932D01*
X59479707Y-43373590D01*
X59510203Y-43359166D01*
X59541965Y-43347802D01*
X59574688Y-43339605D01*
X59608057Y-43334655D01*
X59641750Y-43333000D01*
X60754250Y-43333000D01*
X60787943Y-43334655D01*
X60787943Y-43334655D01*
G37*
D13*
X60198000Y-44020500D03*
G04 #@! TD*
D23*
G04 #@! TO.C,U1*
X45750000Y-47200000D03*
X45750000Y-48000000D03*
X45750000Y-48800000D03*
X45750000Y-49600000D03*
X45750000Y-50400000D03*
X45750000Y-51200000D03*
X45750000Y-52000000D03*
X45750000Y-52800000D03*
D24*
X47200000Y-54250000D03*
X48000000Y-54250000D03*
X48800000Y-54250000D03*
X49600000Y-54250000D03*
X50400000Y-54250000D03*
X51200000Y-54250000D03*
X52000000Y-54250000D03*
X52800000Y-54250000D03*
D23*
X54250000Y-52800000D03*
X54250000Y-52000000D03*
X54250000Y-51200000D03*
X54250000Y-50400000D03*
X54250000Y-49600000D03*
X54250000Y-48800000D03*
X54250000Y-48000000D03*
X54250000Y-47200000D03*
D24*
X52800000Y-45750000D03*
X52000000Y-45750000D03*
X51200000Y-45750000D03*
X50400000Y-45750000D03*
X49600000Y-45750000D03*
X48800000Y-45750000D03*
X48000000Y-45750000D03*
X47200000Y-45750000D03*
G04 #@! TD*
D11*
G04 #@! TO.C,R4*
G36*
X56405759Y-41899192D02*
X56429785Y-41902756D01*
X56453345Y-41908657D01*
X56476214Y-41916840D01*
X56498171Y-41927224D01*
X56519004Y-41939711D01*
X56538512Y-41954180D01*
X56556509Y-41970491D01*
X56572820Y-41988488D01*
X56587289Y-42007996D01*
X56599776Y-42028829D01*
X56610160Y-42050786D01*
X56618343Y-42073655D01*
X56624244Y-42097215D01*
X56627808Y-42121241D01*
X56629000Y-42145500D01*
X56629000Y-42690500D01*
X56627808Y-42714759D01*
X56624244Y-42738785D01*
X56618343Y-42762345D01*
X56610160Y-42785214D01*
X56599776Y-42807171D01*
X56587289Y-42828004D01*
X56572820Y-42847512D01*
X56556509Y-42865509D01*
X56538512Y-42881820D01*
X56519004Y-42896289D01*
X56498171Y-42908776D01*
X56476214Y-42919160D01*
X56453345Y-42927343D01*
X56429785Y-42933244D01*
X56405759Y-42936808D01*
X56381500Y-42938000D01*
X55886500Y-42938000D01*
X55862241Y-42936808D01*
X55838215Y-42933244D01*
X55814655Y-42927343D01*
X55791786Y-42919160D01*
X55769829Y-42908776D01*
X55748996Y-42896289D01*
X55729488Y-42881820D01*
X55711491Y-42865509D01*
X55695180Y-42847512D01*
X55680711Y-42828004D01*
X55668224Y-42807171D01*
X55657840Y-42785214D01*
X55649657Y-42762345D01*
X55643756Y-42738785D01*
X55640192Y-42714759D01*
X55639000Y-42690500D01*
X55639000Y-42145500D01*
X55640192Y-42121241D01*
X55643756Y-42097215D01*
X55649657Y-42073655D01*
X55657840Y-42050786D01*
X55668224Y-42028829D01*
X55680711Y-42007996D01*
X55695180Y-41988488D01*
X55711491Y-41970491D01*
X55729488Y-41954180D01*
X55748996Y-41939711D01*
X55769829Y-41927224D01*
X55791786Y-41916840D01*
X55814655Y-41908657D01*
X55838215Y-41902756D01*
X55862241Y-41899192D01*
X55886500Y-41898000D01*
X56381500Y-41898000D01*
X56405759Y-41899192D01*
X56405759Y-41899192D01*
G37*
D12*
X56134000Y-42418000D03*
D11*
G36*
X55435759Y-41899192D02*
X55459785Y-41902756D01*
X55483345Y-41908657D01*
X55506214Y-41916840D01*
X55528171Y-41927224D01*
X55549004Y-41939711D01*
X55568512Y-41954180D01*
X55586509Y-41970491D01*
X55602820Y-41988488D01*
X55617289Y-42007996D01*
X55629776Y-42028829D01*
X55640160Y-42050786D01*
X55648343Y-42073655D01*
X55654244Y-42097215D01*
X55657808Y-42121241D01*
X55659000Y-42145500D01*
X55659000Y-42690500D01*
X55657808Y-42714759D01*
X55654244Y-42738785D01*
X55648343Y-42762345D01*
X55640160Y-42785214D01*
X55629776Y-42807171D01*
X55617289Y-42828004D01*
X55602820Y-42847512D01*
X55586509Y-42865509D01*
X55568512Y-42881820D01*
X55549004Y-42896289D01*
X55528171Y-42908776D01*
X55506214Y-42919160D01*
X55483345Y-42927343D01*
X55459785Y-42933244D01*
X55435759Y-42936808D01*
X55411500Y-42938000D01*
X54916500Y-42938000D01*
X54892241Y-42936808D01*
X54868215Y-42933244D01*
X54844655Y-42927343D01*
X54821786Y-42919160D01*
X54799829Y-42908776D01*
X54778996Y-42896289D01*
X54759488Y-42881820D01*
X54741491Y-42865509D01*
X54725180Y-42847512D01*
X54710711Y-42828004D01*
X54698224Y-42807171D01*
X54687840Y-42785214D01*
X54679657Y-42762345D01*
X54673756Y-42738785D01*
X54670192Y-42714759D01*
X54669000Y-42690500D01*
X54669000Y-42145500D01*
X54670192Y-42121241D01*
X54673756Y-42097215D01*
X54679657Y-42073655D01*
X54687840Y-42050786D01*
X54698224Y-42028829D01*
X54710711Y-42007996D01*
X54725180Y-41988488D01*
X54741491Y-41970491D01*
X54759488Y-41954180D01*
X54778996Y-41939711D01*
X54799829Y-41927224D01*
X54821786Y-41916840D01*
X54844655Y-41908657D01*
X54868215Y-41902756D01*
X54892241Y-41899192D01*
X54916500Y-41898000D01*
X55411500Y-41898000D01*
X55435759Y-41899192D01*
X55435759Y-41899192D01*
G37*
D12*
X55164000Y-42418000D03*
G04 #@! TD*
D11*
G04 #@! TO.C,R3*
G36*
X62526759Y-44418192D02*
X62550785Y-44421756D01*
X62574345Y-44427657D01*
X62597214Y-44435840D01*
X62619171Y-44446224D01*
X62640004Y-44458711D01*
X62659512Y-44473180D01*
X62677509Y-44489491D01*
X62693820Y-44507488D01*
X62708289Y-44526996D01*
X62720776Y-44547829D01*
X62731160Y-44569786D01*
X62739343Y-44592655D01*
X62745244Y-44616215D01*
X62748808Y-44640241D01*
X62750000Y-44664500D01*
X62750000Y-45159500D01*
X62748808Y-45183759D01*
X62745244Y-45207785D01*
X62739343Y-45231345D01*
X62731160Y-45254214D01*
X62720776Y-45276171D01*
X62708289Y-45297004D01*
X62693820Y-45316512D01*
X62677509Y-45334509D01*
X62659512Y-45350820D01*
X62640004Y-45365289D01*
X62619171Y-45377776D01*
X62597214Y-45388160D01*
X62574345Y-45396343D01*
X62550785Y-45402244D01*
X62526759Y-45405808D01*
X62502500Y-45407000D01*
X61957500Y-45407000D01*
X61933241Y-45405808D01*
X61909215Y-45402244D01*
X61885655Y-45396343D01*
X61862786Y-45388160D01*
X61840829Y-45377776D01*
X61819996Y-45365289D01*
X61800488Y-45350820D01*
X61782491Y-45334509D01*
X61766180Y-45316512D01*
X61751711Y-45297004D01*
X61739224Y-45276171D01*
X61728840Y-45254214D01*
X61720657Y-45231345D01*
X61714756Y-45207785D01*
X61711192Y-45183759D01*
X61710000Y-45159500D01*
X61710000Y-44664500D01*
X61711192Y-44640241D01*
X61714756Y-44616215D01*
X61720657Y-44592655D01*
X61728840Y-44569786D01*
X61739224Y-44547829D01*
X61751711Y-44526996D01*
X61766180Y-44507488D01*
X61782491Y-44489491D01*
X61800488Y-44473180D01*
X61819996Y-44458711D01*
X61840829Y-44446224D01*
X61862786Y-44435840D01*
X61885655Y-44427657D01*
X61909215Y-44421756D01*
X61933241Y-44418192D01*
X61957500Y-44417000D01*
X62502500Y-44417000D01*
X62526759Y-44418192D01*
X62526759Y-44418192D01*
G37*
D12*
X62230000Y-44912000D03*
D11*
G36*
X62526759Y-43448192D02*
X62550785Y-43451756D01*
X62574345Y-43457657D01*
X62597214Y-43465840D01*
X62619171Y-43476224D01*
X62640004Y-43488711D01*
X62659512Y-43503180D01*
X62677509Y-43519491D01*
X62693820Y-43537488D01*
X62708289Y-43556996D01*
X62720776Y-43577829D01*
X62731160Y-43599786D01*
X62739343Y-43622655D01*
X62745244Y-43646215D01*
X62748808Y-43670241D01*
X62750000Y-43694500D01*
X62750000Y-44189500D01*
X62748808Y-44213759D01*
X62745244Y-44237785D01*
X62739343Y-44261345D01*
X62731160Y-44284214D01*
X62720776Y-44306171D01*
X62708289Y-44327004D01*
X62693820Y-44346512D01*
X62677509Y-44364509D01*
X62659512Y-44380820D01*
X62640004Y-44395289D01*
X62619171Y-44407776D01*
X62597214Y-44418160D01*
X62574345Y-44426343D01*
X62550785Y-44432244D01*
X62526759Y-44435808D01*
X62502500Y-44437000D01*
X61957500Y-44437000D01*
X61933241Y-44435808D01*
X61909215Y-44432244D01*
X61885655Y-44426343D01*
X61862786Y-44418160D01*
X61840829Y-44407776D01*
X61819996Y-44395289D01*
X61800488Y-44380820D01*
X61782491Y-44364509D01*
X61766180Y-44346512D01*
X61751711Y-44327004D01*
X61739224Y-44306171D01*
X61728840Y-44284214D01*
X61720657Y-44261345D01*
X61714756Y-44237785D01*
X61711192Y-44213759D01*
X61710000Y-44189500D01*
X61710000Y-43694500D01*
X61711192Y-43670241D01*
X61714756Y-43646215D01*
X61720657Y-43622655D01*
X61728840Y-43599786D01*
X61739224Y-43577829D01*
X61751711Y-43556996D01*
X61766180Y-43537488D01*
X61782491Y-43519491D01*
X61800488Y-43503180D01*
X61819996Y-43488711D01*
X61840829Y-43476224D01*
X61862786Y-43465840D01*
X61885655Y-43457657D01*
X61909215Y-43451756D01*
X61933241Y-43448192D01*
X61957500Y-43447000D01*
X62502500Y-43447000D01*
X62526759Y-43448192D01*
X62526759Y-43448192D01*
G37*
D12*
X62230000Y-43942000D03*
G04 #@! TD*
D11*
G04 #@! TO.C,R2*
G36*
X46778759Y-61690192D02*
X46802785Y-61693756D01*
X46826345Y-61699657D01*
X46849214Y-61707840D01*
X46871171Y-61718224D01*
X46892004Y-61730711D01*
X46911512Y-61745180D01*
X46929509Y-61761491D01*
X46945820Y-61779488D01*
X46960289Y-61798996D01*
X46972776Y-61819829D01*
X46983160Y-61841786D01*
X46991343Y-61864655D01*
X46997244Y-61888215D01*
X47000808Y-61912241D01*
X47002000Y-61936500D01*
X47002000Y-62431500D01*
X47000808Y-62455759D01*
X46997244Y-62479785D01*
X46991343Y-62503345D01*
X46983160Y-62526214D01*
X46972776Y-62548171D01*
X46960289Y-62569004D01*
X46945820Y-62588512D01*
X46929509Y-62606509D01*
X46911512Y-62622820D01*
X46892004Y-62637289D01*
X46871171Y-62649776D01*
X46849214Y-62660160D01*
X46826345Y-62668343D01*
X46802785Y-62674244D01*
X46778759Y-62677808D01*
X46754500Y-62679000D01*
X46209500Y-62679000D01*
X46185241Y-62677808D01*
X46161215Y-62674244D01*
X46137655Y-62668343D01*
X46114786Y-62660160D01*
X46092829Y-62649776D01*
X46071996Y-62637289D01*
X46052488Y-62622820D01*
X46034491Y-62606509D01*
X46018180Y-62588512D01*
X46003711Y-62569004D01*
X45991224Y-62548171D01*
X45980840Y-62526214D01*
X45972657Y-62503345D01*
X45966756Y-62479785D01*
X45963192Y-62455759D01*
X45962000Y-62431500D01*
X45962000Y-61936500D01*
X45963192Y-61912241D01*
X45966756Y-61888215D01*
X45972657Y-61864655D01*
X45980840Y-61841786D01*
X45991224Y-61819829D01*
X46003711Y-61798996D01*
X46018180Y-61779488D01*
X46034491Y-61761491D01*
X46052488Y-61745180D01*
X46071996Y-61730711D01*
X46092829Y-61718224D01*
X46114786Y-61707840D01*
X46137655Y-61699657D01*
X46161215Y-61693756D01*
X46185241Y-61690192D01*
X46209500Y-61689000D01*
X46754500Y-61689000D01*
X46778759Y-61690192D01*
X46778759Y-61690192D01*
G37*
D12*
X46482000Y-62184000D03*
D11*
G36*
X46778759Y-60720192D02*
X46802785Y-60723756D01*
X46826345Y-60729657D01*
X46849214Y-60737840D01*
X46871171Y-60748224D01*
X46892004Y-60760711D01*
X46911512Y-60775180D01*
X46929509Y-60791491D01*
X46945820Y-60809488D01*
X46960289Y-60828996D01*
X46972776Y-60849829D01*
X46983160Y-60871786D01*
X46991343Y-60894655D01*
X46997244Y-60918215D01*
X47000808Y-60942241D01*
X47002000Y-60966500D01*
X47002000Y-61461500D01*
X47000808Y-61485759D01*
X46997244Y-61509785D01*
X46991343Y-61533345D01*
X46983160Y-61556214D01*
X46972776Y-61578171D01*
X46960289Y-61599004D01*
X46945820Y-61618512D01*
X46929509Y-61636509D01*
X46911512Y-61652820D01*
X46892004Y-61667289D01*
X46871171Y-61679776D01*
X46849214Y-61690160D01*
X46826345Y-61698343D01*
X46802785Y-61704244D01*
X46778759Y-61707808D01*
X46754500Y-61709000D01*
X46209500Y-61709000D01*
X46185241Y-61707808D01*
X46161215Y-61704244D01*
X46137655Y-61698343D01*
X46114786Y-61690160D01*
X46092829Y-61679776D01*
X46071996Y-61667289D01*
X46052488Y-61652820D01*
X46034491Y-61636509D01*
X46018180Y-61618512D01*
X46003711Y-61599004D01*
X45991224Y-61578171D01*
X45980840Y-61556214D01*
X45972657Y-61533345D01*
X45966756Y-61509785D01*
X45963192Y-61485759D01*
X45962000Y-61461500D01*
X45962000Y-60966500D01*
X45963192Y-60942241D01*
X45966756Y-60918215D01*
X45972657Y-60894655D01*
X45980840Y-60871786D01*
X45991224Y-60849829D01*
X46003711Y-60828996D01*
X46018180Y-60809488D01*
X46034491Y-60791491D01*
X46052488Y-60775180D01*
X46071996Y-60760711D01*
X46092829Y-60748224D01*
X46114786Y-60737840D01*
X46137655Y-60729657D01*
X46161215Y-60723756D01*
X46185241Y-60720192D01*
X46209500Y-60719000D01*
X46754500Y-60719000D01*
X46778759Y-60720192D01*
X46778759Y-60720192D01*
G37*
D12*
X46482000Y-61214000D03*
G04 #@! TD*
D11*
G04 #@! TO.C,R1*
G36*
X53890759Y-60743192D02*
X53914785Y-60746756D01*
X53938345Y-60752657D01*
X53961214Y-60760840D01*
X53983171Y-60771224D01*
X54004004Y-60783711D01*
X54023512Y-60798180D01*
X54041509Y-60814491D01*
X54057820Y-60832488D01*
X54072289Y-60851996D01*
X54084776Y-60872829D01*
X54095160Y-60894786D01*
X54103343Y-60917655D01*
X54109244Y-60941215D01*
X54112808Y-60965241D01*
X54114000Y-60989500D01*
X54114000Y-61484500D01*
X54112808Y-61508759D01*
X54109244Y-61532785D01*
X54103343Y-61556345D01*
X54095160Y-61579214D01*
X54084776Y-61601171D01*
X54072289Y-61622004D01*
X54057820Y-61641512D01*
X54041509Y-61659509D01*
X54023512Y-61675820D01*
X54004004Y-61690289D01*
X53983171Y-61702776D01*
X53961214Y-61713160D01*
X53938345Y-61721343D01*
X53914785Y-61727244D01*
X53890759Y-61730808D01*
X53866500Y-61732000D01*
X53321500Y-61732000D01*
X53297241Y-61730808D01*
X53273215Y-61727244D01*
X53249655Y-61721343D01*
X53226786Y-61713160D01*
X53204829Y-61702776D01*
X53183996Y-61690289D01*
X53164488Y-61675820D01*
X53146491Y-61659509D01*
X53130180Y-61641512D01*
X53115711Y-61622004D01*
X53103224Y-61601171D01*
X53092840Y-61579214D01*
X53084657Y-61556345D01*
X53078756Y-61532785D01*
X53075192Y-61508759D01*
X53074000Y-61484500D01*
X53074000Y-60989500D01*
X53075192Y-60965241D01*
X53078756Y-60941215D01*
X53084657Y-60917655D01*
X53092840Y-60894786D01*
X53103224Y-60872829D01*
X53115711Y-60851996D01*
X53130180Y-60832488D01*
X53146491Y-60814491D01*
X53164488Y-60798180D01*
X53183996Y-60783711D01*
X53204829Y-60771224D01*
X53226786Y-60760840D01*
X53249655Y-60752657D01*
X53273215Y-60746756D01*
X53297241Y-60743192D01*
X53321500Y-60742000D01*
X53866500Y-60742000D01*
X53890759Y-60743192D01*
X53890759Y-60743192D01*
G37*
D12*
X53594000Y-61237000D03*
D11*
G36*
X53890759Y-61713192D02*
X53914785Y-61716756D01*
X53938345Y-61722657D01*
X53961214Y-61730840D01*
X53983171Y-61741224D01*
X54004004Y-61753711D01*
X54023512Y-61768180D01*
X54041509Y-61784491D01*
X54057820Y-61802488D01*
X54072289Y-61821996D01*
X54084776Y-61842829D01*
X54095160Y-61864786D01*
X54103343Y-61887655D01*
X54109244Y-61911215D01*
X54112808Y-61935241D01*
X54114000Y-61959500D01*
X54114000Y-62454500D01*
X54112808Y-62478759D01*
X54109244Y-62502785D01*
X54103343Y-62526345D01*
X54095160Y-62549214D01*
X54084776Y-62571171D01*
X54072289Y-62592004D01*
X54057820Y-62611512D01*
X54041509Y-62629509D01*
X54023512Y-62645820D01*
X54004004Y-62660289D01*
X53983171Y-62672776D01*
X53961214Y-62683160D01*
X53938345Y-62691343D01*
X53914785Y-62697244D01*
X53890759Y-62700808D01*
X53866500Y-62702000D01*
X53321500Y-62702000D01*
X53297241Y-62700808D01*
X53273215Y-62697244D01*
X53249655Y-62691343D01*
X53226786Y-62683160D01*
X53204829Y-62672776D01*
X53183996Y-62660289D01*
X53164488Y-62645820D01*
X53146491Y-62629509D01*
X53130180Y-62611512D01*
X53115711Y-62592004D01*
X53103224Y-62571171D01*
X53092840Y-62549214D01*
X53084657Y-62526345D01*
X53078756Y-62502785D01*
X53075192Y-62478759D01*
X53074000Y-62454500D01*
X53074000Y-61959500D01*
X53075192Y-61935241D01*
X53078756Y-61911215D01*
X53084657Y-61887655D01*
X53092840Y-61864786D01*
X53103224Y-61842829D01*
X53115711Y-61821996D01*
X53130180Y-61802488D01*
X53146491Y-61784491D01*
X53164488Y-61768180D01*
X53183996Y-61753711D01*
X53204829Y-61741224D01*
X53226786Y-61730840D01*
X53249655Y-61722657D01*
X53273215Y-61716756D01*
X53297241Y-61713192D01*
X53321500Y-61712000D01*
X53866500Y-61712000D01*
X53890759Y-61713192D01*
X53890759Y-61713192D01*
G37*
D12*
X53594000Y-62207000D03*
G04 #@! TD*
M02*
