G04 #@! TF.GenerationSoftware,KiCad,Pcbnew,(5.0.0)*
G04 #@! TF.CreationDate,2018-12-27T13:03:48-05:00*
G04 #@! TF.ProjectId,32u2-breakout,333275322D627265616B6F75742E6B69,rev?*
G04 #@! TF.SameCoordinates,Original*
G04 #@! TF.FileFunction,Legend,Top*
G04 #@! TF.FilePolarity,Positive*
%FSLAX46Y46*%
G04 Gerber Fmt 4.6, Leading zero omitted, Abs format (unit mm)*
G04 Created by KiCad (PCBNEW (5.0.0)) date 12/27/18 13:03:48*
%MOMM*%
%LPD*%
G01*
G04 APERTURE LIST*
%ADD10C,0.120000*%
%ADD11C,0.150000*%
G04 APERTURE END LIST*
D10*
G04 #@! TO.C,SW1*
X64346000Y-39454000D02*
X59606000Y-39454000D01*
X64346000Y-39454000D02*
X64346000Y-39054000D01*
X59606000Y-39454000D02*
X59606000Y-39054000D01*
X64346000Y-34714000D02*
X64346000Y-35114000D01*
X64346000Y-34714000D02*
X59606000Y-34714000D01*
X59606000Y-34714000D02*
X59606000Y-35114000D01*
X59606000Y-36054000D02*
X59606000Y-38114000D01*
X64346000Y-36054000D02*
X64346000Y-38114000D01*
G04 #@! TO.C,C4*
X45724578Y-35000000D02*
X45207422Y-35000000D01*
X45724578Y-33580000D02*
X45207422Y-33580000D01*
G04 #@! TO.C,C3*
X49565936Y-59092000D02*
X50770064Y-59092000D01*
X49565936Y-61812000D02*
X50770064Y-61812000D01*
G04 #@! TO.C,J3*
X54924000Y-39938000D02*
X54924000Y-37278000D01*
X47244000Y-39938000D02*
X54924000Y-39938000D01*
X47244000Y-37278000D02*
X54924000Y-37278000D01*
X47244000Y-39938000D02*
X47244000Y-37278000D01*
X45974000Y-39938000D02*
X44644000Y-39938000D01*
X44644000Y-39938000D02*
X44644000Y-38608000D01*
G04 #@! TO.C,J2*
X33670000Y-43670000D02*
X35000000Y-43670000D01*
X33670000Y-45000000D02*
X33670000Y-43670000D01*
X33670000Y-46270000D02*
X36330000Y-46270000D01*
X36330000Y-46270000D02*
X36330000Y-64110000D01*
X33670000Y-46270000D02*
X33670000Y-64110000D01*
X33670000Y-64110000D02*
X36330000Y-64110000D01*
G04 #@! TO.C,J1*
X66330000Y-43890000D02*
X63670000Y-43890000D01*
X66330000Y-61730000D02*
X66330000Y-43890000D01*
X63670000Y-61730000D02*
X63670000Y-43890000D01*
X66330000Y-61730000D02*
X63670000Y-61730000D01*
X66330000Y-63000000D02*
X66330000Y-64330000D01*
X66330000Y-64330000D02*
X65000000Y-64330000D01*
G04 #@! TO.C,J4*
X46138000Y-64023500D02*
X46588000Y-64023500D01*
X46138000Y-65873500D02*
X46138000Y-64023500D01*
X53938000Y-68423500D02*
X53938000Y-68173500D01*
X46138000Y-68423500D02*
X46138000Y-68173500D01*
X53938000Y-65873500D02*
X53938000Y-64023500D01*
X53938000Y-64023500D02*
X53488000Y-64023500D01*
X48338000Y-63473500D02*
X48788000Y-63473500D01*
X48338000Y-63473500D02*
X48338000Y-63923500D01*
G04 #@! TO.C,Y1*
X37582000Y-32200000D02*
X37582000Y-44800000D01*
X37582000Y-44800000D02*
X42682000Y-44800000D01*
X42682000Y-44800000D02*
X42682000Y-32200000D01*
G04 #@! TO.C,D1*
X59238000Y-43958000D02*
X59238000Y-46643000D01*
X59238000Y-46643000D02*
X61158000Y-46643000D01*
X61158000Y-46643000D02*
X61158000Y-43958000D01*
D11*
G04 #@! TO.C,U1*
X46375000Y-46375000D02*
X46375000Y-46600000D01*
X53625000Y-46375000D02*
X53625000Y-46700000D01*
X53625000Y-53625000D02*
X53625000Y-53300000D01*
X46375000Y-53625000D02*
X46375000Y-53300000D01*
X46375000Y-46375000D02*
X46700000Y-46375000D01*
X46375000Y-53625000D02*
X46700000Y-53625000D01*
X53625000Y-53625000D02*
X53300000Y-53625000D01*
X53625000Y-46375000D02*
X53300000Y-46375000D01*
X46375000Y-46600000D02*
X44950000Y-46600000D01*
G04 #@! TO.C,SW1*
X60642666Y-40688761D02*
X60785523Y-40736380D01*
X61023619Y-40736380D01*
X61118857Y-40688761D01*
X61166476Y-40641142D01*
X61214095Y-40545904D01*
X61214095Y-40450666D01*
X61166476Y-40355428D01*
X61118857Y-40307809D01*
X61023619Y-40260190D01*
X60833142Y-40212571D01*
X60737904Y-40164952D01*
X60690285Y-40117333D01*
X60642666Y-40022095D01*
X60642666Y-39926857D01*
X60690285Y-39831619D01*
X60737904Y-39784000D01*
X60833142Y-39736380D01*
X61071238Y-39736380D01*
X61214095Y-39784000D01*
X61547428Y-39736380D02*
X61785523Y-40736380D01*
X61976000Y-40022095D01*
X62166476Y-40736380D01*
X62404571Y-39736380D01*
X63309333Y-40736380D02*
X62737904Y-40736380D01*
X63023619Y-40736380D02*
X63023619Y-39736380D01*
X62928380Y-39879238D01*
X62833142Y-39974476D01*
X62737904Y-40022095D01*
G04 #@! TO.C,C2*
X35509142Y-33694666D02*
X35556761Y-33742285D01*
X35604380Y-33885142D01*
X35604380Y-33980380D01*
X35556761Y-34123238D01*
X35461523Y-34218476D01*
X35366285Y-34266095D01*
X35175809Y-34313714D01*
X35032952Y-34313714D01*
X34842476Y-34266095D01*
X34747238Y-34218476D01*
X34652000Y-34123238D01*
X34604380Y-33980380D01*
X34604380Y-33885142D01*
X34652000Y-33742285D01*
X34699619Y-33694666D01*
X34699619Y-33313714D02*
X34652000Y-33266095D01*
X34604380Y-33170857D01*
X34604380Y-32932761D01*
X34652000Y-32837523D01*
X34699619Y-32789904D01*
X34794857Y-32742285D01*
X34890095Y-32742285D01*
X35032952Y-32789904D01*
X35604380Y-33361333D01*
X35604380Y-32742285D01*
G04 #@! TO.C,C1*
X35763142Y-40806666D02*
X35810761Y-40854285D01*
X35858380Y-40997142D01*
X35858380Y-41092380D01*
X35810761Y-41235238D01*
X35715523Y-41330476D01*
X35620285Y-41378095D01*
X35429809Y-41425714D01*
X35286952Y-41425714D01*
X35096476Y-41378095D01*
X35001238Y-41330476D01*
X34906000Y-41235238D01*
X34858380Y-41092380D01*
X34858380Y-40997142D01*
X34906000Y-40854285D01*
X34953619Y-40806666D01*
X35858380Y-39854285D02*
X35858380Y-40425714D01*
X35858380Y-40140000D02*
X34858380Y-40140000D01*
X35001238Y-40235238D01*
X35096476Y-40330476D01*
X35144095Y-40425714D01*
G04 #@! TO.C,C4*
X45299333Y-36297142D02*
X45251714Y-36344761D01*
X45108857Y-36392380D01*
X45013619Y-36392380D01*
X44870761Y-36344761D01*
X44775523Y-36249523D01*
X44727904Y-36154285D01*
X44680285Y-35963809D01*
X44680285Y-35820952D01*
X44727904Y-35630476D01*
X44775523Y-35535238D01*
X44870761Y-35440000D01*
X45013619Y-35392380D01*
X45108857Y-35392380D01*
X45251714Y-35440000D01*
X45299333Y-35487619D01*
X46156476Y-35725714D02*
X46156476Y-36392380D01*
X45918380Y-35344761D02*
X45680285Y-36059047D01*
X46299333Y-36059047D01*
G04 #@! TO.C,C3*
X50001333Y-58529142D02*
X49953714Y-58576761D01*
X49810857Y-58624380D01*
X49715619Y-58624380D01*
X49572761Y-58576761D01*
X49477523Y-58481523D01*
X49429904Y-58386285D01*
X49382285Y-58195809D01*
X49382285Y-58052952D01*
X49429904Y-57862476D01*
X49477523Y-57767238D01*
X49572761Y-57672000D01*
X49715619Y-57624380D01*
X49810857Y-57624380D01*
X49953714Y-57672000D01*
X50001333Y-57719619D01*
X50334666Y-57624380D02*
X50953714Y-57624380D01*
X50620380Y-58005333D01*
X50763238Y-58005333D01*
X50858476Y-58052952D01*
X50906095Y-58100571D01*
X50953714Y-58195809D01*
X50953714Y-58433904D01*
X50906095Y-58529142D01*
X50858476Y-58576761D01*
X50763238Y-58624380D01*
X50477523Y-58624380D01*
X50382285Y-58576761D01*
X50334666Y-58529142D01*
G04 #@! TO.C,J3*
X43096380Y-38941333D02*
X43810666Y-38941333D01*
X43953523Y-38988952D01*
X44048761Y-39084190D01*
X44096380Y-39227047D01*
X44096380Y-39322285D01*
X43096380Y-38560380D02*
X43096380Y-37941333D01*
X43477333Y-38274666D01*
X43477333Y-38131809D01*
X43524952Y-38036571D01*
X43572571Y-37988952D01*
X43667809Y-37941333D01*
X43905904Y-37941333D01*
X44001142Y-37988952D01*
X44048761Y-38036571D01*
X44096380Y-38131809D01*
X44096380Y-38417523D01*
X44048761Y-38512761D01*
X44001142Y-38560380D01*
G04 #@! TO.C,J2*
X34666666Y-42122380D02*
X34666666Y-42836666D01*
X34619047Y-42979523D01*
X34523809Y-43074761D01*
X34380952Y-43122380D01*
X34285714Y-43122380D01*
X35095238Y-42217619D02*
X35142857Y-42170000D01*
X35238095Y-42122380D01*
X35476190Y-42122380D01*
X35571428Y-42170000D01*
X35619047Y-42217619D01*
X35666666Y-42312857D01*
X35666666Y-42408095D01*
X35619047Y-42550952D01*
X35047619Y-43122380D01*
X35666666Y-43122380D01*
G04 #@! TO.C,J1*
X64666666Y-64782380D02*
X64666666Y-65496666D01*
X64619047Y-65639523D01*
X64523809Y-65734761D01*
X64380952Y-65782380D01*
X64285714Y-65782380D01*
X65666666Y-65782380D02*
X65095238Y-65782380D01*
X65380952Y-65782380D02*
X65380952Y-64782380D01*
X65285714Y-64925238D01*
X65190476Y-65020476D01*
X65095238Y-65068095D01*
G04 #@! TO.C,J4*
X49704666Y-62125880D02*
X49704666Y-62840166D01*
X49657047Y-62983023D01*
X49561809Y-63078261D01*
X49418952Y-63125880D01*
X49323714Y-63125880D01*
X50609428Y-62459214D02*
X50609428Y-63125880D01*
X50371333Y-62078261D02*
X50133238Y-62792547D01*
X50752285Y-62792547D01*
G04 #@! TO.C,Y1*
X36558190Y-38576190D02*
X37034380Y-38576190D01*
X36034380Y-38909523D02*
X36558190Y-38576190D01*
X36034380Y-38242857D01*
X37034380Y-37385714D02*
X37034380Y-37957142D01*
X37034380Y-37671428D02*
X36034380Y-37671428D01*
X36177238Y-37766666D01*
X36272476Y-37861904D01*
X36320095Y-37957142D01*
G04 #@! TO.C,D1*
X59000380Y-45696095D02*
X58000380Y-45696095D01*
X58000380Y-45458000D01*
X58048000Y-45315142D01*
X58143238Y-45219904D01*
X58238476Y-45172285D01*
X58428952Y-45124666D01*
X58571809Y-45124666D01*
X58762285Y-45172285D01*
X58857523Y-45219904D01*
X58952761Y-45315142D01*
X59000380Y-45458000D01*
X59000380Y-45696095D01*
X59000380Y-44172285D02*
X59000380Y-44743714D01*
X59000380Y-44458000D02*
X58000380Y-44458000D01*
X58143238Y-44553238D01*
X58238476Y-44648476D01*
X58286095Y-44743714D01*
G04 #@! TO.C,U1*
X49238095Y-43402380D02*
X49238095Y-44211904D01*
X49285714Y-44307142D01*
X49333333Y-44354761D01*
X49428571Y-44402380D01*
X49619047Y-44402380D01*
X49714285Y-44354761D01*
X49761904Y-44307142D01*
X49809523Y-44211904D01*
X49809523Y-43402380D01*
X50809523Y-44402380D02*
X50238095Y-44402380D01*
X50523809Y-44402380D02*
X50523809Y-43402380D01*
X50428571Y-43545238D01*
X50333333Y-43640476D01*
X50238095Y-43688095D01*
G04 #@! TO.C,R4*
X55482333Y-41700380D02*
X55149000Y-41224190D01*
X54910904Y-41700380D02*
X54910904Y-40700380D01*
X55291857Y-40700380D01*
X55387095Y-40748000D01*
X55434714Y-40795619D01*
X55482333Y-40890857D01*
X55482333Y-41033714D01*
X55434714Y-41128952D01*
X55387095Y-41176571D01*
X55291857Y-41224190D01*
X54910904Y-41224190D01*
X56339476Y-41033714D02*
X56339476Y-41700380D01*
X56101380Y-40652761D02*
X55863285Y-41367047D01*
X56482333Y-41367047D01*
G04 #@! TO.C,R3*
X61512380Y-44593666D02*
X61036190Y-44927000D01*
X61512380Y-45165095D02*
X60512380Y-45165095D01*
X60512380Y-44784142D01*
X60560000Y-44688904D01*
X60607619Y-44641285D01*
X60702857Y-44593666D01*
X60845714Y-44593666D01*
X60940952Y-44641285D01*
X60988571Y-44688904D01*
X61036190Y-44784142D01*
X61036190Y-45165095D01*
X60512380Y-44260333D02*
X60512380Y-43641285D01*
X60893333Y-43974619D01*
X60893333Y-43831761D01*
X60940952Y-43736523D01*
X60988571Y-43688904D01*
X61083809Y-43641285D01*
X61321904Y-43641285D01*
X61417142Y-43688904D01*
X61464761Y-43736523D01*
X61512380Y-43831761D01*
X61512380Y-44117476D01*
X61464761Y-44212714D01*
X61417142Y-44260333D01*
G04 #@! TO.C,R2*
X45664380Y-61888666D02*
X45188190Y-62222000D01*
X45664380Y-62460095D02*
X44664380Y-62460095D01*
X44664380Y-62079142D01*
X44712000Y-61983904D01*
X44759619Y-61936285D01*
X44854857Y-61888666D01*
X44997714Y-61888666D01*
X45092952Y-61936285D01*
X45140571Y-61983904D01*
X45188190Y-62079142D01*
X45188190Y-62460095D01*
X44759619Y-61507714D02*
X44712000Y-61460095D01*
X44664380Y-61364857D01*
X44664380Y-61126761D01*
X44712000Y-61031523D01*
X44759619Y-60983904D01*
X44854857Y-60936285D01*
X44950095Y-60936285D01*
X45092952Y-60983904D01*
X45664380Y-61555333D01*
X45664380Y-60936285D01*
G04 #@! TO.C,R1*
X55216380Y-61888666D02*
X54740190Y-62222000D01*
X55216380Y-62460095D02*
X54216380Y-62460095D01*
X54216380Y-62079142D01*
X54264000Y-61983904D01*
X54311619Y-61936285D01*
X54406857Y-61888666D01*
X54549714Y-61888666D01*
X54644952Y-61936285D01*
X54692571Y-61983904D01*
X54740190Y-62079142D01*
X54740190Y-62460095D01*
X55216380Y-60936285D02*
X55216380Y-61507714D01*
X55216380Y-61222000D02*
X54216380Y-61222000D01*
X54359238Y-61317238D01*
X54454476Y-61412476D01*
X54502095Y-61507714D01*
G04 #@! TD*
M02*
