M48
;DRILL file {KiCad (5.0.0)} date 12/27/18 13:03:51
;FORMAT={-:-/ absolute / inch / decimal}
FMAT,2
INCH,TZ
T1C0.0157
T2C0.0236
T3C0.0335
T4C0.0394
%
G90
G05
M72
T1
X1.43Y-1.26
X1.44Y-1.54
X1.58Y-1.5
X1.6815Y-1.8585
X1.69Y-1.9872
X1.72Y-1.8
X1.74Y-1.27
X1.83Y-2.48
X1.8409Y-2.3609
X1.9Y-1.72
X1.93Y-2.47
X1.9483Y-1.7217
X1.9839Y-1.7577
X2.0332Y-2.4776
X2.05Y-2.26
X2.1Y-2.36
X2.23Y-1.4
X2.23Y-1.88
X2.36Y-1.52
X2.44Y-1.69
X2.52Y-1.52
X2.63Y-1.38
T3
X1.8716Y-2.5324
X2.0684Y-2.5324
T4
X1.81Y-1.52
X1.91Y-1.52
X2.01Y-1.52
X2.11Y-1.52
X1.378Y-1.7717
X1.378Y-1.8717
X1.378Y-1.9717
X1.378Y-2.0717
X1.378Y-2.1717
X1.378Y-2.2717
X1.378Y-2.3717
X1.378Y-2.4717
X2.5591Y-1.7803
X2.5591Y-1.8803
X2.5591Y-1.9803
X2.5591Y-2.0803
X2.5591Y-2.1803
X2.5591Y-2.2803
X2.5591Y-2.3803
X2.5591Y-2.4803
T2
X1.8322Y-2.6525G85X1.8322Y-2.6249
G05
X2.1078Y-2.6249G85X2.1078Y-2.6525
G05
T0
M30
